<?xml version="1.0" encoding="UTF-8"?>
<svg xmlns="http://www.w3.org/2000/svg" xmlns:xlink="http://www.w3.org/1999/xlink" version="1.1" viewBox="0 0 1627.91 1145.67">
  <!-- Generator: Adobe Illustrator 29.8.1, SVG Export Plug-In . SVG Version: 2.1.1 Build 2)  -->
  <defs>
    <mask id="mask" x="1258.35" y="237" width="200.78" height="199.62" maskUnits="userSpaceOnUse">
      <g id="mask0">
        <path d="M1400.76,435.77c3.16,1.23,6.76,1.15,9.95-.38l41.31-19.88c4.34-2.09,7.1-6.48,7.1-11.3v-134.79c0-4.82-2.76-9.21-7.1-11.3l-41.31-19.88c-4.19-2.01-9.09-1.52-12.76,1.15-.52.38-1.02.81-1.49,1.28l-79.09,72.15-34.45-26.15c-3.21-2.43-7.69-2.23-10.67.47l-11.05,10.05c-3.64,3.31-3.65,9.05,0,12.36l29.87,27.26-29.87,27.26c-3.64,3.32-3.63,9.05,0,12.36l11.05,10.05c2.98,2.71,7.46,2.91,10.67.47l34.45-26.15,79.09,72.15c1.25,1.25,2.72,2.19,4.3,2.81ZM1408.99,291.26l-60.01,45.55,60.01,45.55v-91.1Z" style="fill: #fff; fill-rule: evenodd;"/>
      </g>
    </mask>
    <linearGradient id="linear-gradient" x1="1301.13" y1="-1601.37" x2="1301.13" y2="-1801" gradientTransform="translate(57.54 -1364.37) scale(1 -1)" gradientUnits="userSpaceOnUse">
      <stop offset="0" stop-color="#fff"/>
      <stop offset="1" stop-color="#fff" stop-opacity="0"/>
    </linearGradient>
    <linearGradient id="linear-gradient1" x1="713.33" y1="1252.16" x2="831.16" y2="1370.38" gradientTransform="translate(4.04 -494.61)" gradientUnits="userSpaceOnUse">
      <stop offset="0" stop-color="#397fb9"/>
      <stop offset="1" stop-color="#376a95"/>
    </linearGradient>
    <linearGradient id="linear-gradient2" x1="784.94" y1="1327.69" x2="911.27" y2="1448.72" gradientTransform="translate(4.04 -494.61)" gradientUnits="userSpaceOnUse">
      <stop offset="0" stop-color="#fee051"/>
      <stop offset="1" stop-color="#ffc332"/>
    </linearGradient>
  </defs>
  <g style="isolation: isolate;">
    <g id="Layer_1">
      <g>
        <rect x="12.07" y="12.62" width="503.21" height="1119.68" rx="78.44" ry="78.44" style="fill: none; stroke: #7fbd42; stroke-miterlimit: 10; stroke-width: 7px;"/>
        <rect x="1112.07" y="12.62" width="493.33" height="1119.68" rx="78.44" ry="78.44" style="fill: none; stroke: #feda00; stroke-miterlimit: 10; stroke-width: 7px;"/>
      </g>
      <g>
        <g>
          <path d="M393.62,903.82c2.09-3.62,3.39-7.71,3.39-11.38v-127.3c0-3.67-1.3-7.75-3.39-11.37l-129.95,75.02,129.95,75.02Z" style="fill: #00599c;"/>
          <path d="M275.22,976.09l110.24-63.65c3.18-1.83,6.06-5,8.15-8.63l-129.95-75.02-129.95,75.02c2.09,3.62,4.98,6.79,8.15,8.62l110.24,63.65c6.35,3.67,16.74,3.67,23.09,0Z" style="fill: #194681;"/>
          <path d="M393.62,753.77c-2.09-3.63-4.98-6.79-8.16-8.63l-110.24-63.65c-6.35-3.67-16.74-3.67-23.09,0l-110.24,63.65c-6.35,3.67-11.55,12.67-11.55,20v127.3c0,3.67,1.3,7.75,3.39,11.38l129.95-75.02,129.95-75.02Z" style="fill: #659ad2;"/>
          <path d="M263.67,917.69c-49.02,0-88.89-39.88-88.89-88.89s39.88-88.89,88.89-88.89c31.63,0,61.13,17.02,76.98,44.42l-38.47,22.26c-7.93-13.71-22.69-22.23-38.51-22.23-24.51,0-44.45,19.94-44.45,44.45s19.94,44.45,44.45,44.45c15.82,0,30.58-8.52,38.51-22.24l38.47,22.26c-15.85,27.4-45.35,44.42-76.98,44.42Z" style="fill: #fff;"/>
          <polygon points="352.57 823.86 342.69 823.86 342.69 813.98 332.81 813.98 332.81 823.86 322.94 823.86 322.94 833.73 332.81 833.73 332.81 843.61 342.69 843.61 342.69 833.73 352.57 833.73 352.57 823.86" style="fill: #fff;"/>
          <polygon points="389.6 823.86 379.73 823.86 379.73 813.98 369.85 813.98 369.85 823.86 359.97 823.86 359.97 833.73 369.85 833.73 369.85 843.61 379.73 843.61 379.73 833.73 389.6 833.73 389.6 823.86" style="fill: #fff;"/>
        </g>
        <g>
          <path d="M229.44,384.07v-16.13c1.57-.12,3.15-.19,4.76-.25,44.1-1.38,73.04,37.9,73.04,37.9,0,0-31.25,43.37-64.76,43.37-4.43.02-8.83-.68-13.04-2.09v-48.86c17.17,2.07,20.62,9.63,30.95,26.86l22.96-19.36c-11.15-13.45-27.55-21.46-45.01-21.98-2.97.02-5.94.19-8.89.53M229.44,330.8v24.09c1.58-.13,3.17-.23,4.76-.29,61.33-2.06,101.29,50.3,101.29,50.3,0,0-45.9,55.8-93.71,55.8-4.14,0-8.27-.36-12.34-1.08v14.89c3.41.44,6.84.66,10.28.66,44.49,0,76.67-22.72,107.83-49.62,5.15,4.14,26.31,14.2,30.66,18.61-29.63,24.8-98.67,44.79-137.78,44.79-3.78,0-7.41-.23-10.96-.58v20.93h169.09v-178.51h-169.12ZM229.44,446.9v12.72c-41.15-7.34-52.58-50.1-52.58-50.1,14.16-14.15,32.69-23.12,52.58-25.44v13.94h-.06c-11.81-.14-23.06,5-30.68,14.03,0,0,7.53,27.08,30.73,34.88M156.35,407.65c17.6-23.03,44.19-37.48,73.09-39.71v-13.05c-53.94,4.33-100.65,50.01-100.65,50.01,0,0,26.46,76.49,100.65,83.48v-13.87c-54.41-6.85-73.09-66.86-73.09-66.86Z" style="fill: #7fbd42;"/>
          <g>
            <path d="M170.56,590.25c-2.8,6.25-6.87,9.28-12.44,9.28-2.3,0-4.29-.5-5.91-1.49l-.07-.04c-1.68-.85-3.05-1.97-4.07-3.33l-.05-.07c-1.24-1.41-2.08-3.29-2.5-5.63-.5-2.44-.75-7.25-.75-14.29s.25-11.88.75-14.41c.41-2.25,1.25-4.11,2.5-5.51l.05-.07c1.03-1.36,2.4-2.52,4.09-3.44,1.64-.88,3.66-1.36,5.94-1.42,3.15.06,5.84,1,7.99,2.76,2.12,1.92,3.61,4.27,4.42,6.98l.23.77h13.39l-.24-1.27c-1.16-6.26-3.99-11.58-8.41-15.83-4.46-4.25-10.28-6.44-17.33-6.5-5.72.07-10.58,1.51-14.43,4.27-3.87,2.7-6.74,5.83-8.52,9.31-1.11,1.86-1.95,4.3-2.48,7.26-.5,2.94-.74,8.53-.74,17.09s.24,13.99.74,16.99c.27,1.62.61,2.99,1.03,4.12.42,1.01.9,2.07,1.43,3.21,1.78,3.5,4.65,6.61,8.52,9.24,3.85,2.77,8.7,4.24,14.45,4.38,6.33,0,11.89-1.88,16.54-5.61,4.5-3.74,7.59-9.15,9.18-16.08l.3-1.32h-13.32l-.28.64Z" style="fill: #231f20;"/>
            <path d="M236.56,585.21c-.06,4.63-1.32,8.18-3.74,10.56-2.52,2.53-5.63,3.76-9.51,3.76s-6.96-1.23-9.44-3.78c-2.47-2.37-3.76-5.91-3.82-10.52v-47.87h-12.78v49.06c.07,7.89,2.65,14.25,7.65,18.89,4.9,4.78,11.09,7.24,18.4,7.31,7.42-.07,13.65-2.53,18.52-7.31,4.85-4.66,7.38-11.02,7.51-18.93v-49.02h-12.78v47.85Z" style="fill: #231f20;"/>
            <path d="M318.23,550.12c-4.94-8.4-12.45-12.7-22.32-12.77h-25.65v74.67h24.93c5.46,0,10.15-1.26,13.9-3.74,3.8-2.3,6.8-5.27,8.94-8.82.79-1.32,1.47-2.61,2.04-3.87.54-1.3.96-2.78,1.22-4.41.55-3.13.84-8.69.84-16.5,0-7.34-.18-12.58-.54-15.63-.47-3.12-1.61-6.13-3.36-8.94ZM283.04,549.85h11.69c5.06-.12,8.87,1.73,11.64,5.67l.06.08c1.31,1.53,2.15,3.57,2.5,6.04.28,2.68.43,7.2.43,13.44s-.14,10.82-.43,13.11c-.3,2.19-.99,4.02-2.06,5.42l-.05.07c-2.51,3.93-6.48,5.83-12.12,5.83h-11.66v-49.68Z" style="fill: #231f20;"/>
            <path d="M369.08,537.36h-10.43l-26.29,74.67h13.57l5.39-16.22h25.09l5.44,16.22h13.51l-26.29-74.67ZM372.67,583.91h-17.57l8.79-27.43,8.79,27.43Z" style="fill: #231f20;"/>
          </g>
        </g>
      </g>
      <g>
        <g>
          <rect x="1230.09" y="720.19" width="257.3" height="257.3" rx="27.16" ry="27.16" style="fill: #f6df18;"/>
          <path d="M1402.93,921.2c5.18,8.46,11.93,14.68,23.85,14.68,10.02,0,16.42-5.01,16.42-11.93,0-8.29-6.58-11.23-17.6-16.05l-6.04-2.59c-17.45-7.43-29.04-16.74-29.04-36.43,0-18.13,13.82-31.94,35.41-31.94,15.37,0,26.42,5.35,34.39,19.36l-18.83,12.09c-4.15-7.43-8.62-10.36-15.56-10.36s-11.57,4.49-11.57,10.36c0,7.25,4.49,10.19,14.87,14.68l6.04,2.59c20.54,8.81,32.14,17.79,32.14,37.98,0,21.77-17.1,33.69-40.06,33.69s-36.96-10.7-44.06-24.72l19.65-11.41ZM1317.52,923.3c3.8,6.74,7.25,12.44,15.56,12.44s12.95-3.11,12.95-15.19v-82.21h24.18v82.54c0,25.04-14.68,36.43-36.1,36.43-19.36,0-30.57-10.02-36.27-22.08l19.68-11.92Z"/>
        </g>
        <g>
          <g>
            <polygon points="1544.48 590.47 1544.48 592.48 1541.56 592.48 1541.56 599.47 1539.36 599.47 1539.36 592.48 1536.43 592.48 1536.43 590.47 1544.48 590.47" style="fill: #991b1e;"/>
            <polygon points="1553.27 599.47 1553.27 592.63 1553.27 592.63 1551.44 599.47 1549.61 599.47 1547.41 592.63 1547.41 592.63 1547.41 599.47 1545.22 599.47 1545.22 590.47 1548.88 590.47 1550.34 596.47 1551.8 590.47 1555.46 590.47 1555.46 599.47 1553.27 599.47" style="fill: #991b1e;"/>
          </g>
          <g>
            <path d="M1452.73,598.96c-3.28,1.39-6.56,2.09-9.88,2.09-5.25,0-9.98-.91-14.18-2.74-4.19-1.83-7.73-4.35-10.6-7.57-2.88-3.22-5.1-6.99-6.63-11.34s-2.3-9.04-2.3-14.05.77-9.92,2.3-14.34,3.72-8.27,6.6-11.53c2.88-3.29,6.41-5.85,10.6-7.72s8.89-2.82,14.18-2.82c3.53,0,6.92.55,10.2,1.61s6.27,2.63,8.93,4.68,4.85,4.61,6.56,7.65,2.77,6.51,3.17,10.43h-14.36c-.91-3.84-2.62-6.73-5.17-8.67-2.55-1.94-5.65-2.89-9.33-2.89-3.39,0-6.27.66-8.64,1.98s-4.3,3.07-5.76,5.31c-1.46,2.23-2.55,4.76-3.21,7.57s-1.02,5.75-1.02,8.78.33,5.71,1.02,8.45c.66,2.74,1.75,5.2,3.21,7.39s3.39,3.95,5.76,5.27,5.25,1.98,8.64,1.98c4.99,0,8.85-1.28,11.59-3.81,2.73-2.52,4.3-6.18,4.77-11.01h-15.16v-11.38h28.75v37.22h-9.58l-1.53-7.79c-2.66,3.48-5.65,5.89-8.93,7.28h0Z" style="fill: #991b1e;"/>
            <path d="M1497.22,530.64v56.03h33.42v12.77h-48.47v-68.8h15.05Z" style="fill: #991b1e;"/>
            <path d="M1426.09,608c-22.99,14.05-57.47,22.03-95.91,22.03-69.27,0-125.39-28.95-125.39-64.7s56.15-64.7,125.39-64.7c38.59,0,73.17,8.16,96.17,22.29-25.07-23.68-70.11-40.29-121.56-40.33-78.86,0-142.77,37.03-142.77,82.74s63.92,82.78,142.74,82.78c51.27,0,96.17-16.58,121.35-40.11h0Z" style="fill: #991b1e;"/>
          </g>
          <g>
            <polygon points="1241.3 582.71 1228.02 525.26 1215.47 525.26 1235.16 600.17 1246.94 600.17 1263.52 541.32 1279.87 600.17 1291.69 600.17 1312.08 525.26 1298.79 525.26 1285.51 582.71 1269.48 525.26 1257.33 525.26 1241.3 582.71" style="fill: #991b1e;"/>
            <path d="M1345.23,556.8c-1.83-2.6-4.14-4.57-6.84-5.93-2.78-1.39-6-2.09-9.59-2.09-4.03,0-7.65.73-10.8,2.16-2.96,1.35-5.49,3.37-7.54,5.96-3.77,4.79-5.75,11.56-5.75,19.58,0,3.55.51,6.92,1.5,9.92.99,3.04,2.49,5.71,4.39,7.94,4.03,4.68,9.77,7.17,16.61,7.17,3.59,0,6.51-.37,8.97-1.13,2.12-.66,3.55-1.54,4.72-2.31,1.5-.99,2.85-2.2,4.1-3.59,1.02-1.21,1.94-2.52,2.74-3.95,1.39-2.56,2.09-4.98,2.23-6.22l.11-.84h-9.77l-.04.7c-.26,3.18-4.43,8.86-11.86,8.86-10.61,0-13.14-7.68-13.32-14.45h35.57v-.77c0-4.35-.44-8.34-1.32-11.82-.99-3.62-2.34-6.7-4.14-9.19h0ZM1327.67,557.57c7.87,0,12.08,4.24,12.84,12.95h-25.47c.4-7.06,6-12.95,12.62-12.95Z" style="fill: #991b1e;"/>
            <path d="M1399.83,563.97c-.95-3.04-2.34-5.71-4.14-7.94-1.87-2.31-4.14-4.1-6.73-5.34-2.71-1.28-5.75-1.94-9.04-1.94-3.04.04-5.78.7-8.2,1.98-2.01,1.02-3.81,2.49-5.34,4.32v-22.98h-9.73v68.06h9.26v-4.65c.81,1.06,1.87,2.2,3.26,3.18,2.63,1.9,5.89,2.85,9.66,2.85,4.06,0,7.72-.91,10.8-2.71,2.74-1.61,5.09-3.92,6.92-6.84,1.61-2.56,2.82-5.6,3.62-9,.7-2.93,1.06-6.15,1.06-9.29.04-3.4-.44-6.7-1.39-9.7h0ZM1391.08,575.03c0,5.34-1.06,9.81-3.11,12.95-2.16,3.33-5.31,5.01-9.33,5.01-5.82,0-12.62-4.06-12.62-15.55,0-5.49.7-9.73,2.09-12.95,2.01-4.65,5.42-6.88,10.36-6.88,5.27,0,8.82,2.05,10.8,6.33,1.61,3.51,1.83,7.79,1.83,11.09Z" style="fill: #991b1e;"/>
          </g>
        </g>
        <g style="mask: url(#mask);">
          <g>
            <path d="M1452.03,258.15l-41.34-19.91c-4.79-2.3-10.5-1.33-14.26,2.42l-135.35,123.4c-3.64,3.32-3.64,9.05,0,12.36l11.06,10.05c2.98,2.71,7.47,2.91,10.68.47l162.99-123.65c5.47-4.15,13.32-.25,13.32,6.62v-.48c0-4.82-2.76-9.21-7.1-11.3Z" style="fill: #0066a9;"/>
            <path d="M1452.03,415.48l-41.34,19.91c-4.79,2.3-10.5,1.33-14.26-2.42l-135.35-123.4c-3.64-3.32-3.64-9.05,0-12.36l11.06-10.05c2.98-2.71,7.47-2.91,10.68-.47l162.99,123.65c5.47,4.15,13.32.25,13.32-6.62v.48c0,4.82-2.76,9.21-7.1,11.3Z" style="fill: #2179bf;"/>
            <path d="M1410.68,435.39c-4.79,2.3-10.51,1.33-14.26-2.43,4.63,4.63,12.54,1.35,12.54-5.19v-181.91c0-6.54-7.91-9.82-12.54-5.19,3.76-3.76,9.48-4.73,14.26-2.43l41.34,19.88c4.34,2.09,7.11,6.48,7.11,11.3v134.79c0,4.82-2.76,9.21-7.11,11.3l-41.34,19.88Z" style="fill: #4497d2;"/>
            <g style="mix-blend-mode: overlay; opacity: .25;">
              <path d="M1400.64,435.77c3.16,1.23,6.76,1.15,9.95-.38l41.31-19.88c4.34-2.09,7.1-6.48,7.1-11.3v-134.79c0-4.82-2.76-9.21-7.1-11.3l-41.31-19.88c-4.19-2.01-9.09-1.52-12.76,1.15-.52.38-1.02.81-1.49,1.28l-79.09,72.15-34.45-26.15c-3.21-2.43-7.69-2.23-10.67.47l-11.05,10.05c-3.64,3.31-3.65,9.05,0,12.36l29.87,27.26-29.87,27.26c-3.64,3.32-3.63,9.05,0,12.36l11.05,10.05c2.98,2.71,7.46,2.91,10.67.47l34.45-26.15,79.09,72.15c1.25,1.25,2.72,2.19,4.3,2.81ZM1408.87,291.26l-60.01,45.55,60.01,45.55v-91.1Z" style="fill: url(#linear-gradient); fill-rule: evenodd;"/>
            </g>
          </g>
        </g>
      </g>
      <text transform="translate(60.79 122)" style="fill: #010101; font-family: SupremeTrial-Black, &apos;Supreme Trial&apos;; font-size: 66px; font-weight: 800;"><tspan x="0" y="0">Environment</tspan><tspan x="31.42" y="79.2">Simulation</tspan></text>
      <text transform="translate(1151.89 122)" style="fill: #010101; font-family: SupremeTrial-Black, &apos;Supreme Trial&apos;; font-size: 66px; font-weight: 800;"><tspan x="0" y="0">Visualisation</tspan></text>
      <g>
        <rect x="553.86" y="12.6" width="519.63" height="1119.68" rx="78.44" ry="78.44" style="fill: none; stroke: #ee4c2a; stroke-miterlimit: 10; stroke-width: 7px;"/>
        <text transform="translate(680.59 121.98)" style="fill: #010101; font-family: SupremeTrial-Black, &apos;Supreme Trial&apos;; font-size: 66px; font-weight: 800;"><tspan x="0" y="0">Training</tspan></text>
        <g>
          <g>
            <path d="M813.27,736.37c-55.97,0-56.57,21.72-56.57,26.2v27.14h57.65v8.15h-80.54c-17.13,0-38.66,10.42-38.66,56.57,0,42.4,16.79,58.79,33.74,58.79h20.14v-28.28c0-11.83,5.86-33.74,33.2-33.74h57.18c8.41,0,32.12-3.65,32.12-31.05v-52.19c0-6.79-1.16-31.58-58.25-31.58ZM781.49,754.62c5.74,0,10.37,4.63,10.37,10.37s-4.64,10.37-10.37,10.37-10.37-4.64-10.37-10.37,4.64-10.37,10.37-10.37Z" style="fill: url(#linear-gradient1);"/>
            <path d="M814.08,973.42c55.94,0,56.64-22.13,56.64-26.2v-27.14h-57.72v-8.15h80.54c17.26,0,38.66-10.68,38.66-56.57,0-50.26-22.71-58.79-33.74-58.79h-20.14v28.28c0,11.83-5.67,33.74-33.2,33.74h-57.18c-8.39,0-32.12,4.09-32.12,31.05v52.19c0,11.27,6.89,31.58,58.25,31.58ZM845.87,955.17c-5.74,0-10.37-4.64-10.37-10.37s4.63-10.37,10.37-10.37,10.37,4.64,10.37,10.37-4.64,10.37-10.37,10.37Z" style="fill: url(#linear-gradient2);"/>
          </g>
          <g>
            <g id="group">
              <path id="Path" d="M649.19,597.64l-5.99,5.99c9.81,9.81,9.81,25.61,0,35.23-9.81,9.81-25.61,9.81-35.23,0-9.81-9.81-9.81-25.61,0-35.23l15.53-15.53,2.18-2.18v-11.71l-23.43,23.43c-13.08,13.08-13.08,34.14,0,47.22,13.08,13.08,34.14,13.08,46.94,0,13.08-13.17,13.08-34.14,0-47.22Z" style="fill: #ee4c2a;"/>
              <path id="Path-1" d="M641.83,591.83c0,2.41-1.95,4.36-4.36,4.36s-4.36-1.95-4.36-4.36,1.95-4.36,4.36-4.36,4.36,1.95,4.36,4.36Z" style="fill: #ee4c2a;"/>
            </g>
            <g id="group-1">
              <g id="group-2">
                <path id="Path-2" d="M709.75,627.6h-10.08v25.88h-7.63v-73.64h18.52c19.34,0,28.6,9.53,28.6,22.88.27,16.44-11.17,24.88-29.42,24.88ZM710.57,587.19h-10.62v33.87l10.35-.27c13.89-.27,21.52-5.72,21.52-17.16,0-10.71-7.63-16.44-21.25-16.44Z"/>
                <path id="Path-3" d="M773.31,653.21l-4.36,11.71c-4.9,13.08-10.08,16.89-17.43,16.89-4.09,0-7.08-1.09-10.35-2.45l2.18-6.81c2.45,1.36,5.18,2.45,8.17,2.45,4.09,0,7.08-2.18,11.17-12.53l3.54-9.53-20.98-53.21h7.9l16.89,44.49,16.62-44.49h7.63l-20.98,53.48Z"/>
                <path id="Path-4" d="M819.17,587.19v66.56h-7.63v-66.56h-25.88v-7.08h59.2v7.08h-25.7Z"/>
                <path id="Path-5" d="M866.39,655.11c-14.98,0-25.88-11.17-25.88-28.33s11.44-28.6,26.7-28.6,25.88,11.17,25.88,28.33c-.27,17.16-11.71,28.6-26.7,28.6ZM866.66,604.99c-11.44,0-18.8,8.99-18.8,21.79s7.63,22.06,19.07,22.06,18.8-8.99,18.8-21.79-7.63-22.06-19.07-22.06Z"/>
                <path id="Path-6" d="M911.33,653.75h-7.35v-54.03l7.35-1.63v11.44c3.54-6.81,8.72-11.44,15.8-11.44,3.54,0,6.81,1.09,9.53,2.45l-1.91,6.81c-2.45-1.36-5.18-2.45-8.17-2.45-5.72,0-10.9,4.36-15.25,13.89v34.96Z"/>
                <path id="Path-7" d="M965.36,655.11c-16.34,0-26.42-11.71-26.42-28.33s11.17-28.6,26.42-28.6c6.54,0,12.26,1.63,16.89,4.63l-1.91,6.54c-4.09-2.72-9.26-4.36-14.98-4.36-11.71,0-18.8,8.72-18.8,21.52s7.63,21.79,19.07,21.79c5.45,0,10.9-1.63,14.98-4.36l1.63,6.81c-4.9,2.72-10.62,4.36-16.89,4.36Z"/>
                <path id="Path-8" d="M1027.29,653.75v-34.96c0-9.53-3.81-13.62-11.44-13.62-6.27,0-12.26,3.27-16.62,7.63v40.95h-7.35v-79.36l7.35-1.63v34.14c5.72-5.72,12.8-8.44,18.8-8.44,10.35,0,16.89,6.81,16.89,18.52v36.87h-7.63v-.09Z"/>
              </g>
            </g>
          </g>
          <g id="uuid-71e27296-a682-41fa-85d2-89446dbbc47a">
            <path d="M730.15,241.1l-25.1,51.33-15.57,33.24c-.32.95-.99,1.7-1.9,2.14-.89.44-1.92.5-2.87.18s-1.72-.99-2.16-1.9l-35.93-73.51,6.74-3.29,34.49,70.56,3.37-7.19-35.04-71.65-17.85,8.72,38.65,79.06c1.17,2.38,3.19,4.16,5.69,5.03,2.5.85,5.21.69,7.59-.48.5-.24,1.01-.55,1.47-.89.61-.44,1.13-1.07,1.49-1.84,1.01-2.1,3.66-7.55,3.78-7.77l35.95-73.47,6.74,3.29-35.95,73.51c-.44.89-1.19,1.58-2.16,1.9-.95.32-1.96.26-2.87-.18-.04,0-.08-.06-.12-.08l-2.63,5.61s.02,0,.04.02c1.37.69,2.87,1.01,4.36,1.01,1.09,0,2.18-.18,3.23-.55,2.5-.87,4.52-2.65,5.69-5.03l38.67-79.06-17.85-8.72Z" style="fill: #231f20;"/>
            <polygon points="791.36 316.63 779.91 282.56 787.42 282.56 796.47 311.38 797.58 311.38 806.63 282.56 814.16 282.56 802.69 316.63 791.36 316.63" style="fill: #231f20;"/>
            <path d="M831.71,311.72c2.87,0,5.15-.81,6.91-2.44,1.76-1.64,2.63-3.88,2.63-6.74v-.69h-9.94c-1.9,0-3.41.4-4.56,1.21s-1.72,2-1.72,3.55.61,2.81,1.8,3.74,2.83,1.37,4.91,1.37M830.68,317.6c-2.44,0-4.62-.42-6.52-1.25-1.92-.83-3.43-2.04-4.56-3.66-1.13-1.62-1.7-3.57-1.7-5.88s.57-4.3,1.7-5.84c1.13-1.53,2.67-2.71,4.62-3.49s4.18-1.17,6.66-1.17h10.36v-2.2c0-1.98-.61-3.57-1.8-4.77s-3.05-1.8-5.53-1.8-4.3.59-5.59,1.74-2.14,2.65-2.56,4.48l-6.62-2.14c.55-1.84,1.43-3.51,2.67-5.01,1.21-1.49,2.85-2.71,4.87-3.63s4.46-1.37,7.33-1.37c4.42,0,7.9,1.13,10.42,3.39,2.54,2.26,3.8,5.45,3.8,9.59v14.01c0,1.37.65,2.08,1.94,2.08h2.91v5.94h-5.33c-1.62,0-2.93-.42-3.94-1.25s-1.51-1.96-1.51-3.39v-.2h-1.03c-.36.69-.93,1.49-1.66,2.42-.75.93-1.82,1.72-3.25,2.38s-3.31,1.01-5.67,1.01" style="fill: #231f20;"/>
            <path d="M873.63,317.6c-4.32,0-7.92-.97-10.78-2.91-2.85-1.94-4.6-4.87-5.25-8.76l6.62-1.58c.36,1.88.99,3.39,1.86,4.48.87,1.11,1.98,1.9,3.29,2.34,1.31.46,2.73.69,4.24.69,2.26,0,4-.44,5.21-1.31,1.21-.87,1.84-2,1.84-3.39s-.59-2.38-1.74-3.03-2.85-1.17-5.11-1.6l-2.34-.42c-2.3-.42-4.4-1.01-6.28-1.8-1.9-.79-3.39-1.86-4.48-3.25-1.11-1.37-1.66-3.15-1.66-5.31,0-3.23,1.19-5.72,3.59-7.49s5.57-2.67,9.53-2.67,6.97.87,9.43,2.58,4.06,4.06,4.81,7.01l-6.62,1.86c-.42-2.08-1.29-3.53-2.63-4.38s-2.99-1.27-4.97-1.27-3.45.36-4.56,1.07-1.66,1.72-1.66,3.01c0,1.37.55,2.4,1.62,3.03,1.09.65,2.54,1.13,4.38,1.45l2.42.4c2.44.42,4.66.99,6.7,1.74,2.02.73,3.64,1.8,4.81,3.17,1.17,1.37,1.76,3.23,1.76,5.53,0,3.41-1.27,6.06-3.8,7.94s-5.94,2.83-10.22,2.83" style="fill: #231f20;"/>
            <path d="M907.96,316.63c-2.08,0-3.72-.63-4.95-1.86-1.21-1.25-1.84-2.91-1.84-4.97v-21.2h-9.39v-6.02h9.39v-11.25h7.11v11.25h10.16v6.02h-10.16v19.95c0,1.37.65,2.08,1.94,2.08h7.11v6.02h-9.39l.02-.02Z" style="fill: #231f20;"/>
            <path d="M953.64,311.72c2.87,0,5.15-.81,6.91-2.44,1.76-1.64,2.63-3.88,2.63-6.74v-.69h-9.94c-1.9,0-3.41.4-4.56,1.21-1.15.81-1.72,2-1.72,3.55s.61,2.81,1.8,3.74,2.83,1.37,4.91,1.37M952.61,317.6c-2.44,0-4.62-.42-6.52-1.25-1.92-.83-3.43-2.04-4.56-3.66-1.13-1.62-1.7-3.57-1.7-5.88s.57-4.3,1.7-5.84c1.13-1.53,2.67-2.71,4.62-3.49,1.96-.79,4.18-1.17,6.66-1.17h10.36v-2.2c0-1.98-.61-3.57-1.8-4.77s-3.05-1.8-5.53-1.8-4.3.59-5.59,1.74-2.14,2.65-2.56,4.48l-6.62-2.14c.55-1.84,1.43-3.51,2.67-5.01,1.21-1.49,2.85-2.71,4.87-3.63s4.46-1.37,7.33-1.37c4.42,0,7.9,1.13,10.42,3.39,2.54,2.26,3.8,5.45,3.8,9.59v14.01c0,1.37.65,2.08,1.94,2.08h2.91v5.94h-5.33c-1.62,0-2.93-.42-3.94-1.25s-1.51-1.96-1.51-3.39v-.2h-1.03c-.36.69-.93,1.49-1.66,2.42-.75.93-1.82,1.72-3.25,2.38s-3.31,1.01-5.67,1.01" style="fill: #231f20;"/>
            <rect x="981.9" y="282.58" width="7.11" height="34.05" style="fill: #231f20;"/>
            <rect x="925.61" y="310.61" width="7.11" height="6.02" style="fill: #231f20;"/>
            <rect x="981.9" y="271.32" width="7.11" height="6.02" style="fill: #231f20;"/>
          </g>
          <text transform="translate(592.44 457.95)" style="fill: #231f20; font-family: AndaleMono, &apos;Andale Mono&apos;; font-size: 46.67px; letter-spacing: -.04em; stroke: #231f20; stroke-width: 2px;"><tspan x="0" y="0">Stable-Baselines3</tspan></text>
        </g>
      </g>
    </g>
  </g>
</svg>