<?xml version="1.0" encoding="UTF-8"?>
<svg xmlns="http://www.w3.org/2000/svg" xmlns:xlink="http://www.w3.org/1999/xlink" version="1.1" viewBox="0 0 1627.91 1145.67">
  <!-- Generator: Adobe Illustrator 29.8.1, SVG Export Plug-In . SVG Version: 2.1.1 Build 2)  -->
  <defs>
    <linearGradient id="linear-gradient" x1="980.25" y1="776.33" x2="1098.08" y2="894.55" gradientTransform="translate(4.04 -494.61)" gradientUnits="userSpaceOnUse">
      <stop offset="0" stop-color="#397fb9"/>
      <stop offset="1" stop-color="#376a95"/>
    </linearGradient>
    <linearGradient id="linear-gradient1" x1="1051.86" y1="851.86" x2="1178.19" y2="972.89" gradientTransform="translate(4.04 -494.61)" gradientUnits="userSpaceOnUse">
      <stop offset="0" stop-color="#fee051"/>
      <stop offset="1" stop-color="#ffc332"/>
    </linearGradient>
    <mask id="mask" x="969.4" y="834.35" width="200.78" height="199.62" maskUnits="userSpaceOnUse">
      <g id="mask0">
        <path d="M1111.81,1033.12c3.16,1.23,6.76,1.15,9.95-.38l41.31-19.88c4.34-2.09,7.1-6.48,7.1-11.3v-134.79c0-4.82-2.76-9.21-7.1-11.3l-41.31-19.88c-4.19-2.01-9.09-1.52-12.76,1.15-.52.38-1.02.81-1.49,1.28l-79.09,72.15-34.45-26.15c-3.21-2.43-7.69-2.23-10.67.47l-11.05,10.05c-3.64,3.31-3.65,9.05,0,12.36l29.87,27.26-29.87,27.26c-3.64,3.32-3.63,9.05,0,12.36l11.05,10.05c2.98,2.71,7.46,2.91,10.67.47l34.45-26.15,79.09,72.15c1.25,1.25,2.72,2.19,4.3,2.81ZM1120.05,888.61l-60.01,45.55,60.01,45.55v-91.1Z" style="fill: #fff; fill-rule: evenodd;"/>
      </g>
    </mask>
    <linearGradient id="linear-gradient2" x1="1012.19" y1="261.96" x2="1012.19" y2="62.34" gradientTransform="translate(57.54 1096.32) scale(1 -1)" gradientUnits="userSpaceOnUse">
      <stop offset="0" stop-color="#fff"/>
      <stop offset="1" stop-color="#fff" stop-opacity="0"/>
    </linearGradient>
  </defs>
  <g style="isolation: isolate;">
    <g id="Layer_1">
      <g>
        <g>
          <polygon points="728.75 617.63 722.59 617.63 722.61 622.55 728.75 617.63 728.75 617.63" style="fill: #b3b4b4;"/>
          <polygon points="728.75 617.63 722.61 622.55 722.61 622.55 718.87 622.55 718.86 618.09 718.54 617.6 718.54 617.6 718.54 617.6 718.54 617.6 718.54 617.6 718.54 617.6 673.86 617.6 675.3 622.43 676.42 627.33 677.23 632.3 677.72 637.3 677.89 642.33 677.75 647.35 677.28 652.36 676.49 657.33 676.49 657.33 675.39 662.24 673.98 667.07 718.65 667.07 718.65 667.07 718.98 666.59 718.98 666.59 718.97 662.13 722.7 662.13 722.7 662.13 722.72 667.05 722.72 667.05 728.74 667.05 728.74 667.04 728.87 666.56 728.87 666.56 728.87 618.11 728.75 617.63" style="fill: #b3b4b4;"/>
        </g>
        <path id="path54473" d="M591.76,722.42l5.11.14,5.09-.17-10.2.03h0ZM591.76,722.42l10.2-.03-15.28-.43,5.08.46h0ZM586.68,721.96l15.28.43,5.08-.48-20.36.05h0ZM586.68,721.96l20.36-.05-25.4-.73,5.04.78h0ZM581.64,721.19l25.4.73,5.04-.8-30.44.07h0ZM581.64,721.19l30.44-.07-35.43-1.02,4.99,1.09h0ZM576.65,720.1l35.43,1.02,4.97-1.11-40.4.09h0ZM576.65,720.1l40.4-.09-45.3-1.3,4.9,1.39h0ZM571.75,718.71l45.3,1.3,4.9-1.42-50.2.12h0ZM571.75,718.71l50.2-.12-55.01-1.58,4.81,1.7h0ZM566.95,717.01l55.01,1.58,4.8-1.72-59.8.14ZM566.95,717.01l59.8-.14-64.49-1.85,4.69,1.99ZM562.26,715.03l64.49,1.85,4.67-2.01-69.17.16ZM562.26,715.03l69.17-.16-73.72-2.11,4.55,2.27h0ZM557.7,712.76l73.72,2.11,4.54-2.3s-78.26.18-78.26.18ZM557.7,712.76l78.26-.18-82.66-2.37,4.4,2.55ZM553.3,710.2l82.66,2.37,4.38-2.57-87.05.2h0ZM553.3,710.2l87.05-.2-91.27-2.61,4.23,2.82ZM549.08,707.39l91.27,2.61,4.22-2.83-95.49.22ZM549.08,707.39l95.49-.22-99.53-2.85s4.04,3.07,4.04,3.07ZM545.04,704.32l99.53,2.85,4.02-3.1s-103.55.25-103.55.25ZM545.04,704.32l103.55-.25-107.39-3.07,3.83,3.32h0ZM541.2,701l107.39,3.07,3.82-3.33s-111.21.26-111.21.26ZM541.2,701l111.21-.26-114.83-3.29,3.62,3.55h0ZM537.59,697.45l114.83,3.29,3.6-3.57-118.43.28ZM537.59,697.45l118.43-.28-121.81-3.49,3.38,3.77h0ZM534.2,693.69l121.81,3.49,3.37-3.78-125.18.29h0ZM534.2,693.69l125.18-.29-128.31-3.67,3.14,3.96h0ZM531.07,689.73l128.31,3.67,3.12-3.98-131.43.31h0ZM531.07,689.73l131.43-.31-134.31-3.84,2.88,4.15h0ZM528.19,685.57l134.31,3.84,2.86-4.16-137.17.32h0ZM528.19,685.57l137.17-.32-139.78-4s2.61,4.33,2.61,4.33ZM525.58,681.25l139.78,4,2.59-4.34s-142.36.34-142.36.34ZM525.58,681.25l142.36-.34-144.69-4.14s2.33,4.48,2.33,4.48ZM523.25,676.77l144.69,4.14,2.3-4.48s-147,.34-147,.34ZM523.25,676.77l147-.34-149.03-4.27,2.04,4.61h0ZM521.21,672.16l149.03,4.27,2.01-4.63-151.05.36h0ZM521.21,672.16l151.05-.36-152.78-4.37,1.74,4.73h0ZM519.47,667.44l152.78,4.37,1.72-4.73s-154.51.36-154.51.36ZM519.47,667.44l154.51-.36h-44.32l-110.19.36h0ZM519.47,667.44l110.19-.36-1.57-.04-108.62.41h0ZM519.47,667.44l108.62-.41-1.57-.15-107.04.55h0ZM519.47,667.44l107.04-.55-1.55-.24s-105.49.79-105.49.79ZM519.47,667.44l105.49-.79-1.55-.34-103.94,1.13h0ZM519.47,667.44l103.94-1.13-1.51-.43s-102.43,1.56-102.43,1.56ZM519.47,667.44l102.43-1.56-1.48-.52s-100.95,2.09-100.95,2.09ZM519.47,667.44l100.95-2.09-1.45-.61s-99.5,2.7-99.5,2.7ZM519.47,667.44l99.5-2.7-1.42-.71-98.09,3.41h0ZM519.47,667.44l98.09-3.41-1.35-.79s-96.73,4.19-96.73,4.19ZM519.47,667.44l96.73-4.19-98.16-.63s1.43,4.83,1.43,4.83ZM518.04,662.61l98.16.63-1.31-.87s-96.85.24-96.85.24ZM518.04,662.61l96.85-.24-1.25-.95-95.61,1.19h0ZM518.04,662.61l95.61-1.19-1.19-1.03s-94.42,2.22-94.42,2.22ZM518.04,662.61l94.42-2.22-1.11-1.09s-93.3,3.31-93.3,3.31ZM518.04,662.61l93.3-3.31-1.05-1.16s-92.26,4.47-92.26,4.47ZM518.04,662.61l92.26-4.47-93.39-.43,1.13,4.91h0ZM516.91,657.7l93.39.43-.97-1.23-92.42.8h0ZM516.91,657.7l92.42-.8-.89-1.28-91.53,2.08h0ZM516.91,657.7l91.53-2.08-.8-1.34s-90.73,3.42-90.73,3.42ZM516.91,657.7l90.73-3.42-.72-1.39s-90,4.81-90,4.81ZM516.91,657.7l90-4.81-90.81-.16s.81,4.96.81,4.96ZM516.1,652.74l90.81.16-.63-1.42-90.18,1.26ZM516.1,652.74l90.18-1.26-.53-1.47-89.65,2.73h0ZM516.1,652.74l89.65-2.73-.44-1.49-89.21,4.21h0ZM516.1,652.74l89.21-4.21-89.7-.79s.49,5,.49,5ZM515.61,647.73l89.7.79-.35-1.51s-89.35.72-89.35.72ZM515.61,647.73l89.35-.72-.25-1.54s-89.1,2.27-89.1,2.27ZM515.61,647.73l89.1-2.27-.15-1.54s-88.95,3.81-88.95,3.81ZM515.61,647.73l88.95-3.81-89.13-1.21s.17,5.02.17,5.02ZM515.44,642.71l89.13,1.21-.05-1.56-89.07.34h0ZM515.44,642.71l89.07-.34.05-1.55-89.12,1.9h0ZM515.44,642.71l89.12-1.9.14-1.55-89.26,3.44ZM515.44,642.71l89.26-3.44.25-1.54-89.51,4.98ZM515.44,642.71l89.51-4.98-89.36-.05-.15,5.03h0ZM515.59,637.68l89.36.05.33-1.52-89.7,1.46h0ZM515.59,637.68l89.7-1.46.44-1.49s-90.14,2.96-90.14,2.96ZM515.59,637.68l90.14-2.96.53-1.46-90.67,4.42h0ZM515.59,637.68l90.67-4.42-90.2-.58-.47,5h0ZM516.06,632.68l90.2.58.63-1.43s-90.83.85-90.83.85ZM516.06,632.68l90.83-.85.71-1.39s-91.54,2.23-91.54,2.23ZM516.06,632.68l91.54-2.23.8-1.34s-92.34,3.57-92.34,3.57ZM516.06,632.68l92.34-3.57.89-1.29s-93.23,4.86-93.23,4.86ZM516.06,632.68l93.23-4.86-92.44-.12-.79,4.98h0ZM516.84,627.7l92.44.12.96-1.23s-93.4,1.11-93.4,1.11ZM516.84,627.7l93.4-1.11,1.05-1.17s-94.45,2.28-94.45,2.28ZM516.84,627.7l94.45-2.28,1.11-1.1s-95.55,3.39-95.55,3.39ZM516.84,627.7l95.55-3.39,1.18-1.03s-96.73,4.42-96.73,4.42ZM516.84,627.7l96.73-4.42-95.63-.49s-1.1,4.9-1.1,4.9ZM517.94,622.8l95.63.49,1.25-.95s-96.89.46-96.89.46ZM517.94,622.8l96.89-.46,1.3-.88s-98.19,1.34-98.19,1.34ZM517.94,622.8l98.19-1.34,1.36-.79s-99.54,2.13-99.54,2.13ZM517.94,622.8l99.54-2.13,1.4-.71-100.95,2.85h0ZM517.94,622.8l100.95-2.85,1.45-.61s-102.4,3.46-102.4,3.46ZM517.94,622.8l102.4-3.46,1.48-.53s-103.87,3.99-103.87,3.99ZM517.94,622.8l103.87-3.99,1.52-.44s-105.4,4.43-105.4,4.43ZM517.94,622.8l105.4-4.43,1.54-.34s-106.93,4.77-106.93,4.77ZM517.94,622.8l106.93-4.77-105.52-.06-1.42,4.83h0ZM519.36,617.97l105.52.06,1.55-.25-107.07.18h0ZM519.36,617.97l107.07-.18,1.57-.15-108.64.33h0ZM519.36,617.97l108.64-.33,1.58-.05-110.22.39h0ZM629.57,617.58l44.28.02-152.78-4.38,108.5,4.36h0ZM519.36,617.97l110.22-.39-108.5-4.36-1.72,4.74ZM521.07,613.22l152.78,4.38-1.74-4.73-151.05.35ZM521.07,613.22l151.05-.35-149.03-4.26-2.01,4.61ZM523.09,608.61l149.03,4.26-2.04-4.62s-147,.35-147,.35ZM523.09,608.61l147-.35-144.69-4.14-2.3,4.49h0ZM525.39,604.12l144.69,4.14-2.32-4.47-142.37.33h0ZM525.39,604.12l142.37-.33-139.78-4-2.59,4.33h0ZM527.98,599.79l139.78,4-2.61-4.33-137.17.33h0ZM527.98,599.79l137.17-.33-134.31-3.84-2.86,4.17h0ZM530.84,595.62l134.31,3.84-2.88-4.15s-131.43.31-131.43.31ZM530.84,595.62l131.43-.31-128.31-3.67s-3.12,3.98-3.12,3.98ZM533.96,591.64l128.31,3.67-3.14-3.97s-125.17.3-125.17.3ZM533.96,591.64l125.17-.3-121.81-3.49s-3.36,3.78-3.36,3.78ZM537.32,587.86l121.81,3.49-3.38-3.77s-118.43.28-118.43.28ZM537.32,587.86l118.43-.28-114.83-3.29s-3.6,3.57-3.6,3.57ZM540.92,584.29l114.83,3.29-3.62-3.54s-111.21.26-111.21.26ZM540.92,584.29l111.21-.26-107.39-3.08s-3.82,3.34-3.82,3.34ZM544.74,580.96l107.39,3.08-3.83-3.31-103.55.23h0ZM544.74,580.96l103.55-.23-99.53-2.85s-4.02,3.08-4.02,3.08ZM548.76,577.87l99.53,2.85-4.04-3.08s-95.49.23-95.49.23ZM548.76,577.87l95.49-.23-91.27-2.61-4.22,2.84h0ZM552.98,575.03l91.27,2.61-4.23-2.82s-87.05.2-87.05.2ZM552.98,575.03l87.05-.2-82.66-2.37-4.38,2.57ZM557.37,572.46l82.66,2.37-4.39-2.55-78.27.18ZM557.37,572.46l78.27-.18-73.72-2.11-4.54,2.29ZM561.91,570.17l73.72,2.11-4.56-2.27s-69.17.16-69.17.16ZM561.91,570.17l69.17-.16-64.49-1.84s-4.67,2.01-4.67,2.01ZM566.58,568.16l64.49,1.84-4.69-1.99-59.81.15h0ZM566.58,568.16l59.81-.15-55.01-1.57-4.8,1.72ZM571.38,566.45l55.01,1.57-4.8-1.69s-50.2.12-50.2.12ZM571.38,566.45l50.2-.12-45.31-1.29s-4.9,1.41-4.9,1.41ZM576.28,565.04l45.31,1.29-4.91-1.39-40.4.1h0ZM576.28,565.04l40.4-.1-35.42-1.01-4.98,1.11h0ZM581.26,563.93l35.42,1.01-4.99-1.08-30.43.07h0ZM581.26,563.93l30.43-.07-25.4-.73-5.04.8h0ZM586.3,563.12l25.4.73-5.04-.77-20.36.04h0ZM586.3,563.12l20.36-.04-15.28-.44-5.08.49h0ZM591.38,562.64l15.28.44-5.08-.46-10.2.02h0ZM591.38,562.64l10.2-.02-5.1-.15-5.1.17h0ZM628.09,667.03l3.64-.44-1.55-.05-2.09.49h0ZM628.09,667.03l1.57.04,2.07-.48-3.64.44h0ZM626.52,666.88l3.67-.34-1.54-.14-2.13.48ZM626.52,666.88l1.57.15,2.09-.49-3.67.34ZM624.96,666.64l3.68-.24-1.53-.24-2.16.48h0ZM624.96,666.64l1.55.24,2.13-.48-3.68.24h0ZM623.42,666.31l3.7-.14-1.51-.33-2.19.47ZM623.42,666.31l1.55.34,2.16-.48-3.7.14h0ZM621.91,665.87l3.7-.04-1.48-.42-2.22.46h0ZM621.91,665.87l1.51.43,2.19-.47-3.7.04h0ZM620.42,665.35l3.7.06-1.45-.51-2.25.45h0ZM620.42,665.35l1.48.52,2.22-.46-3.7-.06h0ZM618.97,664.74l3.7.16-1.43-.6-2.27.44ZM618.97,664.74l1.45.61,2.25-.45-3.7-.16ZM617.56,664.03l3.69.27-1.37-.69-2.31.42ZM617.56,664.03l1.42.71,2.27-.44-3.69-.27h0ZM616.21,663.24l3.67.36-1.34-.77-2.33.41ZM616.21,663.24l1.35.79,2.31-.42-3.67-.36ZM614.9,662.37l3.64.46-1.28-.86-2.36.39h0ZM614.9,662.37l1.31.87,2.33-.41-3.64-.46ZM613.65,661.42l3.61.56-1.23-.93-2.38.37h0ZM613.65,661.42l1.25.95,2.36-.39-3.61-.56ZM612.46,660.39l3.57.66-1.16-1.01-2.4.35ZM612.46,660.39l1.19,1.03,2.38-.37-3.57-.66h0ZM611.35,659.3l3.52.74-1.09-1.08-2.42.33h0ZM611.35,659.3l1.11,1.09,2.4-.35-3.52-.74h0ZM610.3,658.13l3.47.83-1.02-1.14-2.45.31ZM610.3,658.13l1.05,1.16,2.42-.33-3.47-.83ZM609.33,656.9l3.41.92-.95-1.2-2.46.28ZM609.33,656.9l.97,1.23,2.45-.31-3.41-.92h0ZM608.44,655.62l3.35,1-.87-1.26-2.48.25ZM608.44,655.62l.89,1.28,2.46-.28-3.35-1ZM607.64,654.28l3.29,1.08-.79-1.32-2.5.23ZM607.64,654.28l.8,1.34,2.48-.25-3.29-1.08h0ZM606.92,652.9l3.22,1.16-.7-1.35-2.52.2h0ZM606.92,652.9l.72,1.39,2.5-.23-3.22-1.16h0ZM606.29,651.48l3.15,1.22-.62-1.4-2.53.18h0ZM606.29,651.48l.63,1.42,2.52-.2-3.15-1.22h0ZM605.75,650.01l3.06,1.29-.53-1.43-2.54.14ZM605.75,650.01l.53,1.47,2.53-.18-3.06-1.29h0ZM605.32,648.52l2.97,1.35-.43-1.47-2.54.12h0ZM605.32,648.52l.44,1.49,2.54-.14-2.97-1.35ZM604.96,647.01l2.89,1.39-.34-1.48-2.56.1h0ZM604.96,647.01l.35,1.51,2.54-.12-2.89-1.39ZM604.71,645.47l2.8,1.45-.24-1.51-2.56.06h0ZM604.71,645.47l.25,1.54,2.56-.1-2.8-1.45h0ZM604.57,643.93l2.71,1.48-.15-1.52-2.56.03ZM604.57,643.93l.15,1.54,2.56-.06-2.71-1.48h0ZM604.51,642.37l2.61,1.53-.05-1.52h-2.56s0,0,0,0ZM604.51,642.37l.05,1.56,2.56-.03-2.61-1.53h0ZM604.56,640.82l2.51,1.56.05-1.53-2.56-.03h0ZM604.56,640.82l-.05,1.55h2.56s-2.51-1.55-2.51-1.55h0ZM604.7,639.27l2.41,1.58.14-1.52-2.56-.06h0ZM604.7,639.27l-.14,1.55,2.56.03-2.41-1.58h0ZM604.95,637.73l2.31,1.6.24-1.51-2.55-.1h0ZM604.95,637.73l-.25,1.54,2.56.06-2.31-1.6ZM605.28,636.22l2.21,1.61.34-1.48-2.55-.13ZM605.28,636.22l-.33,1.52,2.55.1-2.21-1.61h0ZM605.73,634.72l2.11,1.62.43-1.47-2.54-.15ZM605.73,634.72l-.44,1.49,2.55.13-2.11-1.62h0ZM606.26,633.26l2.01,1.62.52-1.43-2.53-.18ZM606.26,633.26l-.53,1.46,2.54.15-2.01-1.62ZM606.88,631.83l1.9,1.61.61-1.4-2.51-.21ZM606.88,631.83l-.63,1.43,2.53.18-1.9-1.61h0ZM607.6,630.44l1.8,1.6.7-1.36-2.5-.24h0ZM607.6,630.44l-.71,1.39,2.51.21s-1.8-1.6-1.8-1.6ZM608.39,629.11l1.71,1.57.78-1.31-2.48-.26ZM608.39,629.11l-.8,1.34,2.5.24-1.71-1.57ZM609.28,627.82l1.6,1.55.87-1.26-2.47-.29h0ZM609.28,627.82l-.89,1.29,2.48.26s-1.6-1.55-1.6-1.55ZM610.24,626.59l1.51,1.52.95-1.21-2.45-.31h0ZM610.24,626.59l-.96,1.23,2.47.29-1.51-1.52ZM611.29,625.42l1.4,1.48,1.02-1.14-2.43-.34h0ZM611.29,625.42l-1.05,1.17,2.45.31-1.4-1.48ZM612.4,624.31l1.32,1.44,1.09-1.08-2.4-.36ZM612.4,624.31l-1.11,1.1,2.43.34-1.32-1.44h0ZM613.58,623.28l1.23,1.39,1.16-1.01-2.39-.38h0ZM613.58,623.28l-1.17,1.03,2.4.36s-1.23-1.39-1.23-1.39ZM614.83,622.33l1.14,1.33,1.22-.94-2.36-.39ZM614.83,622.33l-1.25.95,2.39.38-1.14-1.33ZM616.13,621.46l1.06,1.27,1.28-.86-2.34-.41h0ZM616.13,621.46l-1.3.88,2.36.39-1.06-1.27ZM617.48,620.67l.98,1.2,1.33-.78-2.31-.43h0ZM617.48,620.67l-1.36.79,2.34.41-.98-1.2h0ZM618.89,619.95l.9,1.14,1.38-.7-2.28-.44h0ZM618.89,619.95l-1.4.71,2.31.43-.9-1.14ZM620.34,619.33l.83,1.06,1.42-.61s-2.25-.45-2.25-.45ZM620.34,619.33l-1.45.62,2.28.44-.83-1.06h0ZM621.82,618.81l.77.98,1.46-.52s-2.23-.46-2.23-.46ZM621.82,618.81l-1.48.53,2.25.45s-.77-.98-.77-.98ZM623.34,618.37l.71.9,1.48-.43-2.19-.48h0ZM623.34,618.37l-1.52.44,2.23.46-.71-.9ZM624.87,618.03l.65.81,1.51-.34-2.16-.48ZM624.87,618.03l-1.54.34,2.19.48-.65-.81ZM626.43,617.78l.61.72,1.53-.24-2.13-.49ZM626.43,617.78l-1.55.25,2.16.48-.61-.72ZM628,617.63l.57.63,1.54-.14-2.1-.49ZM628,617.63l-1.57.15,2.13.49-.57-.63ZM629.57,617.58l.52.54,1.54-.05-2.07-.49h0ZM629.57,617.58l-1.58.05,2.1.49-.52-.54h0ZM629.66,667.07l45.51-.48h-43.44l-2.07.48h0ZM629.66,667.07h44.32l1.2-.48-45.51.48ZM648.59,704.07l-2.24,1.83,3.94-3.04-1.7,1.21h0ZM648.59,704.07l-4.02,3.1,1.77-1.27,2.24-1.83h0ZM652.41,700.74l-2.13,2.12,3.74-3.26-1.62,1.14h0ZM652.41,700.74l-3.82,3.33,1.7-1.21,2.13-2.12h0ZM656.01,697.17l-1.98,2.42,3.53-3.5-1.55,1.07h0ZM656.01,697.17l-3.6,3.57,1.62-1.14,1.98-2.42ZM659.38,693.4l-1.82,2.7,3.3-3.7-1.48,1ZM659.38,693.4l-3.37,3.78,1.55-1.07,1.82-2.7h0ZM662.5,689.41l-1.63,2.98,3.06-3.9-1.43.92h0ZM662.5,689.41l-3.12,3.98,1.48-1,1.63-2.98ZM665.35,685.25l-1.43,3.24,2.8-4.08-1.37.84ZM665.35,685.25l-2.86,4.16,1.43-.92,1.43-3.24ZM667.94,680.91l-1.22,3.5,2.54-4.25-1.32.75h0ZM667.94,680.91l-2.59,4.34,1.37-.84,1.22-3.5h0ZM670.25,676.43l-2.3,4.48,1.32-.75.99-3.73ZM673.86,617.6l-42.22.47,43.42.02-1.2-.49h0ZM673.86,617.6l-44.28-.02,2.07.49,42.22-.47h0ZM667.76,603.79l3.6,5.14-2.28-4.38-1.32-.76ZM667.76,603.79l2.32,4.47,1.27.68-3.6-5.14ZM665.15,599.46l3.93,5.09-2.56-4.24-1.37-.85ZM665.15,599.46l2.61,4.33,1.32.76-3.93-5.09h0ZM662.27,595.31l4.25,5-2.82-4.07-1.43-.92ZM662.27,595.31l2.88,4.15,1.37.85-4.25-5ZM659.13,591.35l4.57,4.89-3.07-3.89-1.49-1ZM659.13,591.35l3.14,3.97,1.43.92-4.57-4.89ZM655.75,587.58l4.88,4.77-3.32-3.69-1.56-1.08ZM655.75,587.58l3.38,3.77,1.49,1-4.88-4.77ZM652.13,584.04l5.18,4.62-3.54-3.48-1.63-1.15ZM652.13,584.04l3.62,3.54,1.56,1.08-5.18-4.62h0ZM648.29,580.71l5.47,4.47-3.76-3.25-1.71-1.21h0ZM648.29,580.71l3.83,3.32,1.63,1.15-5.47-4.47h0ZM644.25,577.64l5.75,4.28-3.96-3.01s-1.79-1.27-1.79-1.27ZM644.25,577.64l4.04,3.07,1.71,1.21s-5.75-4.28-5.75-4.28ZM670.08,608.26l2.04,4.62,1.24.58s-3.27-5.2-3.27-5.2ZM670.08,608.26l3.27,5.2-2-4.52-1.27-.68ZM672.12,612.87l1.74,4.73,1.2.49-2.94-5.21h0ZM672.12,612.87l2.94,5.21-1.7-4.63-1.24-.58ZM673.98,667.07l-1.72,4.73,1.24-.57.49-4.16ZM673.98,667.07l-.49,4.16,1.68-4.64-1.2.48h0ZM672.26,671.8l-2.01,4.63,1.27-.67.74-3.96h0ZM672.26,671.8l-.74,3.96,1.98-4.53-1.24.57ZM670.25,676.43l-.99,3.73,2.26-4.4-1.27.67h0Z" style="fill: #f8991d;"/>
        <path id="path54475" d="M732.81,636.41v11.86l93.41-5.94-93.41-5.93h0ZM956.19,617.63h-223.38v9.88l223.38-9.88ZM732.8,657.16v9.88h223.38l-223.38-9.88ZM732.8,657.16l219.04,9.4-218.99-9.69-.05.29h0ZM732.8,657.16l223.38,9.88-4.34-.48-219.04-9.4ZM732.81,627.51l219.05-9.4,4.33-.48-223.38,9.88h0ZM732.81,627.51l.05.29,219-9.69-219.05,9.4h0Z" style="fill: #f8991d;"/>
        <path id="path54487" d="M954.91,672.86v6.15h-12.6v24.59h-21.18v-24.59h-12.54v-6.15h46.32ZM869.38,672.86h35.34v6.15h-14.13v5.84h13.23v5.84h-13.23v6.76h15.56v6.15h-36.76v-30.74ZM851.47,672.86v24.59h12.89v6.15h-34.09v-30.74h21.21ZM812.24,672.86v24.59h12.89v6.15h-34.09v-30.74h21.21ZM782.99,672.86v20.55c0,2.32-.2,3.96-.61,4.91-.39.94-1.57,1.9-3.57,2.91-1.97.99-4.58,1.74-7.82,2.24-3.24.51-7.06.77-11.46.77-4.86,0-9.15-.3-12.89-.9-3.71-.61-6.5-1.4-8.35-2.38-1.85-.96-2.94-1.99-3.27-3.06-.33-1.09-.5-3.36-.5-6.84v-18.2h21.18v23.06c0,1.34.2,2.19.58,2.56.39.37,1.17.55,2.35.55,1.34,0,2.2-.2,2.59-.61.39-.4.58-1.37.58-2.91v-22.66h21.18ZM677.99,672.86h21.15c6.67,0,11.73.21,15.16.61,3.44.39,6.23,1.18,8.35,2.38,2.11,1.2,3.17,3.13,3.17,5.78,0,1.8-.76,3.05-2.24,3.75-1.5.71-4.44,1.26-8.82,1.64,4.89.42,8.21,1.13,9.96,2.09,1.74.95,2.61,2.43,2.61,4.44v2.85c0,2.08-.63,3.62-1.9,4.62-1.26.99-3.25,1.66-5.99,2.03-2.75.37-8.39.55-16.93.55h-24.51v-30.74h0ZM699.2,678.12v6.84c.9-.01,1.6-.03,2.11-.03,2.07,0,3.39-.18,3.96-.55.58-.38.87-1.49.87-3.33,0-.96-.24-1.64-.71-2.01-.48-.38-1.1-.63-1.85-.74-.74-.11-2.21-.16-4.38-.18h0ZM699.2,689.74v8.61c2.97-.03,4.87-.21,5.7-.53.82-.32,1.24-1.09,1.24-2.35v-2.85c0-1.32-.37-2.12-1.11-2.4-.74-.27-2.69-.43-5.84-.48h0Z" style="fill: #b3b4b4;"/>
        <path id="path54495" d="M616.23,683.14l-.46,33.26-33.39.43.46-33.27,33.39-.43h0ZM595.77,677.1l-33.49,5.32-6.23-32.16,33.49-5.33,6.23,32.17h0ZM588.61,642.33l-33.33-6.22,5.37-32.31,33.33,6.22-5.36,32.31ZM612.7,612.08l-29.15-17.02,16.31-28.56,29.15,17.03-16.32,28.56Z"/>
        <path id="path54523" d="M958.72,707.92l-6.44,8.85v6.42h-3.06v-6.42l-6.47-8.85h3.67l4.33,6.18,4.3-6.18h3.67ZM933.94,719.04c-.11-.27-.26-.54-.45-.79-.2-.24-.42-.45-.66-.63-.25-.17-.52-.3-.82-.4-.3-.11-.62-.16-.95-.16h-3.27v6.13h-3.06v-15.26h7.34c.42,0,.82.02,1.21.05.4.02.79.07,1.16.13.37.07.71.18,1.03.32.33.13.65.31.95.55.54.42.95.95,1.21,1.56.26.6.4,1.21.4,1.85,0,.94-.24,1.74-.71,2.4-.48.68-1.14,1.18-1.98,1.53.35.25.67.57.95.95.28.37.53.84.74,1.4l1.77,4.52h-3.3l-1.56-4.15h0ZM927.79,714.41h4.07c.53,0,.98-.03,1.37-.11.4-.06.73-.18.98-.34.24-.16.42-.35.53-.61.12-.26.18-.59.18-.98,0-.67-.23-1.16-.69-1.48-.44-.32-1.14-.48-2.09-.48h-4.36v3.99h0ZM912.88,716.39l-1.98-4.83-1.88,4.83h3.86ZM919,723.18h-3.41l-1.77-4.36h-5.73l-1.69,4.36h-3.25l6.29-15.26h2.91l6.66,15.26ZM894.12,719.04c-.11-.27-.26-.54-.45-.79-.2-.24-.42-.45-.66-.63-.25-.17-.52-.3-.82-.4-.3-.11-.62-.16-.95-.16h-3.27v6.13h-3.06v-15.26h7.34c.42,0,.82.02,1.21.05.4.02.79.07,1.16.13.37.07.71.18,1.03.32.33.13.65.31.95.55.54.42.95.95,1.21,1.56.26.6.4,1.21.4,1.85,0,.94-.24,1.74-.71,2.4-.48.68-1.14,1.18-1.98,1.53.35.25.67.57.95.95.28.37.53.84.74,1.4l1.77,4.52h-3.3l-1.56-4.15h0ZM887.97,714.41h4.07c.53,0,.98-.03,1.37-.11.4-.06.73-.18.98-.34.24-.16.42-.35.53-.61.12-.26.18-.59.18-.98,0-.67-.23-1.16-.69-1.48-.44-.32-1.14-.48-2.09-.48h-4.36v3.99h0ZM878.61,718.56c0,1.52-.52,2.67-1.56,3.46-1.04.78-2.6,1.16-4.67,1.16h-6.29v-15.26h5.97c.88,0,1.67.1,2.38.29.72.2,1.33.47,1.82.82.51.36.9.79,1.19,1.29.28.52.42,1.08.42,1.72s-.13,1.21-.4,1.69c-.25.48-.64.9-1.19,1.27.4.18.74.4,1.03.66.3.25.54.53.74.85.19.31.33.63.42.98.08.36.13.71.13,1.08h0ZM869.13,713.94h2.93c.95,0,1.64-.13,2.09-.4.45-.26.69-.71.69-1.35,0-.26-.05-.5-.16-.71s-.27-.38-.5-.53c-.23-.14-.54-.24-.92-.29-.37-.06-.84-.11-1.4-.11h-2.72v3.38h0ZM869.13,720.57h3.22c2.09,0,3.14-.67,3.14-2.01,0-.35-.05-.64-.16-.9-.11-.26-.29-.48-.55-.63-.26-.17-.62-.3-1.06-.37-.44-.08-1-.13-1.66-.13h-2.93v4.04h0ZM857.25,723.18h-3.04v-15.26h3.04v15.26ZM847.53,723.18h-10.54v-15.26h3.04v12.65h7.5v2.61ZM792.64,717.84c.09.48.25.89.5,1.24.25.34.54.62.9.85.35.21.75.39,1.19.5.44.11.9.16,1.37.16s.94-.04,1.35-.13c.42-.11.78-.24,1.06-.4.3-.17.53-.38.69-.63.16-.26.24-.54.24-.85s-.08-.58-.24-.79c-.14-.22-.39-.43-.74-.61-.35-.17-.81-.33-1.37-.48-.57-.14-1.25-.29-2.06-.45-.93-.19-1.74-.41-2.43-.66-.67-.26-1.23-.57-1.66-.92-.42-.35-.74-.75-.95-1.21-.2-.45-.29-.99-.29-1.61s.14-1.22.42-1.77c.28-.54.69-1.01,1.21-1.4.53-.38,1.15-.69,1.88-.9.74-.22,1.56-.34,2.46-.34s1.72.12,2.46.34c.74.21,1.38.52,1.93.92.57.41,1.01.91,1.35,1.51.35.6.57,1.27.63,2.01h-2.98c-.33-1.44-1.44-2.17-3.3-2.17-.99,0-1.74.16-2.27.48s-.79.74-.79,1.27c0,.23.06.44.18.61.12.16.31.31.55.45.25.13.57.25.95.37.41.11.89.21,1.45.32.48.11.97.23,1.48.34.53.11,1.04.24,1.53.4s.95.36,1.37.58c.44.23.83.52,1.16.85.33.32.59.71.77,1.16.2.44.29.97.29,1.56,0,.71-.16,1.35-.48,1.93-.3.58-.73,1.08-1.29,1.51-.54.41-1.2.73-1.95.98-.74.23-1.56.34-2.46.34-1.13,0-2.12-.12-2.98-.37-.85-.26-1.56-.63-2.14-1.11-.58-.48-1.04-1.04-1.37-1.69-.32-.64-.51-1.37-.58-2.17h2.98ZM781.57,712.48c-.1-.38-.24-.72-.45-1.03-.21-.32-.48-.58-.79-.79-.32-.21-.68-.37-1.08-.48-.41-.12-.83-.18-1.27-.18-.71,0-1.34.12-1.9.34-.57.23-1.05.58-1.45,1.03-.39.44-.69,1-.9,1.66-.21.65-.32,1.42-.32,2.27s.11,1.61.32,2.27c.21.68.51,1.24.9,1.69.4.46.88.81,1.43,1.03.56.23,1.19.34,1.88.34.98,0,1.8-.22,2.43-.69.64-.48,1.06-1.17,1.21-2.09h3.14c-.13.87-.39,1.63-.77,2.3-.37.65-.86,1.21-1.45,1.66-.58.44-1.26.78-2.03,1-.78.23-1.61.34-2.51.34-1.18,0-2.24-.18-3.2-.55-.94-.37-1.74-.9-2.4-1.58-.65-.69-1.16-1.51-1.53-2.48-.36-.96-.53-2.04-.53-3.25s.17-2.28.53-3.25c.37-.98.88-1.81,1.56-2.48.67-.69,1.46-1.21,2.4-1.58.95-.37,2.01-.55,3.17-.55.85,0,1.64.13,2.38.37.75.23,1.43.57,2.03,1,.59.44,1.09.98,1.51,1.61.4.62.67,1.31.82,2.06h-3.12ZM762.36,723.18h-3.04v-15.26h3.04v15.26ZM741.42,717.84c.09.48.25.89.5,1.24.25.34.54.62.9.85.35.21.75.39,1.19.5.44.11.9.16,1.37.16s.94-.04,1.35-.13c.42-.11.78-.24,1.06-.4.3-.17.53-.38.69-.63.16-.26.24-.54.24-.85s-.08-.58-.24-.79c-.14-.22-.39-.43-.74-.61-.35-.17-.81-.33-1.37-.48-.57-.14-1.25-.29-2.06-.45-.93-.19-1.74-.41-2.43-.66-.67-.26-1.23-.57-1.66-.92-.42-.35-.74-.75-.95-1.21-.2-.45-.29-.99-.29-1.61s.14-1.22.42-1.77c.28-.54.69-1.01,1.21-1.4.53-.38,1.15-.69,1.88-.9.74-.22,1.56-.34,2.46-.34s1.72.12,2.46.34c.74.21,1.38.52,1.93.92.57.41,1.01.91,1.35,1.51.35.6.57,1.27.63,2.01h-2.98c-.33-1.44-1.44-2.17-3.3-2.17-.99,0-1.74.16-2.27.48-.53.32-.79.74-.79,1.27,0,.23.06.44.18.61.12.16.31.31.55.45.25.13.57.25.95.37.41.11.89.21,1.45.32.48.11.97.23,1.48.34.53.11,1.04.24,1.53.4s.95.36,1.37.58c.44.23.83.52,1.16.85.33.32.59.71.77,1.16.2.44.29.97.29,1.56,0,.71-.16,1.35-.48,1.93-.3.58-.73,1.08-1.29,1.51-.54.41-1.2.73-1.95.98-.74.23-1.56.34-2.46.34-1.13,0-2.12-.12-2.98-.37-.85-.26-1.56-.63-2.14-1.11-.58-.48-1.04-1.04-1.37-1.69-.32-.64-.51-1.37-.58-2.17h2.98ZM733.6,707.92l-6.44,8.85v6.42h-3.06v-6.42l-6.47-8.85h3.67l4.33,6.18,4.3-6.18h3.67ZM710.96,723.18h-3.06v-6.76h-7v6.76h-3.04v-15.26h3.04v5.89h7v-5.89h3.06v15.26ZM677.67,707.92h5.44c.72,0,1.41.07,2.09.21.67.15,1.25.39,1.77.74.51.36.91.83,1.21,1.43.32.58.48,1.34.48,2.27,0,1.63-.46,2.85-1.37,3.67-.92.81-2.27,1.21-4.07,1.21h-2.91v5.73h-2.64v-15.26h0ZM680.31,714.84h2.96c.49,0,.9-.04,1.24-.13.33-.11.61-.25.82-.45.22-.19.38-.42.48-.69.11-.27.16-.59.16-.95,0-.43-.08-.79-.24-1.06-.15-.26-.34-.48-.58-.63-.25-.16-.54-.25-.87-.29-.34-.05-.69-.08-1.06-.08h-2.91v4.28h0Z"/>
      </g>
      <g>
        <rect x="528.38" y="178.81" width="257.3" height="257.3" rx="27.16" ry="27.16" style="fill: #f6df18;"/>
        <path d="M701.21,379.83c5.18,8.46,11.93,14.68,23.85,14.68,10.02,0,16.42-5.01,16.42-11.93,0-8.29-6.58-11.23-17.6-16.05l-6.04-2.59c-17.45-7.43-29.04-16.74-29.04-36.43,0-18.13,13.82-31.94,35.41-31.94,15.37,0,26.42,5.35,34.39,19.36l-18.83,12.09c-4.15-7.43-8.62-10.36-15.56-10.36s-11.57,4.49-11.57,10.36c0,7.25,4.49,10.19,14.87,14.68l6.04,2.59c20.54,8.81,32.14,17.79,32.14,37.98,0,21.77-17.1,33.69-40.06,33.69s-36.96-10.7-44.06-24.72l19.65-11.41ZM615.8,381.92c3.8,6.74,7.25,12.44,15.56,12.44s12.95-3.11,12.95-15.19v-82.21h24.18v82.54c0,25.04-14.68,36.43-36.1,36.43-19.36,0-30.57-10.02-36.27-22.08l19.68-11.92Z"/>
      </g>
      <g>
        <g>
          <polygon points="1522.88 673.52 1522.88 675.53 1519.95 675.53 1519.95 682.52 1517.76 682.52 1517.76 675.53 1514.83 675.53 1514.83 673.52 1522.88 673.52" style="fill: #991b1e;"/>
          <polygon points="1531.66 682.52 1531.66 675.68 1531.66 675.68 1529.84 682.52 1528.01 682.52 1525.81 675.68 1525.81 675.68 1525.81 682.52 1523.61 682.52 1523.61 673.52 1527.27 673.52 1528.74 679.52 1530.2 673.52 1533.86 673.52 1533.86 682.52 1531.66 682.52" style="fill: #991b1e;"/>
        </g>
        <g>
          <path d="M1431.13,682.01c-3.28,1.39-6.56,2.09-9.88,2.09-5.25,0-9.98-.91-14.18-2.74-4.19-1.83-7.73-4.35-10.6-7.57-2.88-3.22-5.1-6.99-6.63-11.34s-2.3-9.04-2.3-14.05.77-9.92,2.3-14.34,3.72-8.27,6.6-11.53c2.88-3.29,6.41-5.85,10.6-7.72s8.89-2.82,14.18-2.82c3.53,0,6.92.55,10.2,1.61s6.27,2.63,8.93,4.68,4.85,4.61,6.56,7.65,2.77,6.51,3.17,10.43h-14.36c-.91-3.84-2.62-6.73-5.17-8.67-2.55-1.94-5.65-2.89-9.33-2.89-3.39,0-6.27.66-8.64,1.98s-4.3,3.07-5.76,5.31c-1.46,2.23-2.55,4.76-3.21,7.57s-1.02,5.75-1.02,8.78.33,5.71,1.02,8.45c.66,2.74,1.75,5.2,3.21,7.39s3.39,3.95,5.76,5.27,5.25,1.98,8.64,1.98c4.99,0,8.85-1.28,11.59-3.81,2.73-2.52,4.3-6.18,4.77-11.01h-15.16v-11.38h28.75v37.22h-9.58l-1.53-7.79c-2.66,3.48-5.65,5.89-8.93,7.28h0Z" style="fill: #991b1e;"/>
          <path d="M1475.62,613.69v56.03h33.42v12.77h-48.47v-68.8h15.05Z" style="fill: #991b1e;"/>
          <path d="M1404.49,691.05c-22.99,14.05-57.47,22.03-95.91,22.03-69.27,0-125.39-28.95-125.39-64.7s56.15-64.7,125.39-64.7c38.59,0,73.17,8.16,96.17,22.29-25.07-23.68-70.11-40.29-121.56-40.33-78.86,0-142.77,37.03-142.77,82.74s63.92,82.78,142.74,82.78c51.27,0,96.17-16.58,121.35-40.11h0Z" style="fill: #991b1e;"/>
        </g>
        <g>
          <polygon points="1219.7 665.76 1206.42 608.31 1193.87 608.31 1213.56 683.22 1225.34 683.22 1241.92 624.38 1258.27 683.22 1270.09 683.22 1290.48 608.31 1277.19 608.31 1263.91 665.76 1247.88 608.31 1235.73 608.31 1219.7 665.76" style="fill: #991b1e;"/>
          <path d="M1323.63,639.86c-1.83-2.6-4.14-4.57-6.84-5.93-2.78-1.39-6-2.09-9.59-2.09-4.03,0-7.65.73-10.8,2.16-2.96,1.35-5.49,3.37-7.54,5.96-3.77,4.79-5.75,11.56-5.75,19.58,0,3.55.51,6.92,1.5,9.92.99,3.04,2.49,5.71,4.39,7.94,4.03,4.68,9.77,7.17,16.61,7.17,3.59,0,6.51-.37,8.97-1.13,2.12-.66,3.55-1.54,4.72-2.31,1.5-.99,2.85-2.2,4.1-3.59,1.02-1.21,1.94-2.52,2.74-3.95,1.39-2.56,2.09-4.98,2.23-6.22l.11-.84h-9.77l-.04.7c-.26,3.18-4.43,8.86-11.86,8.86-10.61,0-13.14-7.68-13.32-14.45h35.57v-.77c0-4.35-.44-8.34-1.32-11.82-.99-3.62-2.34-6.7-4.14-9.19h0ZM1306.06,640.62c7.87,0,12.08,4.24,12.84,12.95h-25.47c.4-7.06,6-12.95,12.62-12.95Z" style="fill: #991b1e;"/>
          <path d="M1378.23,647.03c-.95-3.04-2.34-5.71-4.14-7.94-1.87-2.31-4.14-4.1-6.73-5.34-2.71-1.28-5.75-1.94-9.04-1.94-3.04.04-5.78.7-8.2,1.98-2.01,1.02-3.81,2.49-5.34,4.32v-22.98h-9.73v68.06h9.26v-4.65c.81,1.06,1.87,2.2,3.26,3.18,2.63,1.9,5.89,2.85,9.66,2.85,4.06,0,7.72-.91,10.8-2.71,2.74-1.61,5.09-3.92,6.92-6.84,1.61-2.56,2.82-5.6,3.62-9,.7-2.93,1.06-6.15,1.06-9.29.04-3.4-.44-6.7-1.39-9.7h0ZM1369.48,658.08c0,5.34-1.06,9.81-3.11,12.95-2.16,3.33-5.31,5.01-9.33,5.01-5.82,0-12.62-4.06-12.62-15.55,0-5.49.7-9.73,2.09-12.95,2.01-4.65,5.42-6.88,10.36-6.88,5.27,0,8.82,2.05,10.8,6.33,1.61,3.51,1.83,7.79,1.83,11.09Z" style="fill: #991b1e;"/>
        </g>
      </g>
      <g>
        <path d="M1080.2,260.54c-55.97,0-56.57,21.72-56.57,26.2v27.14h57.65v8.15h-80.54c-17.13,0-38.66,10.42-38.66,56.57,0,42.4,16.79,58.79,33.74,58.79h20.14v-28.28c0-11.83,5.86-33.74,33.2-33.74h57.18c8.41,0,32.12-3.65,32.12-31.05v-52.19c0-6.79-1.16-31.58-58.25-31.58ZM1048.41,278.79c5.74,0,10.37,4.63,10.37,10.37s-4.64,10.37-10.37,10.37-10.37-4.64-10.37-10.37,4.64-10.37,10.37-10.37Z" style="fill: url(#linear-gradient);"/>
        <path d="M1081,497.59c55.94,0,56.64-22.13,56.64-26.2v-27.14h-57.72v-8.15h80.54c17.26,0,38.66-10.68,38.66-56.57,0-50.26-22.71-58.79-33.74-58.79h-20.14v28.28c0,11.83-5.67,33.74-33.2,33.74h-57.18c-8.39,0-32.12,4.09-32.12,31.05v52.19c0,11.27,6.89,31.58,58.25,31.58ZM1112.79,479.34c-5.74,0-10.37-4.64-10.37-10.37s4.63-10.37,10.37-10.37,10.37,4.64,10.37,10.37-4.64,10.37-10.37,10.37Z" style="fill: url(#linear-gradient1);"/>
      </g>
      <g>
        <path d="M338.58,741.86c2.09-3.62,3.39-7.71,3.39-11.38v-127.3c0-3.67-1.3-7.75-3.39-11.37l-129.95,75.02,129.95,75.02Z" style="fill: #00599c;"/>
        <path d="M220.19,814.13l110.24-63.65c3.18-1.83,6.06-5,8.15-8.63l-129.95-75.02-129.95,75.02c2.09,3.62,4.98,6.79,8.15,8.62l110.24,63.65c6.35,3.67,16.74,3.67,23.09,0Z" style="fill: #194681;"/>
        <path d="M338.59,591.81c-2.09-3.63-4.98-6.79-8.16-8.63l-110.24-63.65c-6.35-3.67-16.74-3.67-23.09,0l-110.24,63.65c-6.35,3.67-11.55,12.67-11.55,20v127.3c0,3.67,1.3,7.75,3.39,11.38l129.95-75.02,129.95-75.02Z" style="fill: #659ad2;"/>
        <path d="M208.64,755.73c-49.02,0-88.89-39.88-88.89-88.89s39.88-88.89,88.89-88.89c31.63,0,61.13,17.02,76.98,44.42l-38.47,22.26c-7.93-13.71-22.69-22.23-38.51-22.23-24.51,0-44.45,19.94-44.45,44.45s19.94,44.45,44.45,44.45c15.82,0,30.58-8.52,38.51-22.24l38.47,22.26c-15.85,27.4-45.35,44.42-76.98,44.42Z" style="fill: #fff;"/>
        <polygon points="297.53 661.9 287.65 661.9 287.65 652.02 277.78 652.02 277.78 661.9 267.9 661.9 267.9 671.78 277.78 671.78 277.78 681.65 287.65 681.65 287.65 671.78 297.53 671.78 297.53 661.9" style="fill: #fff;"/>
        <polygon points="334.57 661.9 324.69 661.9 324.69 652.02 314.82 652.02 314.82 661.9 304.94 661.9 304.94 671.78 314.82 671.78 314.82 681.65 324.69 681.65 324.69 671.78 334.57 671.78 334.57 661.9" style="fill: #fff;"/>
      </g>
      <g id="VitZEt.tif">
        <g>
          <polygon points="882.88 60.9 895.75 83.21 880.34 83.21 855.05 125.56 854.78 126.81 904.55 126.81 926.39 87.94 950.58 128.33 926.56 169.4 904.39 130.19 854.78 130.19 880.34 173.45 895.75 173.45 882.89 195.6 868.32 195.59 829.78 128.59 830.22 127.14 868.32 60.9 882.88 60.9"/>
          <polygon points="945.53 60.9 984 128.33 945.36 195.76 887.96 195.76 900.88 173.51 928.6 173.29 955.22 128.33 928.79 83.52 900.88 83.16 887.96 60.9 945.53 60.9"/>
          <path d="M1308.84,156.22v-56.11h46.22c4.44,0,10.11,6.13,10,10.63-.96,11.29,1.29,24.7-.11,35.74-.47,3.68-5.02,9.73-8.88,9.73h-47.23ZM1352.86,144.05v-31.26l-.51-.51h-31.32v31.77h31.83Z"/>
          <path d="M1256.02,144.39h31.15v-10.48h-33.86v-11.83h31.83v-9.63l-.51-.51h-28.61c-.19,1.4.51,3.32-.51,4.39h-11.17l-.51-.51v-5.07c0-5.63,5.69-10.24,10.99-10.66,8.5-.67,22.63-.6,31.18,0,13.47.93,10.97,14.55,11,24.2.01,3.58.34,2.12,1.4,4.99,1.01,2.73.93,14,.63,17.31-.4,4.43-4.71,8.73-9.02,9.59-11.65-.74-24.74,1.09-36.22.04-3.6-.33-7.76-3.51-9.02-6.88-.87-2.31-1.51-6.52-.45-8.68h11.17c.95.36.31,3.72.51,3.72Z"/>
          <polygon points="1171.37 100.11 1171.37 112.28 1131.76 112.28 1131.76 122.08 1163.58 122.08 1163.58 134.25 1131.76 134.25 1131.76 144.05 1170.86 144.05 1171.37 144.56 1171.37 156.22 1119.57 156.22 1119.57 100.11 1171.37 100.11"/>
          <path d="M996.1,153.05c-2.28-2.25-3.28-5.34-3.52-8.49-.67-8.91-.67-23.88.02-32.79.49-6.34,4.43-11.16,10.99-11.68,11.1-.87,23.33.67,34.54.02,5.2.36,10.2,4.68,10.69,9.95,1.06,11.58-.82,24.76-.02,36.51-.67,4.87-5.04,9.22-9.97,9.65-11.56,1-24.53-.77-36.24-.02-2.27-.22-4.87-1.57-6.49-3.16ZM1036.61,112.28h-31.83v31.77h31.83v-31.77Z"/>
          <polygon points="1223.18 137.29 1223.18 100.11 1235.37 100.11 1235.37 156.22 1223.01 156.22 1191.35 119.04 1191.35 156.22 1179.16 156.22 1179.16 100.11 1191.52 100.11 1223.18 137.29"/>
          <path d="M1069.79,137.96v17.74l-.51.51h-11.68v-55.6l.51-.51h45.03c4.02,0,8.61,4.01,9.91,7.68,1.22,3.44,1.08,14.85.76,18.86-.46,5.86-5.17,11.31-11.36,11.31h-32.67ZM1069.79,125.8h31.32l.51-.51v-12.51l-.51-.51h-31.32v13.52Z"/>
        </g>
      </g>
      <g>
        <path d="M213.2,116.71v-16.13c1.57-.12,3.15-.19,4.76-.25,44.1-1.38,73.04,37.9,73.04,37.9,0,0-31.25,43.37-64.76,43.37-4.43.02-8.83-.68-13.04-2.09v-48.86c17.17,2.07,20.62,9.63,30.95,26.86l22.96-19.36c-11.15-13.45-27.55-21.46-45.01-21.98-2.97.02-5.94.19-8.89.53M213.2,63.44v24.09c1.58-.13,3.17-.23,4.76-.29,61.33-2.06,101.29,50.3,101.29,50.3,0,0-45.9,55.8-93.71,55.8-4.14,0-8.27-.36-12.34-1.08v14.89c3.41.44,6.84.66,10.28.66,44.49,0,76.67-22.72,107.83-49.62,5.15,4.14,26.31,14.2,30.66,18.61-29.63,24.8-98.67,44.79-137.78,44.79-3.78,0-7.41-.23-10.96-.58v20.93h169.09V63.44h-169.12ZM213.2,179.55v12.72c-41.15-7.34-52.58-50.1-52.58-50.1,14.16-14.15,32.69-23.12,52.58-25.44v13.94h-.06c-11.81-.14-23.06,5-30.68,14.03,0,0,7.53,27.08,30.73,34.88M140.11,140.29c17.6-23.03,44.19-37.48,73.09-39.71v-13.05c-53.94,4.33-100.65,50.01-100.65,50.01,0,0,26.46,76.49,100.65,83.48v-13.87c-54.41-6.85-73.09-66.86-73.09-66.86Z" style="fill: #7fbd42;"/>
        <g>
          <path d="M154.32,322.89c-2.8,6.25-6.87,9.28-12.44,9.28-2.3,0-4.29-.5-5.91-1.49l-.07-.04c-1.68-.85-3.05-1.97-4.07-3.33l-.05-.07c-1.24-1.41-2.08-3.29-2.5-5.63-.5-2.44-.75-7.25-.75-14.29s.25-11.88.75-14.41c.41-2.25,1.25-4.11,2.5-5.51l.05-.07c1.03-1.36,2.4-2.52,4.09-3.44,1.64-.88,3.66-1.36,5.94-1.42,3.15.06,5.84,1,7.99,2.76,2.12,1.92,3.61,4.27,4.42,6.98l.23.77h13.39l-.24-1.27c-1.16-6.26-3.99-11.58-8.41-15.83-4.46-4.25-10.28-6.44-17.33-6.5-5.72.07-10.58,1.51-14.43,4.27-3.87,2.7-6.74,5.83-8.52,9.31-1.11,1.86-1.95,4.3-2.48,7.26-.5,2.94-.74,8.53-.74,17.09s.24,13.99.74,16.99c.27,1.62.61,2.99,1.03,4.12.42,1.01.9,2.07,1.43,3.21,1.78,3.5,4.65,6.61,8.52,9.24,3.85,2.77,8.7,4.24,14.45,4.38,6.33,0,11.89-1.88,16.54-5.61,4.5-3.74,7.59-9.15,9.18-16.08l.3-1.32h-13.32l-.28.64Z" style="fill: #231f20;"/>
          <path d="M220.31,317.85c-.06,4.63-1.32,8.18-3.74,10.56-2.52,2.53-5.63,3.76-9.51,3.76s-6.96-1.23-9.44-3.78c-2.47-2.37-3.76-5.91-3.82-10.52v-47.87h-12.78v49.06c.07,7.89,2.65,14.25,7.65,18.89,4.9,4.78,11.09,7.24,18.4,7.31,7.42-.07,13.65-2.53,18.52-7.31,4.85-4.66,7.38-11.02,7.51-18.93v-49.02h-12.78v47.85Z" style="fill: #231f20;"/>
          <path d="M301.98,282.76c-4.94-8.4-12.45-12.7-22.32-12.77h-25.65v74.67h24.93c5.46,0,10.15-1.26,13.9-3.74,3.8-2.3,6.8-5.27,8.94-8.82.79-1.32,1.47-2.61,2.04-3.87.54-1.3.96-2.78,1.22-4.41.55-3.13.84-8.69.84-16.5,0-7.34-.18-12.58-.54-15.63-.47-3.12-1.61-6.13-3.36-8.94ZM266.79,282.49h11.69c5.06-.12,8.87,1.73,11.64,5.67l.06.08c1.31,1.53,2.15,3.57,2.5,6.04.28,2.68.43,7.2.43,13.44s-.14,10.82-.43,13.11c-.3,2.19-.99,4.02-2.06,5.42l-.05.07c-2.51,3.93-6.48,5.83-12.12,5.83h-11.66v-49.68Z" style="fill: #231f20;"/>
          <path d="M352.83,270h-10.43l-26.29,74.67h13.57l5.39-16.22h25.09l5.44,16.22h13.51l-26.29-74.67ZM356.43,316.56h-17.57l8.79-27.43,8.79,27.43Z" style="fill: #231f20;"/>
        </g>
      </g>
      <g style="mask: url(#mask);">
        <g>
          <path d="M1163.08,855.5l-41.34-19.91c-4.79-2.3-10.5-1.33-14.26,2.42l-135.35,123.4c-3.64,3.32-3.64,9.05,0,12.36l11.06,10.05c2.98,2.71,7.47,2.91,10.68.47l162.99-123.65c5.47-4.15,13.32-.25,13.32,6.62v-.48c0-4.82-2.76-9.21-7.1-11.3Z" style="fill: #0066a9;"/>
          <path d="M1163.08,1012.83l-41.34,19.91c-4.79,2.3-10.5,1.33-14.26-2.42l-135.35-123.4c-3.64-3.32-3.64-9.05,0-12.36l11.06-10.05c2.98-2.71,7.47-2.91,10.68-.47l162.99,123.65c5.47,4.15,13.32.25,13.32-6.62v.48c0,4.82-2.76,9.21-7.1,11.3Z" style="fill: #2179bf;"/>
          <path d="M1121.74,1032.74c-4.79,2.3-10.51,1.33-14.26-2.43,4.63,4.63,12.54,1.35,12.54-5.19v-181.91c0-6.54-7.91-9.82-12.54-5.19,3.76-3.76,9.48-4.73,14.26-2.43l41.34,19.88c4.34,2.09,7.11,6.48,7.11,11.3v134.79c0,4.82-2.76,9.21-7.11,11.3l-41.34,19.88Z" style="fill: #4497d2;"/>
          <g style="mix-blend-mode: overlay; opacity: .25;">
            <path d="M1111.69,1033.12c3.16,1.23,6.76,1.15,9.95-.38l41.31-19.88c4.34-2.09,7.1-6.48,7.1-11.3v-134.79c0-4.82-2.76-9.21-7.1-11.3l-41.31-19.88c-4.19-2.01-9.09-1.52-12.76,1.15-.52.38-1.02.81-1.49,1.28l-79.09,72.15-34.45-26.15c-3.21-2.43-7.69-2.23-10.67.47l-11.05,10.05c-3.64,3.31-3.65,9.05,0,12.36l29.87,27.26-29.87,27.26c-3.64,3.32-3.63,9.05,0,12.36l11.05,10.05c2.98,2.71,7.46,2.91,10.67.47l34.45-26.15,79.09,72.15c1.25,1.25,2.72,2.19,4.3,2.81ZM1119.93,888.61l-60.01,45.55,60.01,45.55v-91.1Z" style="fill: url(#linear-gradient2); fill-rule: evenodd;"/>
          </g>
        </g>
      </g>
      <g>
        <g id="group">
          <path id="Path" d="M305.72,956.06l-7.65,7.65c12.51,12.51,12.51,32.67,0,44.95-12.51,12.51-32.67,12.51-44.95,0-12.51-12.51-12.51-32.67,0-44.95l19.81-19.81,2.78-2.78v-14.94l-29.89,29.89c-16.68,16.68-16.68,43.56,0,60.24,16.68,16.68,43.56,16.68,59.9,0,16.68-16.8,16.68-43.56,0-60.24Z" style="fill: #ee4c2a;"/>
          <path id="Path-1" d="M296.34,948.65c0,3.07-2.49,5.56-5.56,5.56s-5.56-2.49-5.56-5.56,2.49-5.56,5.56-5.56,5.56,2.49,5.56,5.56Z" style="fill: #ee4c2a;"/>
        </g>
        <g id="group-1">
          <g id="group-2">
            <path id="Path-2" d="M382.99,994.29h-12.86v33.02h-9.73v-93.96h23.63c24.68,0,36.49,12.16,36.49,29.19.35,20.97-14.25,31.74-37.54,31.74ZM384.04,942.74h-13.55v43.21l13.21-.35c17.73-.35,27.46-7.3,27.46-21.9,0-13.67-9.73-20.97-27.11-20.97Z"/>
            <path id="Path-3" d="M464.09,1026.96l-5.56,14.94c-6.26,16.68-12.86,21.55-22.24,21.55-5.21,0-9.04-1.39-13.21-3.13l2.78-8.69c3.13,1.74,6.6,3.13,10.43,3.13,5.21,0,9.04-2.78,14.25-15.99l4.52-12.16-26.76-67.89h10.08l21.55,56.77,21.2-56.77h9.73l-26.76,68.24Z"/>
            <path id="Path-4" d="M522.6,942.74v84.92h-9.73v-84.92h-33.02v-9.04h75.54v9.04h-32.79Z"/>
            <path id="Path-5" d="M582.84,1029.4c-19.12,0-33.02-14.25-33.02-36.15s14.6-36.49,34.06-36.49,33.02,14.25,33.02,36.15c-.35,21.9-14.95,36.49-34.06,36.49ZM583.19,965.45c-14.6,0-23.98,11.47-23.98,27.8s9.73,28.15,24.33,28.15,23.98-11.47,23.98-27.8-9.73-28.15-24.33-28.15Z"/>
            <path id="Path-6" d="M640.19,1027.66h-9.38v-68.93l9.38-2.09v14.6c4.52-8.69,11.12-14.6,20.16-14.6,4.52,0,8.69,1.39,12.16,3.13l-2.43,8.69c-3.13-1.74-6.6-3.13-10.43-3.13-7.3,0-13.9,5.56-19.46,17.73v44.6Z"/>
            <path id="Path-7" d="M709.12,1029.4c-20.85,0-33.71-14.94-33.71-36.15s14.25-36.49,33.71-36.49c8.34,0,15.64,2.09,21.55,5.91l-2.43,8.34c-5.21-3.48-11.82-5.56-19.12-5.56-14.94,0-23.98,11.12-23.98,27.46s9.73,27.8,24.33,27.8c6.95,0,13.9-2.09,19.12-5.56l2.09,8.69c-6.26,3.48-13.55,5.56-21.55,5.56Z"/>
            <path id="Path-8" d="M788.13,1027.66v-44.6c0-12.16-4.87-17.38-14.6-17.38-7.99,0-15.64,4.17-21.2,9.73v52.25h-9.38v-101.26l9.38-2.09v43.56c7.3-7.3,16.34-10.77,23.98-10.77,13.21,0,21.55,8.69,21.55,23.63v47.04h-9.73v-.12Z"/>
          </g>
        </g>
      </g>
      <g id="uuid-71e27296-a682-41fa-85d2-89446dbbc47a">
        <path d="M1337.2,344.74l-25.1,51.33-15.57,33.24c-.32.95-.99,1.7-1.9,2.14-.89.44-1.92.5-2.87.18s-1.72-.99-2.16-1.9l-35.93-73.51,6.74-3.29,34.49,70.56,3.37-7.19-35.04-71.65-17.85,8.72,38.65,79.06c1.17,2.38,3.19,4.16,5.69,5.03,2.5.85,5.21.69,7.59-.48.5-.24,1.01-.55,1.47-.89.61-.44,1.13-1.07,1.49-1.84,1.01-2.1,3.66-7.55,3.78-7.77l35.95-73.47,6.74,3.29-35.95,73.51c-.44.89-1.19,1.58-2.16,1.9-.95.32-1.96.26-2.87-.18-.04,0-.08-.06-.12-.08l-2.63,5.61s.02,0,.04.02c1.37.69,2.87,1.01,4.36,1.01,1.09,0,2.18-.18,3.23-.55,2.5-.87,4.52-2.65,5.69-5.03l38.67-79.06-17.85-8.72Z" style="fill: #231f20;"/>
        <polygon points="1398.41 420.27 1386.96 386.2 1394.47 386.2 1403.52 415.02 1404.63 415.02 1413.67 386.2 1421.21 386.2 1409.74 420.27 1398.41 420.27" style="fill: #231f20;"/>
        <path d="M1438.75,415.36c2.87,0,5.15-.81,6.91-2.44,1.76-1.64,2.63-3.88,2.63-6.74v-.69h-9.94c-1.9,0-3.41.4-4.56,1.21s-1.72,2-1.72,3.55.61,2.81,1.8,3.74,2.83,1.37,4.91,1.37M1437.72,421.24c-2.44,0-4.62-.42-6.52-1.25-1.92-.83-3.43-2.04-4.56-3.66-1.13-1.62-1.7-3.57-1.7-5.88s.57-4.3,1.7-5.84c1.13-1.53,2.67-2.71,4.62-3.49s4.18-1.17,6.66-1.17h10.36v-2.2c0-1.98-.61-3.57-1.8-4.77s-3.05-1.8-5.53-1.8-4.3.59-5.59,1.74-2.14,2.65-2.56,4.48l-6.62-2.14c.55-1.84,1.43-3.51,2.67-5.01,1.21-1.49,2.85-2.71,4.87-3.63s4.46-1.37,7.33-1.37c4.42,0,7.9,1.13,10.42,3.39,2.54,2.26,3.8,5.45,3.8,9.59v14.01c0,1.37.65,2.08,1.94,2.08h2.91v5.94h-5.33c-1.62,0-2.93-.42-3.94-1.25s-1.51-1.96-1.51-3.39v-.2h-1.03c-.36.69-.93,1.49-1.66,2.42-.75.93-1.82,1.72-3.25,2.38s-3.31,1.01-5.67,1.01" style="fill: #231f20;"/>
        <path d="M1480.68,421.24c-4.32,0-7.92-.97-10.78-2.91-2.85-1.94-4.6-4.87-5.25-8.76l6.62-1.58c.36,1.88.99,3.39,1.86,4.48.87,1.11,1.98,1.9,3.29,2.34,1.31.46,2.73.69,4.24.69,2.26,0,4-.44,5.21-1.31s1.84-2,1.84-3.39-.59-2.38-1.74-3.03-2.85-1.17-5.11-1.6l-2.34-.42c-2.3-.42-4.4-1.01-6.28-1.8-1.9-.79-3.39-1.86-4.48-3.25-1.11-1.37-1.66-3.15-1.66-5.31,0-3.23,1.19-5.72,3.59-7.49s5.57-2.67,9.53-2.67,6.97.87,9.43,2.58,4.06,4.06,4.81,7.01l-6.62,1.86c-.42-2.08-1.29-3.53-2.63-4.38s-2.99-1.27-4.97-1.27-3.45.36-4.56,1.07-1.66,1.72-1.66,3.01c0,1.37.55,2.4,1.62,3.03,1.09.65,2.54,1.13,4.38,1.45l2.42.4c2.44.42,4.66.99,6.7,1.74,2.02.73,3.64,1.8,4.81,3.17,1.17,1.37,1.76,3.23,1.76,5.53,0,3.41-1.27,6.06-3.8,7.94s-5.94,2.83-10.22,2.83" style="fill: #231f20;"/>
        <path d="M1515.01,420.27c-2.08,0-3.72-.63-4.95-1.86-1.21-1.25-1.84-2.91-1.84-4.97v-21.2h-9.39v-6.02h9.39v-11.25h7.11v11.25h10.16v6.02h-10.16v19.95c0,1.37.65,2.08,1.94,2.08h7.11v6.02h-9.39l.02-.02Z" style="fill: #231f20;"/>
        <path d="M1560.69,415.36c2.87,0,5.15-.81,6.91-2.44,1.76-1.64,2.63-3.88,2.63-6.74v-.69h-9.94c-1.9,0-3.41.4-4.56,1.21-1.15.81-1.72,2-1.72,3.55s.61,2.81,1.8,3.74,2.83,1.37,4.91,1.37M1559.66,421.24c-2.44,0-4.62-.42-6.52-1.25-1.92-.83-3.43-2.04-4.56-3.66-1.13-1.62-1.7-3.57-1.7-5.88s.57-4.3,1.7-5.84c1.13-1.53,2.67-2.71,4.62-3.49,1.96-.79,4.18-1.17,6.66-1.17h10.36v-2.2c0-1.98-.61-3.57-1.8-4.77s-3.05-1.8-5.53-1.8-4.3.59-5.59,1.74-2.14,2.65-2.56,4.48l-6.62-2.14c.55-1.84,1.43-3.51,2.67-5.01,1.21-1.49,2.85-2.71,4.87-3.63s4.46-1.37,7.33-1.37c4.42,0,7.9,1.13,10.42,3.39,2.54,2.26,3.8,5.45,3.8,9.59v14.01c0,1.37.65,2.08,1.94,2.08h2.91v5.94h-5.33c-1.62,0-2.93-.42-3.94-1.25s-1.51-1.96-1.51-3.39v-.2h-1.03c-.36.69-.93,1.49-1.66,2.42-.75.93-1.82,1.72-3.25,2.38-1.43.67-3.31,1.01-5.67,1.01" style="fill: #231f20;"/>
        <rect x="1588.94" y="386.22" width="7.11" height="34.05" style="fill: #231f20;"/>
        <rect x="1532.66" y="414.25" width="7.11" height="6.02" style="fill: #231f20;"/>
        <rect x="1588.94" y="374.96" width="7.11" height="6.02" style="fill: #231f20;"/>
      </g>
    </g>
  </g>
</svg>