<?xml version="1.0" encoding="UTF-8"?>
<svg id="Layer_1" xmlns="http://www.w3.org/2000/svg" version="1.1" viewBox="0 0 983.25 506.99">
  <!-- Generator: Adobe Illustrator 29.8.1, SVG Export Plug-In . SVG Version: 2.1.1 Build 2)  -->
  <rect x="319.98" y="410.06" width="31.25" height="75.77" transform="translate(783.55 112.35) rotate(90)" style="fill: #a644f2;"/>
  <g>
    <path d="M318.61,443.67v-2.47h7.84v2.47h-2.61v8.83h-2.62v-8.83h-2.61Z" style="fill: #fff;"/>
    <path d="M334,445v7.5h-2.3v-.64c-.29.28-.62.5-.99.65-.37.15-.77.23-1.2.23-.54,0-1.04-.1-1.5-.31s-.86-.49-1.2-.85c-.34-.36-.61-.78-.8-1.27-.19-.48-.29-1.01-.29-1.57s.1-1.08.29-1.57c.2-.49.46-.91.8-1.27.34-.36.74-.64,1.2-.85s.96-.31,1.5-.31c.43,0,.83.08,1.2.23.37.16.7.37.99.65v-.64h2.3ZM329.93,450.46c.47,0,.86-.16,1.16-.48.31-.32.46-.73.46-1.23s-.15-.91-.46-1.23c-.31-.32-.69-.48-1.16-.48s-.86.16-1.16.48c-.31.32-.46.73-.46,1.23s.15.91.46,1.23c.3.32.69.48,1.16.48Z" style="fill: #fff;"/>
    <path d="M337.97,445v.63c.24-.26.54-.47.89-.62s.76-.24,1.21-.25c.44,0,.85.06,1.22.22s.7.37.98.65c.27.27.48.61.64,1.01.15.41.23.92.23,1.55v4.3h-2.52v-3.99c0-.32-.03-.57-.09-.74-.06-.17-.15-.32-.26-.43-.22-.22-.51-.33-.87-.33s-.65.11-.87.33c-.11.11-.2.25-.25.43-.06.17-.09.42-.09.74v3.99h-2.52v-7.5h2.29Z" style="fill: #fff;"/>
    <path d="M351.35,445.63c.27.27.48.61.64,1.01.15.41.23.92.23,1.55v4.3h-2.52v-3.99c0-.32-.03-.57-.09-.74-.06-.17-.15-.32-.26-.43-.22-.22-.51-.33-.87-.33s-.65.11-.87.33c-.11.11-.2.25-.25.43-.06.17-.09.42-.09.74v3.99h-2.52v-11.67h2.52v4.59c.23-.2.5-.36.83-.47.32-.11.67-.18,1.05-.19.44,0,.85.06,1.22.22s.7.37.98.65Z" style="fill: #fff;"/>
  </g>
  <rect x="319.98" y="375.12" width="31.25" height="75.77" transform="translate(748.61 77.4) rotate(90)" style="fill: #4480be;"/>
  <g>
    <path d="M315.78,406.25v8.83h3.85v2.48h-6.58v-11.31h2.73Z" style="fill: #fff;"/>
    <path d="M322.24,409.05c-.21,0-.4-.04-.58-.11-.18-.07-.33-.18-.47-.31-.14-.13-.24-.28-.32-.45s-.12-.36-.12-.56c0-.19.04-.37.12-.55s.18-.33.32-.46c.13-.13.29-.23.47-.31.18-.07.37-.11.58-.11.2,0,.39.04.57.11.18.08.34.18.48.31.13.13.24.28.32.46s.12.36.12.55c0,.2-.04.39-.12.56s-.19.32-.32.45-.29.23-.48.31c-.18.08-.37.11-.57.11ZM323.55,410.06v7.5h-2.62v-7.5h2.62Z" style="fill: #fff;"/>
    <path d="M327.69,410.06v.63c.25-.26.56-.47.93-.62.37-.15.79-.24,1.26-.25.46,0,.88.06,1.27.22.39.16.73.37,1.02.65.28.27.5.61.66,1.01.16.4.24.92.24,1.55v4.31h-2.62v-3.99c0-.32-.03-.57-.09-.74s-.15-.32-.26-.43c-.23-.22-.53-.33-.91-.33s-.68.11-.9.33c-.12.11-.2.25-.27.43s-.09.42-.09.74v3.99h-2.62v-7.5h2.39Z" style="fill: #fff;"/>
    <path d="M342.43,413.81c0,.22-.02.43-.05.64h-5.44c.05.37.23.67.54.9.31.23.68.34,1.12.34.35,0,.67-.08.94-.23s.47-.36.61-.62l2.03.99c-.35.59-.85,1.07-1.48,1.43-.63.36-1.36.54-2.17.54-.61,0-1.18-.1-1.69-.3-.51-.2-.96-.48-1.33-.83-.37-.36-.66-.78-.87-1.26-.21-.49-.31-1.02-.31-1.6s.1-1.11.3-1.6c.2-.49.48-.91.83-1.26.36-.36.79-.63,1.29-.83s1.04-.3,1.64-.3,1.14.1,1.64.3.93.48,1.29.83c.36.35.64.77.83,1.26.2.49.3,1.02.3,1.6ZM338.37,411.77c-.37,0-.69.1-.96.31-.27.21-.42.47-.48.79h2.87c-.05-.32-.21-.58-.48-.79-.26-.21-.58-.31-.96-.31Z" style="fill: #fff;"/>
    <path d="M351.9,410.06v7.5h-2.39v-.65c-.3.28-.65.5-1.03.65-.38.16-.8.23-1.25.23-.56,0-1.08-.1-1.56-.31-.48-.21-.89-.49-1.25-.85-.35-.36-.63-.78-.83-1.27s-.3-1.01-.3-1.57.1-1.08.3-1.57c.2-.49.48-.91.83-1.27.35-.36.77-.64,1.25-.85s1-.31,1.56-.31c.45,0,.86.08,1.25.23.38.16.73.37,1.03.65v-.64h2.39ZM347.67,415.52c.49,0,.89-.16,1.21-.48.32-.32.48-.73.48-1.23s-.16-.91-.48-1.23c-.32-.32-.72-.48-1.21-.48s-.89.16-1.21.48c-.32.32-.48.73-.48,1.23s.16.91.48,1.23c.32.32.72.48,1.21.48Z" style="fill: #fff;"/>
    <path d="M358.2,409.97c.26,0,.54.02.83.07v2.31c-.22-.07-.48-.11-.8-.11-.58,0-1.06.18-1.42.53-.18.17-.31.38-.41.63s-.14.58-.14,1v3.15h-2.62v-7.5h2.39v.9c.27-.32.59-.56.96-.73s.77-.25,1.21-.25Z" style="fill: #fff;"/>
  </g>
  <polygon points="339.34 428.63 335.6 433.92 331.87 428.63 339.34 428.63" style="fill: #4480be;"/>
  <rect x="452.93" y="410.06" width="31.25" height="75.77" transform="translate(916.51 -20.61) rotate(90)" style="fill: #a644f2;"/>
  <g>
    <path d="M451.57,443.67v-2.47h7.84v2.47h-2.61v8.83h-2.62v-8.83h-2.61Z" style="fill: #fff;"/>
    <path d="M466.95,445v7.5h-2.29v-.64c-.29.28-.62.5-.99.65-.37.15-.77.23-1.2.23-.54,0-1.04-.1-1.5-.31s-.86-.49-1.2-.85c-.34-.36-.61-.78-.8-1.27-.2-.48-.29-1.01-.29-1.57s.1-1.08.29-1.57.46-.91.8-1.27c.34-.36.74-.64,1.2-.85s.96-.31,1.5-.31c.43,0,.83.08,1.2.23.37.16.7.37.99.65v-.64h2.29ZM462.89,450.46c.47,0,.86-.16,1.16-.48.3-.32.46-.73.46-1.23s-.15-.91-.46-1.23c-.31-.32-.69-.48-1.16-.48s-.86.16-1.16.48c-.3.32-.46.73-.46,1.23s.15.91.46,1.23c.3.32.69.48,1.16.48Z" style="fill: #fff;"/>
    <path d="M470.93,445v.63c.24-.26.54-.47.89-.62.35-.16.76-.24,1.21-.25.44,0,.85.06,1.22.22s.7.37.98.65.48.61.64,1.01.23.92.23,1.55v4.3h-2.52v-3.99c0-.32-.03-.57-.09-.74-.06-.17-.15-.32-.26-.43-.22-.22-.51-.33-.87-.33s-.65.11-.87.33c-.11.11-.2.25-.25.43-.06.17-.09.42-.09.74v3.99h-2.52v-7.5h2.29Z" style="fill: #fff;"/>
    <path d="M484.31,445.63c.27.27.48.61.64,1.01s.23.92.23,1.55v4.3h-2.52v-3.99c0-.32-.03-.57-.09-.74-.06-.17-.15-.32-.26-.43-.22-.22-.51-.33-.87-.33s-.65.11-.87.33c-.11.11-.2.25-.25.43-.06.17-.09.42-.09.74v3.99h-2.52v-11.67h2.52v4.59c.23-.2.5-.36.83-.47.32-.11.67-.18,1.05-.19.44,0,.85.06,1.22.22s.7.37.98.65Z" style="fill: #fff;"/>
  </g>
  <rect x="452.93" y="375.12" width="31.25" height="75.77" transform="translate(881.57 -55.55) rotate(90)" style="fill: #4480be;"/>
  <g>
    <path d="M448.74,406.25v8.83h3.85v2.48h-6.58v-11.31h2.73Z" style="fill: #fff;"/>
    <path d="M455.2,409.05c-.21,0-.4-.04-.58-.11-.18-.07-.33-.18-.47-.31-.13-.13-.24-.28-.32-.45s-.12-.36-.12-.56c0-.19.04-.37.12-.55s.18-.33.32-.46c.14-.13.29-.23.47-.31.18-.07.37-.11.58-.11.2,0,.39.04.57.11.18.08.34.18.48.31.13.13.24.28.32.46s.12.36.12.55c0,.2-.04.39-.12.56s-.18.32-.32.45c-.14.13-.29.23-.48.31-.18.08-.37.11-.57.11ZM456.51,410.06v7.5h-2.62v-7.5h2.62Z" style="fill: #fff;"/>
    <path d="M460.64,410.06v.63c.25-.26.56-.47.93-.62.37-.15.79-.24,1.26-.25.46,0,.88.06,1.27.22.39.16.73.37,1.02.65.28.27.5.61.66,1.01.16.4.24.92.24,1.55v4.31h-2.62v-3.99c0-.32-.03-.57-.09-.74-.06-.17-.15-.32-.26-.43-.23-.22-.53-.33-.91-.33s-.68.11-.91.33c-.11.11-.2.25-.26.43-.06.17-.09.42-.09.74v3.99h-2.62v-7.5h2.39Z" style="fill: #fff;"/>
    <path d="M475.38,413.81c0,.22-.02.43-.05.64h-5.44c.05.37.23.67.54.9s.68.34,1.12.34c.35,0,.67-.08.94-.23s.47-.36.61-.62l2.03.99c-.35.59-.85,1.07-1.48,1.43-.63.36-1.36.54-2.17.54-.61,0-1.18-.1-1.69-.3-.52-.2-.96-.48-1.33-.83-.37-.36-.66-.78-.87-1.26-.21-.49-.31-1.02-.31-1.6s.1-1.11.3-1.6c.2-.49.48-.91.83-1.26.36-.36.79-.63,1.29-.83.5-.2,1.04-.3,1.64-.3s1.14.1,1.64.3.93.48,1.29.83c.36.35.64.77.83,1.26s.3,1.02.3,1.6ZM471.33,411.77c-.37,0-.69.1-.96.31-.26.21-.42.47-.48.79h2.87c-.05-.32-.21-.58-.48-.79s-.58-.31-.96-.31Z" style="fill: #fff;"/>
    <path d="M484.85,410.06v7.5h-2.39v-.65c-.3.28-.65.5-1.03.65-.38.16-.8.23-1.25.23-.56,0-1.08-.1-1.56-.31-.48-.21-.89-.49-1.25-.85-.35-.36-.63-.78-.83-1.27s-.3-1.01-.3-1.57.1-1.08.3-1.57c.2-.49.48-.91.83-1.27.35-.36.77-.64,1.25-.85s1-.31,1.56-.31c.45,0,.86.08,1.25.23.38.16.73.37,1.03.65v-.64h2.39ZM480.62,415.52c.49,0,.89-.16,1.21-.48.32-.32.48-.73.48-1.23s-.16-.91-.48-1.23c-.32-.32-.72-.48-1.21-.48s-.89.16-1.21.48c-.32.32-.48.73-.48,1.23s.16.91.48,1.23c.32.32.72.48,1.21.48Z" style="fill: #fff;"/>
    <path d="M491.15,409.97c.26,0,.54.02.83.07v2.31c-.22-.07-.48-.11-.8-.11-.58,0-1.05.18-1.42.53-.18.17-.31.38-.41.63s-.14.58-.14,1v3.15h-2.62v-7.5h2.39v.9c.27-.32.59-.56.96-.73.37-.17.77-.25,1.21-.25Z" style="fill: #fff;"/>
  </g>
  <polygon points="472.29 428.63 468.56 433.92 464.82 428.63 472.29 428.63" style="fill: #4480be;"/>
  <rect x="585.89" y="410.06" width="31.25" height="75.77" transform="translate(1049.47 -153.57) rotate(90)" style="fill: #a644f2;"/>
  <g>
    <path d="M584.52,443.67v-2.47h7.84v2.47h-2.61v8.83h-2.62v-8.83h-2.61Z" style="fill: #fff;"/>
    <path d="M599.91,445v7.5h-2.29v-.64c-.29.28-.62.5-.99.65-.37.15-.77.23-1.2.23-.54,0-1.04-.1-1.5-.31s-.86-.49-1.2-.85c-.34-.36-.61-.78-.8-1.27-.2-.48-.29-1.01-.29-1.57s.1-1.08.29-1.57.46-.91.8-1.27c.34-.36.74-.64,1.2-.85s.96-.31,1.5-.31c.43,0,.83.08,1.2.23.37.16.7.37.99.65v-.64h2.29ZM595.85,450.46c.47,0,.86-.16,1.16-.48.3-.32.46-.73.46-1.23s-.15-.91-.46-1.23c-.31-.32-.69-.48-1.16-.48s-.86.16-1.16.48c-.3.32-.46.73-.46,1.23s.15.91.46,1.23c.3.32.69.48,1.16.48Z" style="fill: #fff;"/>
    <path d="M603.89,445v.63c.24-.26.54-.47.89-.62.35-.16.76-.24,1.21-.25.44,0,.85.06,1.22.22s.7.37.98.65.48.61.64,1.01.23.92.23,1.55v4.3h-2.52v-3.99c0-.32-.03-.57-.09-.74-.06-.17-.15-.32-.26-.43-.22-.22-.51-.33-.87-.33s-.65.11-.87.33c-.11.11-.2.25-.25.43-.06.17-.09.42-.09.74v3.99h-2.52v-7.5h2.29Z" style="fill: #fff;"/>
    <path d="M617.27,445.63c.27.27.48.61.64,1.01s.23.92.23,1.55v4.3h-2.52v-3.99c0-.32-.03-.57-.09-.74-.06-.17-.15-.32-.26-.43-.22-.22-.51-.33-.87-.33s-.65.11-.87.33c-.11.11-.2.25-.25.43-.06.17-.09.42-.09.74v3.99h-2.52v-11.67h2.52v4.59c.23-.2.5-.36.83-.47.32-.11.67-.18,1.05-.19.44,0,.85.06,1.22.22s.7.37.98.65Z" style="fill: #fff;"/>
  </g>
  <rect x="585.89" y="375.12" width="31.25" height="75.77" transform="translate(1014.52 -188.51) rotate(90)" style="fill: #4480be;"/>
  <g>
    <path d="M581.7,406.25v8.83h3.85v2.48h-6.58v-11.31h2.73Z" style="fill: #fff;"/>
    <path d="M588.16,409.05c-.21,0-.4-.04-.58-.11-.18-.07-.33-.18-.47-.31-.13-.13-.24-.28-.32-.45s-.12-.36-.12-.56c0-.19.04-.37.12-.55s.18-.33.32-.46c.14-.13.29-.23.47-.31.18-.07.37-.11.58-.11.2,0,.39.04.57.11.18.08.34.18.48.31.13.13.24.28.32.46s.12.36.12.55c0,.2-.04.39-.12.56s-.18.32-.32.45c-.14.13-.29.23-.48.31-.18.08-.37.11-.57.11ZM589.47,410.06v7.5h-2.62v-7.5h2.62Z" style="fill: #fff;"/>
    <path d="M593.6,410.06v.63c.25-.26.56-.47.93-.62.37-.15.79-.24,1.25-.25.46,0,.88.06,1.27.22.39.16.73.37,1.02.65.28.27.5.61.66,1.01.16.4.24.92.24,1.55v4.31h-2.62v-3.99c0-.32-.03-.57-.09-.74-.06-.17-.15-.32-.27-.43-.23-.22-.53-.33-.9-.33s-.68.11-.91.33c-.11.11-.2.25-.26.43-.06.17-.09.42-.09.74v3.99h-2.62v-7.5h2.39Z" style="fill: #fff;"/>
    <path d="M608.34,413.81c0,.22-.02.43-.05.64h-5.44c.05.37.23.67.54.9s.68.34,1.12.34c.35,0,.67-.08.94-.23.27-.16.47-.36.61-.62l2.03.99c-.35.59-.85,1.07-1.48,1.43-.63.36-1.36.54-2.17.54-.61,0-1.18-.1-1.69-.3-.51-.2-.96-.48-1.33-.83-.37-.36-.66-.78-.87-1.26-.21-.49-.31-1.02-.31-1.6s.1-1.11.3-1.6.48-.91.83-1.26c.36-.36.79-.63,1.29-.83s1.05-.3,1.64-.3,1.14.1,1.64.3.93.48,1.29.83c.36.35.64.77.83,1.26s.3,1.02.3,1.6ZM604.29,411.77c-.38,0-.69.1-.96.31-.26.21-.42.47-.48.79h2.87c-.05-.32-.21-.58-.48-.79-.27-.21-.58-.31-.96-.31Z" style="fill: #fff;"/>
    <path d="M617.81,410.06v7.5h-2.39v-.65c-.3.28-.64.5-1.03.65-.38.16-.8.23-1.25.23-.56,0-1.08-.1-1.56-.31-.48-.21-.89-.49-1.25-.85-.35-.36-.63-.78-.83-1.27-.2-.49-.3-1.01-.3-1.57s.1-1.08.3-1.57c.2-.49.48-.91.83-1.27.35-.36.77-.64,1.25-.85s1-.31,1.56-.31c.45,0,.86.08,1.25.23s.73.37,1.03.65v-.64h2.39ZM613.58,415.52c.49,0,.89-.16,1.21-.48.32-.32.48-.73.48-1.23s-.16-.91-.48-1.23c-.32-.32-.72-.48-1.21-.48s-.89.16-1.21.48c-.32.32-.48.73-.48,1.23s.16.91.48,1.23c.32.32.72.48,1.21.48Z" style="fill: #fff;"/>
    <path d="M624.11,409.97c.26,0,.54.02.83.07v2.31c-.22-.07-.48-.11-.8-.11-.58,0-1.06.18-1.42.53-.18.17-.31.38-.41.63-.09.25-.14.58-.14,1v3.15h-2.62v-7.5h2.39v.9c.27-.32.59-.56.96-.73.37-.17.77-.25,1.21-.25Z" style="fill: #fff;"/>
  </g>
  <polygon points="605.25 428.63 601.52 433.92 597.78 428.63 605.25 428.63" style="fill: #4480be;"/>
  <rect x="718.85" y="375.12" width="31.25" height="75.77" transform="translate(1147.48 -321.47) rotate(90)" style="fill: #4480be;"/>
  <g>
    <path d="M714.66,406.25v8.83h3.85v2.48h-6.58v-11.31h2.73Z" style="fill: #fff;"/>
    <path d="M721.12,409.05c-.21,0-.4-.04-.58-.11-.18-.07-.33-.18-.47-.31s-.24-.28-.32-.45-.12-.36-.12-.56c0-.19.04-.37.12-.55s.19-.33.32-.46c.13-.13.29-.23.47-.31.18-.07.37-.11.58-.11.2,0,.39.04.57.11.18.08.34.18.47.31.13.13.24.28.32.46s.12.36.12.55c0,.2-.04.39-.12.56s-.19.32-.32.45-.29.23-.47.31c-.18.08-.37.11-.57.11ZM722.43,410.06v7.5h-2.62v-7.5h2.62Z" style="fill: #fff;"/>
    <path d="M726.56,410.06v.63c.25-.26.56-.47.93-.62.37-.15.79-.24,1.25-.25.46,0,.88.06,1.27.22s.73.37,1.02.65c.28.27.5.61.66,1.01.16.4.24.92.24,1.55v4.31h-2.62v-3.99c0-.32-.03-.57-.09-.74s-.15-.32-.26-.43c-.23-.22-.53-.33-.91-.33s-.68.11-.9.33c-.12.11-.2.25-.27.43s-.09.42-.09.74v3.99h-2.62v-7.5h2.39Z" style="fill: #fff;"/>
    <path d="M741.3,413.81c0,.22-.02.43-.05.64h-5.45c.05.37.23.67.54.9s.68.34,1.12.34c.35,0,.67-.08.94-.23.27-.16.47-.36.61-.62l2.03.99c-.35.59-.85,1.07-1.48,1.43-.63.36-1.36.54-2.17.54-.61,0-1.18-.1-1.69-.3-.51-.2-.96-.48-1.33-.83-.37-.36-.66-.78-.87-1.26-.21-.49-.31-1.02-.31-1.6s.1-1.11.3-1.6c.2-.49.48-.91.84-1.26.36-.36.79-.63,1.29-.83s1.05-.3,1.64-.3,1.14.1,1.64.3c.5.2.93.48,1.29.83.36.35.64.77.83,1.26s.3,1.02.3,1.6ZM737.24,411.77c-.37,0-.69.1-.96.31s-.42.47-.48.79h2.87c-.05-.32-.21-.58-.48-.79-.26-.21-.58-.31-.96-.31Z" style="fill: #fff;"/>
    <path d="M750.77,410.06v7.5h-2.39v-.65c-.3.28-.65.5-1.03.65-.38.16-.8.23-1.25.23-.56,0-1.08-.1-1.56-.31-.48-.21-.89-.49-1.25-.85-.35-.36-.63-.78-.83-1.27-.2-.49-.3-1.01-.3-1.57s.1-1.08.3-1.57c.2-.49.48-.91.83-1.27.35-.36.77-.64,1.25-.85s1-.31,1.56-.31c.45,0,.86.08,1.25.23.38.16.73.37,1.03.65v-.64h2.39ZM746.54,415.52c.49,0,.89-.16,1.21-.48.32-.32.48-.73.48-1.23s-.16-.91-.48-1.23c-.32-.32-.72-.48-1.21-.48s-.89.16-1.21.48c-.32.32-.48.73-.48,1.23s.16.91.48,1.23c.32.32.72.48,1.21.48Z" style="fill: #fff;"/>
    <path d="M757.07,409.97c.26,0,.54.02.83.07v2.31c-.22-.07-.48-.11-.8-.11-.58,0-1.06.18-1.42.53-.18.17-.31.38-.4.63-.09.25-.14.58-.14,1v3.15h-2.62v-7.5h2.39v.9c.27-.32.59-.56.96-.73s.77-.25,1.21-.25Z" style="fill: #fff;"/>
  </g>
  <g>
    <rect x="128.98" y="169.35" width="31.25" height="75.77" transform="translate(351.84 62.64) rotate(90)" style="fill: #66b718;"/>
    <g>
      <path d="M123.32,212.03c-.93,0-1.77-.17-2.53-.5-.76-.33-1.4-.78-1.93-1.35l1.89-1.8c.31.32.69.58,1.12.79.44.21.92.31,1.45.31.43,0,.78-.09,1.05-.26.28-.18.41-.42.41-.74,0-.17-.05-.32-.15-.44-.1-.12-.23-.24-.4-.35-.17-.1-.36-.2-.58-.29-.22-.08-.45-.17-.69-.26l-.78-.29c-.34-.12-.68-.27-1-.46s-.61-.4-.87-.66c-.25-.25-.46-.55-.61-.88s-.23-.72-.23-1.15c0-.48.1-.93.31-1.36s.49-.79.86-1.1c.36-.31.79-.56,1.29-.73.49-.18,1.03-.27,1.6-.27.74,0,1.42.11,2.04.34.62.23,1.17.55,1.64.95l-1.65,1.9c-.26-.21-.55-.38-.88-.52-.33-.13-.69-.2-1.08-.2s-.7.07-.94.22-.37.35-.37.62c0,.14.04.27.12.38.08.11.2.21.34.29.15.08.31.17.51.24.19.08.4.15.62.22l.69.24c.35.13.71.29,1.07.47s.68.41.98.68c.29.27.52.59.7.97.18.38.27.83.27,1.35s-.11,1-.33,1.45c-.22.44-.52.83-.9,1.15-.39.32-.84.57-1.36.76s-1.08.28-1.68.28Z" style="fill: #fff;"/>
      <path d="M128.21,202.96v-2.48h8.16v2.48h-2.71v8.83h-2.73v-8.83h-2.71Z" style="fill: #fff;"/>
      <path d="M140.54,204.54v7.25h-2.65v-11.31h2.96l5.18,7.21h.03v-7.21h2.65v11.31h-2.96l-5.18-7.25h-.03Z" style="fill: #fff;"/>
      <path d="M157.01,206.02c.47.29.83.66,1.1,1.1.27.44.4.93.4,1.46,0,.49-.1.94-.31,1.36-.21.42-.5.79-.87,1.1s-.81.55-1.31.73c-.5.17-1.05.26-1.63.26s-1.13-.09-1.63-.28-.94-.44-1.31-.76c-.37-.32-.66-.7-.87-1.14-.21-.44-.31-.92-.31-1.42h2.65c0,.38.14.7.41.96.27.26.62.39,1.06.39s.79-.13,1.06-.39c.27-.26.41-.58.41-.96s-.13-.69-.39-.95c-.14-.13-.3-.23-.51-.3-.2-.07-.47-.1-.8-.1h-.23v-2.01h.23c.3,0,.53-.03.69-.08.16-.05.29-.13.4-.23.21-.2.31-.45.31-.75s-.11-.56-.33-.76c-.22-.2-.5-.3-.84-.3s-.62.1-.84.3-.33.46-.33.76h-2.65c0-.47.1-.91.29-1.31.19-.4.46-.75.8-1.05.34-.29.75-.53,1.22-.7.47-.17.97-.25,1.51-.25s1.05.08,1.51.24.87.38,1.22.67c.34.28.61.62.8,1,.19.39.29.8.29,1.25s-.11.84-.32,1.21c-.21.37-.51.68-.88.95Z" style="fill: #fff;"/>
      <path d="M163.81,200.48c.99,0,1.85.15,2.59.44s1.37.69,1.9,1.2c.54.52.96,1.12,1.26,1.8.3.68.44,1.42.44,2.22s-.15,1.54-.44,2.22c-.3.68-.71,1.28-1.26,1.8-.53.51-1.17.91-1.9,1.2s-1.6.44-2.59.44h-3.56v-11.31h3.56ZM163.58,209.31c.63,0,1.16-.08,1.59-.24s.79-.38,1.09-.68c.29-.28.52-.61.69-1,.17-.38.25-.81.25-1.27s-.08-.88-.25-1.27-.4-.72-.69-1c-.3-.29-.67-.52-1.09-.68-.43-.16-.96-.24-1.59-.24h-.61v6.36h.61Z" style="fill: #fff;"/>
    </g>
  </g>
  <rect x="721.42" y="177.44" width="47.43" height="75.77" transform="translate(960.47 -529.81) rotate(90)" style="fill: #db5756;"/>
  <g>
    <path d="M732.48,198.71l2.11,6.04h.03l2.12-6.04h2.67l1.8,11.31h-2.61l-.99-6.72h-.03l-2.38,6.72h-1.26l-2.39-6.72h-.03l-.99,6.72h-2.52l1.8-11.31h2.67Z" style="fill: #fff;"/>
    <path d="M750.2,202.52v7.5h-2.29v-.65c-.29.28-.62.5-.99.65-.37.16-.77.23-1.2.23-.54,0-1.04-.1-1.5-.31-.46-.21-.86-.49-1.2-.85s-.61-.78-.8-1.27c-.2-.48-.29-1.01-.29-1.57s.1-1.08.29-1.57c.19-.48.46-.91.8-1.27s.74-.64,1.2-.85c.46-.2.96-.31,1.5-.31.43,0,.83.08,1.2.23.37.15.7.37.99.65v-.65h2.29ZM746.13,207.98c.47,0,.86-.16,1.16-.48.3-.32.46-.73.46-1.23s-.15-.91-.46-1.23c-.31-.32-.69-.48-1.16-.48s-.86.16-1.16.48c-.31.32-.46.73-.46,1.23s.15.91.46,1.23c.3.32.69.48,1.16.48Z" style="fill: #fff;"/>
    <path d="M755.34,208.07l-1.35,1.95h-2.92l2.82-3.84-2.7-3.66h2.98l1.2,1.74,1.2-1.74h2.92l-2.67,3.63,2.85,3.87h-2.98l-1.35-1.95Z" style="fill: #fff;"/>
    <path d="M722.89,216.71c.68,0,1.26.1,1.74.29.48.19.88.46,1.21.79.34.35.61.75.79,1.2.19.45.29.94.29,1.45s-.09,1.01-.29,1.46c-.19.45-.46.85-.79,1.2-.33.34-.73.6-1.21.79-.48.19-1.06.29-1.74.29h-1.24v3.84h-2.62v-11.31h3.87ZM722.52,221.86c.35,0,.62-.04.82-.11.19-.08.36-.17.49-.29.27-.25.4-.58.4-1.01s-.13-.75-.4-1c-.13-.12-.29-.22-.49-.29-.2-.07-.47-.11-.82-.11h-.87v2.82h.87Z" style="fill: #fff;"/>
    <path d="M731.4,228.26c-.6,0-1.16-.1-1.67-.31-.52-.21-.96-.49-1.33-.85s-.67-.78-.89-1.27c-.21-.48-.32-1.01-.32-1.57s.11-1.08.32-1.57.51-.91.89-1.27.82-.64,1.33-.85c.51-.2,1.07-.31,1.67-.31s1.16.1,1.67.31c.51.21.96.49,1.33.85s.67.78.88,1.27.32,1.01.32,1.57-.11,1.08-.32,1.57c-.21.49-.51.91-.88,1.27s-.82.64-1.33.85c-.52.2-1.07.31-1.67.31ZM731.4,225.98c.48,0,.87-.16,1.17-.49.3-.33.45-.73.45-1.22s-.15-.9-.45-1.22c-.3-.32-.69-.49-1.17-.49s-.87.16-1.17.49c-.3.33-.45.73-.45,1.22s.15.9.45,1.22c.3.32.69.49,1.17.49Z" style="fill: #fff;"/>
    <path d="M740.67,228.26c-.6,0-1.16-.1-1.67-.31-.52-.21-.96-.49-1.33-.85s-.67-.78-.89-1.27c-.21-.48-.32-1.01-.32-1.57s.11-1.08.32-1.57.51-.91.89-1.27.82-.64,1.33-.85c.51-.2,1.07-.31,1.67-.31s1.16.1,1.67.31c.51.21.96.49,1.33.85s.67.78.88,1.27.32,1.01.32,1.57-.11,1.08-.32,1.57c-.21.49-.51.91-.88,1.27s-.82.64-1.33.85c-.52.2-1.07.31-1.67.31ZM740.67,225.98c.48,0,.87-.16,1.17-.49.3-.33.45-.73.45-1.22s-.15-.9-.45-1.22c-.3-.32-.69-.49-1.17-.49s-.87.16-1.17.49c-.3.33-.45.73-.45,1.22s.15.9.45,1.22c.3.32.69.49,1.17.49Z" style="fill: #fff;"/>
    <path d="M748.66,216.35v11.67h-2.52v-11.67h2.52Z" style="fill: #fff;"/>
    <path d="M751.6,219.52c-.2,0-.38-.04-.55-.11-.17-.07-.32-.18-.45-.31s-.23-.28-.31-.45c-.07-.17-.11-.35-.11-.56,0-.19.04-.37.11-.55.08-.17.18-.33.31-.46.13-.13.28-.23.45-.31.17-.07.35-.11.55-.11s.37.04.55.11c.17.08.33.18.46.31.13.13.23.28.31.46.08.18.11.36.11.55,0,.2-.04.39-.11.56-.07.17-.18.32-.31.45-.13.13-.28.23-.46.31-.17.08-.36.11-.55.11ZM752.86,220.52v7.5h-2.52v-7.5h2.52Z" style="fill: #fff;"/>
    <path d="M756.84,220.52v.63c.24-.26.54-.47.89-.62.36-.15.76-.24,1.21-.25.44,0,.85.06,1.22.22.38.16.7.37.98.65.27.27.48.61.64,1.01.16.4.23.92.23,1.55v4.31h-2.52v-3.99c0-.32-.03-.57-.09-.74-.06-.17-.15-.32-.25-.43-.22-.22-.51-.33-.87-.33s-.65.11-.87.33c-.11.11-.2.25-.25.43-.06.17-.09.42-.09.74v3.99h-2.52v-7.5h2.29Z" style="fill: #fff;"/>
    <path d="M771.51,220.52v7.58c0,.69-.1,1.27-.31,1.75-.21.48-.48.87-.83,1.19-.35.33-.77.58-1.25.76-.49.18-1.01.27-1.58.27s-1.08-.08-1.56-.25c-.48-.17-.9-.4-1.25-.71-.35-.3-.63-.65-.84-1.06-.21-.41-.31-.84-.32-1.3h2.43c.04.31.2.56.47.77.27.2.63.3,1.07.3.51,0,.9-.15,1.17-.43.12-.12.21-.28.28-.47.07-.2.1-.48.1-.86v-.55c-.28.24-.59.43-.94.56-.35.13-.73.2-1.12.2-.54,0-1.04-.1-1.5-.31-.46-.21-.86-.49-1.2-.85-.34-.36-.61-.78-.8-1.27-.2-.48-.29-1.01-.29-1.57s.1-1.08.29-1.57.46-.91.8-1.27c.34-.36.74-.64,1.2-.85.46-.2.96-.31,1.5-.31.44,0,.84.08,1.21.23.37.15.7.38.99.67v-.66h2.3ZM767.43,225.98c.47,0,.86-.16,1.16-.48.3-.32.46-.73.46-1.23s-.15-.91-.46-1.23c-.3-.32-.69-.48-1.16-.48s-.86.16-1.16.48c-.3.32-.46.73-.46,1.23s.15.91.46,1.23c.3.32.69.48,1.16.48Z" style="fill: #fff;"/>
  </g>
  <rect x="292.75" y="255.42" width="31.25" height="75.77" transform="translate(601.69 -15.07) rotate(90)" style="fill: #7a42f4;"/>
  <g>
    <path d="M293.8,293.23v4.63h-2.62v-11.31h3.87c.68,0,1.26.09,1.74.28.48.19.89.46,1.23.79s.59.72.78,1.17c.19.45.29.93.29,1.44,0,.76-.21,1.44-.62,2.04-.42.6-.98,1.04-1.69,1.32l2.79,4.26h-2.9l-2.87-4.63ZM293.8,291.7h.87c.35,0,.62-.04.82-.1.19-.07.36-.17.49-.3.27-.27.4-.6.4-1s-.14-.73-.4-1c-.13-.13-.29-.23-.49-.3s-.47-.11-.82-.11h-.87v2.82Z" style="fill: #fff;"/>
    <path d="M307.56,294.11c0,.22-.01.43-.04.64h-5.23c.05.37.22.67.52.9.29.23.65.34,1.07.34.34,0,.64-.08.9-.23.26-.15.46-.36.58-.62l1.95.99c-.34.59-.81,1.06-1.42,1.42-.61.36-1.31.54-2.08.54-.59,0-1.13-.1-1.63-.3-.49-.2-.92-.48-1.27-.83-.35-.35-.63-.77-.83-1.26s-.3-1.02-.3-1.6.09-1.11.29-1.6c.19-.48.46-.9.8-1.26.35-.35.76-.63,1.24-.83.48-.2,1.01-.3,1.58-.3s1.1.1,1.58.3c.48.2.89.48,1.24.83.35.36.61.78.8,1.26.19.49.28,1.02.28,1.6ZM303.66,292.07c-.36,0-.67.1-.92.31s-.41.47-.46.79h2.76c-.05-.32-.2-.58-.46-.79-.25-.21-.56-.31-.92-.31Z" style="fill: #fff;"/>
    <path d="M311.65,286.55v8.83h3.71v2.47h-6.33v-11.31h2.62Z" style="fill: #fff;"/>
    <path d="M321.03,298.1c-.72,0-1.38-.12-1.99-.37-.6-.24-1.12-.58-1.54-1-.36-.36-.64-.78-.84-1.27-.2-.48-.3-1.06-.3-1.73v-7.18h2.62v6.81c0,.42.05.75.14.99s.22.45.39.62c.18.18.4.32.65.43.25.11.54.16.86.16s.61-.05.86-.16c.25-.1.47-.25.65-.43.17-.17.3-.38.39-.62.09-.24.13-.57.13-.99v-6.81h2.62v7.18c0,.67-.1,1.25-.3,1.73-.2.49-.48.91-.84,1.27-.42.42-.93.75-1.54,1-.61.25-1.27.37-1.99.37Z" style="fill: #fff;"/>
  </g>
  <rect x="284.66" y="212.39" width="47.43" height="75.77" transform="translate(558.65 -58.1) rotate(90)" style="fill: #15ba93;"/>
  <rect x="292.75" y="169.35" width="31.25" height="75.77" transform="translate(515.61 -101.14) rotate(90)" style="fill: #4480be;"/>
  <g>
    <path d="M287.37,212.03c-.86,0-1.67-.15-2.42-.46-.75-.31-1.4-.72-1.94-1.25-.55-.53-.97-1.15-1.29-1.87s-.47-1.49-.47-2.32.16-1.59.47-2.31c.31-.72.74-1.35,1.29-1.88.55-.53,1.19-.95,1.94-1.25.75-.31,1.55-.46,2.42-.46.95,0,1.82.2,2.62.6v2.78c-.33-.26-.7-.46-1.12-.61-.41-.14-.86-.22-1.35-.22s-.96.08-1.38.25c-.42.17-.79.4-1.1.7s-.55.65-.73,1.06c-.17.41-.26.86-.26,1.34s.09.92.26,1.33c.17.41.41.76.73,1.06.31.3.68.53,1.1.7.42.17.88.25,1.38.25s.94-.07,1.35-.22.78-.35,1.12-.61v2.77c-.8.4-1.67.6-2.62.6Z" style="fill: #fff;"/>
    <path d="M295.41,212.03c-.62,0-1.2-.1-1.74-.31-.54-.21-1-.49-1.39-.85-.39-.36-.7-.78-.92-1.27-.22-.48-.33-1.01-.33-1.57s.11-1.08.33-1.57.53-.91.92-1.27c.39-.36.85-.64,1.39-.85.54-.2,1.12-.31,1.74-.31s1.2.1,1.74.31c.54.21,1,.49,1.39.85.39.36.7.78.92,1.27.22.48.33,1.01.33,1.57s-.11,1.08-.33,1.57c-.22.49-.53.91-.92,1.27-.39.36-.85.64-1.39.85-.54.2-1.12.31-1.74.31ZM295.41,209.75c.5,0,.9-.16,1.22-.49.31-.33.47-.73.47-1.22s-.16-.9-.47-1.22c-.31-.32-.72-.49-1.22-.49s-.9.16-1.22.49c-.31.33-.47.73-.47,1.22s.16.9.47,1.22c.31.32.72.49,1.22.49Z" style="fill: #fff;"/>
    <path d="M303.49,204.29v.63c.25-.26.56-.47.93-.62.37-.15.79-.24,1.26-.25.46,0,.88.06,1.27.22.39.16.73.37,1.02.65.28.27.5.61.66,1.01.16.4.24.92.24,1.55v4.31h-2.62v-3.99c0-.32-.03-.57-.09-.74-.06-.17-.15-.32-.27-.43-.23-.22-.53-.33-.9-.33s-.68.11-.9.33c-.11.11-.2.25-.27.43-.06.17-.09.42-.09.74v3.99h-2.62v-7.5h2.39Z" style="fill: #fff;"/>
    <path d="M312.14,204.29l1.87,4.04h.03l1.89-4.04h2.75l-3.67,7.5h-2.06l-3.65-7.5h2.84Z" style="fill: #fff;"/>
    <path d="M319.16,203.24v-2.31h4.29v10.86h-2.65v-8.55h-1.64Z" style="fill: #fff;"/>
    <path d="M329.29,200.48c.99,0,1.85.15,2.59.44s1.37.69,1.9,1.2c.54.52.96,1.12,1.26,1.8.3.68.44,1.42.44,2.22s-.15,1.54-.44,2.22c-.3.68-.71,1.28-1.26,1.8-.53.51-1.17.91-1.9,1.2s-1.6.44-2.59.44h-3.56v-11.31h3.56ZM329.06,209.31c.63,0,1.16-.08,1.59-.24s.79-.38,1.09-.68c.29-.28.52-.61.69-1,.17-.38.25-.81.25-1.27s-.08-.88-.25-1.27-.4-.72-.69-1c-.3-.29-.67-.52-1.09-.68-.43-.16-.96-.24-1.59-.24h-.61v6.36h.61Z" style="fill: #fff;"/>
  </g>
  <g>
    <path d="M294.09,239.54c.46.3.82.69,1.09,1.16.26.47.4.99.4,1.56-.01.5-.1.97-.29,1.4-.18.44-.43.81-.75,1.13-.32.32-.71.57-1.16.76-.46.18-1.01.28-1.67.28h-4.17v-11.31h4.05c.57,0,1.05.08,1.44.23.39.16.72.37.99.64.27.27.48.59.65.95.16.37.23.76.23,1.18,0,.39-.07.76-.21,1.11-.14.35-.34.66-.58.92ZM290.83,238.87c.3,0,.53-.03.68-.08.16-.05.28-.13.37-.22.2-.2.3-.45.3-.75,0-.15-.03-.29-.08-.42-.05-.13-.13-.24-.22-.33s-.21-.16-.37-.22c-.15-.05-.38-.08-.68-.08h-.68v2.1h.68ZM292.5,243.2c.25-.23.38-.54.38-.93s-.12-.7-.38-.93c-.12-.11-.27-.2-.45-.27-.18-.07-.44-.11-.78-.11h-1.11v2.61h1.11c.34,0,.6-.04.78-.11.18-.07.33-.16.45-.27Z" style="fill: #fff;"/>
    <path d="M304.71,238.33v7.5h-2.3v-.64c-.29.28-.62.5-.99.65-.37.15-.77.23-1.2.23-.54,0-1.04-.1-1.5-.31s-.86-.49-1.2-.85c-.34-.36-.61-.78-.8-1.27-.19-.48-.29-1.01-.29-1.57s.1-1.08.29-1.57c.2-.49.46-.91.8-1.27.34-.36.74-.64,1.2-.85s.96-.31,1.5-.31c.43,0,.83.08,1.2.23.37.16.7.37.99.65v-.64h2.3ZM300.64,243.79c.47,0,.86-.16,1.16-.48.31-.32.46-.73.46-1.23s-.15-.91-.46-1.23c-.31-.32-.69-.48-1.16-.48s-.86.16-1.16.48c-.31.32-.46.73-.46,1.23s.15.91.46,1.23c.3.32.69.48,1.16.48Z" style="fill: #fff;"/>
    <path d="M305.88,240.35v-2.03h1.42v-2.55h2.52v2.55h1.68v2.03h-1.68v5.47h-2.52v-5.47h-1.42Z" style="fill: #fff;"/>
    <path d="M316.32,243.79c.26,0,.5-.04.73-.13.22-.08.42-.2.59-.35v2.43c-.52.22-1.06.33-1.62.33s-1.12-.1-1.61-.31-.93-.49-1.29-.85c-.37-.36-.65-.78-.85-1.27-.21-.48-.31-1.01-.31-1.57s.1-1.08.31-1.57c.2-.49.49-.91.85-1.27.36-.36.79-.64,1.29-.85s1.03-.31,1.61-.31,1.1.11,1.62.33v2.43c-.17-.15-.37-.27-.59-.35-.23-.08-.47-.13-.73-.13-.52,0-.95.16-1.28.49-.33.33-.49.73-.49,1.22s.17.9.49,1.22c.33.33.76.49,1.28.49Z" style="fill: #fff;"/>
    <path d="M325.68,238.96c.27.27.48.61.64,1.01.15.41.23.92.23,1.55v4.3h-2.52v-3.99c0-.32-.03-.57-.09-.74-.06-.17-.15-.32-.26-.43-.22-.22-.51-.33-.87-.33s-.65.11-.87.33c-.11.11-.2.25-.25.43-.06.17-.09.42-.09.74v3.99h-2.52v-11.67h2.52v4.59c.23-.2.5-.36.83-.47.32-.11.67-.18,1.05-.19.44,0,.85.06,1.22.22s.7.37.98.65Z" style="fill: #fff;"/>
    <path d="M291.22,256.58v7.25h-2.55v-11.31h2.85l4.98,7.21h.03v-7.21h2.55v11.31h-2.85l-4.98-7.25h-.03Z" style="fill: #fff;"/>
    <path d="M304.61,264.07c-.6,0-1.16-.1-1.67-.31s-.96-.49-1.33-.85-.67-.78-.88-1.27c-.22-.48-.32-1.01-.32-1.57s.11-1.08.32-1.57c.21-.49.51-.91.88-1.27s.82-.64,1.33-.85,1.07-.31,1.67-.31,1.16.1,1.67.31c.51.21.96.49,1.33.85s.67.78.88,1.27.32,1.01.32,1.57-.11,1.08-.32,1.57c-.21.49-.51.91-.88,1.27s-.82.64-1.33.85c-.52.21-1.07.31-1.67.31ZM304.61,261.79c.48,0,.87-.16,1.17-.49.3-.33.45-.73.45-1.22s-.15-.9-.45-1.22c-.3-.32-.69-.49-1.17-.49s-.87.16-1.17.49c-.3.33-.45.73-.45,1.22s.15.9.45,1.22c.3.33.69.49,1.17.49Z" style="fill: #fff;"/>
    <path d="M314.47,256.24c.25,0,.51.03.79.08v2.31c-.21-.07-.47-.1-.77-.1-.56,0-1.02.17-1.37.52-.17.17-.3.38-.39.63-.09.25-.14.58-.14,1v3.15h-2.52v-7.5h2.29v.9c.26-.32.57-.57.92-.74.35-.17.74-.25,1.16-.25Z" style="fill: #fff;"/>
    <path d="M316.33,256.33h2.29v.58c.23-.26.52-.46.86-.61.34-.14.73-.22,1.15-.22.48,0,.92.09,1.31.27.39.18.72.43.99.75.29-.32.65-.57,1.06-.75.42-.18.89-.27,1.41-.27.43,0,.83.07,1.19.22.36.15.67.35.94.62.27.27.48.6.63,1,.15.39.23.9.23,1.51v4.39h-2.52v-4.09c0-.3-.03-.53-.08-.69s-.13-.29-.23-.39c-.21-.21-.48-.32-.81-.32s-.6.11-.81.32c-.1.1-.18.23-.23.39s-.08.39-.08.69v4.09h-2.52v-4.09c0-.3-.03-.53-.08-.69-.05-.16-.13-.29-.23-.39-.21-.21-.48-.32-.81-.32s-.6.11-.81.32c-.1.1-.18.23-.23.39s-.08.39-.08.69v4.09h-2.52v-7.5Z" style="fill: #fff;"/>
  </g>
  <polygon points="312.11 273.99 308.38 279.28 304.64 273.99 312.11 273.99" style="fill: #15ba93;"/>
  <polygon points="312.11 222.86 308.38 228.15 304.64 222.86 312.11 222.86" style="fill: #4480be;"/>
  <rect x="438.34" y="255.42" width="31.25" height="75.77" transform="translate(747.27 -160.65) rotate(90)" style="fill: #7a42f4;"/>
  <g>
    <path d="M439.39,293.23v4.63h-2.62v-11.31h3.87c.68,0,1.26.09,1.74.28.48.19.89.46,1.23.79s.59.72.78,1.17c.19.45.29.93.29,1.44,0,.76-.21,1.44-.62,2.04s-.98,1.04-1.69,1.32l2.79,4.26h-2.89l-2.87-4.63ZM439.39,291.7h.87c.35,0,.62-.04.82-.1.19-.07.36-.17.49-.3.27-.27.41-.6.41-1s-.14-.73-.41-1c-.13-.13-.29-.23-.49-.3-.2-.07-.47-.11-.82-.11h-.87v2.82Z" style="fill: #fff;"/>
    <path d="M453.15,294.11c0,.22-.01.43-.04.64h-5.24c.05.37.22.67.52.9.29.23.65.34,1.07.34.34,0,.64-.08.9-.23.26-.15.46-.36.58-.62l1.95.99c-.34.59-.82,1.06-1.42,1.42-.61.36-1.31.54-2.08.54-.59,0-1.13-.1-1.63-.3-.5-.2-.92-.48-1.28-.83s-.63-.77-.83-1.26-.3-1.02-.3-1.6.09-1.11.29-1.6c.19-.48.46-.9.8-1.26.35-.35.76-.63,1.24-.83.48-.2,1.01-.3,1.58-.3s1.1.1,1.58.3c.48.2.89.48,1.24.83.35.36.61.78.8,1.26.19.49.29,1.02.29,1.6ZM449.25,292.07c-.36,0-.67.1-.92.31s-.41.47-.46.79h2.76c-.05-.32-.2-.58-.46-.79s-.56-.31-.92-.31Z" style="fill: #fff;"/>
    <path d="M457.24,286.55v8.83h3.71v2.47h-6.33v-11.31h2.62Z" style="fill: #fff;"/>
    <path d="M466.62,298.1c-.72,0-1.38-.12-1.99-.37-.61-.24-1.12-.58-1.54-1-.36-.36-.64-.78-.84-1.27-.2-.48-.3-1.06-.3-1.73v-7.18h2.62v6.81c0,.42.04.75.13.99s.22.45.39.62c.18.18.4.32.65.43.25.11.54.16.86.16s.61-.05.86-.16c.25-.1.47-.25.65-.43.17-.17.3-.38.39-.62.09-.24.13-.57.13-.99v-6.81h2.62v7.18c0,.67-.1,1.25-.3,1.73-.2.49-.48.91-.84,1.27-.42.42-.93.75-1.54,1-.61.25-1.27.37-1.99.37Z" style="fill: #fff;"/>
  </g>
  <rect x="430.25" y="212.39" width="47.43" height="75.77" transform="translate(704.24 -203.69) rotate(90)" style="fill: #15ba93;"/>
  <rect x="438.34" y="169.35" width="31.25" height="75.77" transform="translate(661.2 -246.73) rotate(90)" style="fill: #4480be;"/>
  <g>
    <path d="M432.95,212.03c-.86,0-1.67-.15-2.42-.46-.75-.31-1.4-.72-1.94-1.25-.55-.53-.97-1.15-1.29-1.87-.31-.71-.47-1.49-.47-2.32s.16-1.59.47-2.31c.31-.72.74-1.35,1.29-1.88.55-.53,1.19-.95,1.94-1.25s1.55-.46,2.42-.46c.95,0,1.82.2,2.62.6v2.78c-.33-.26-.7-.46-1.12-.61-.41-.14-.86-.22-1.35-.22s-.96.08-1.38.25c-.42.17-.79.4-1.1.7-.31.29-.55.65-.73,1.06-.17.41-.26.86-.26,1.34s.08.92.26,1.33.41.76.73,1.06c.31.3.68.53,1.1.7s.88.25,1.38.25.94-.07,1.35-.22c.41-.15.78-.35,1.12-.61v2.77c-.8.4-1.67.6-2.62.6Z" style="fill: #fff;"/>
    <path d="M441,212.03c-.62,0-1.2-.1-1.74-.31-.54-.21-1-.49-1.39-.85-.39-.36-.7-.78-.92-1.27-.22-.48-.33-1.01-.33-1.57s.11-1.08.33-1.57.53-.91.92-1.27c.39-.36.85-.64,1.39-.85.54-.2,1.12-.31,1.74-.31s1.2.1,1.74.31c.54.21,1,.49,1.39.85.39.36.7.78.92,1.27s.33,1.01.33,1.57-.11,1.08-.33,1.57c-.22.49-.53.91-.92,1.27-.39.36-.85.64-1.39.85-.54.2-1.12.31-1.74.31ZM441,209.75c.5,0,.9-.16,1.22-.49.31-.33.47-.73.47-1.22s-.16-.9-.47-1.22c-.31-.32-.72-.49-1.22-.49s-.9.16-1.22.49c-.31.33-.47.73-.47,1.22s.16.9.47,1.22c.31.32.72.49,1.22.49Z" style="fill: #fff;"/>
    <path d="M449.08,204.29v.63c.25-.26.56-.47.93-.62.37-.15.79-.24,1.25-.25.46,0,.88.06,1.27.22.39.16.73.37,1.02.65.28.27.5.61.66,1.01.16.4.24.92.24,1.55v4.31h-2.62v-3.99c0-.32-.03-.57-.09-.74-.06-.17-.15-.32-.27-.43-.23-.22-.53-.33-.9-.33s-.68.11-.91.33c-.11.11-.2.25-.26.43-.06.17-.09.42-.09.74v3.99h-2.62v-7.5h2.39Z" style="fill: #fff;"/>
    <path d="M457.72,204.29l1.87,4.04h.03l1.89-4.04h2.75l-3.67,7.5h-2.06l-3.65-7.5h2.84Z" style="fill: #fff;"/>
    <path d="M464.74,203.24v-2.31h4.29v10.86h-2.65v-8.55h-1.64Z" style="fill: #fff;"/>
    <path d="M474.88,200.48c.99,0,1.85.15,2.59.44s1.37.69,1.9,1.2c.54.52.96,1.12,1.25,1.8.3.68.45,1.42.45,2.22s-.15,1.54-.45,2.22c-.3.68-.71,1.28-1.25,1.8-.53.51-1.17.91-1.9,1.2s-1.6.44-2.59.44h-3.56v-11.31h3.56ZM474.65,209.31c.63,0,1.16-.08,1.59-.24.43-.16.79-.38,1.09-.68.29-.28.52-.61.69-1,.17-.38.25-.81.25-1.27s-.08-.88-.25-1.27c-.17-.38-.4-.72-.69-1-.3-.29-.67-.52-1.09-.68-.43-.16-.96-.24-1.59-.24h-.61v6.36h.61Z" style="fill: #fff;"/>
  </g>
  <g>
    <path d="M439.68,239.54c.46.3.82.69,1.09,1.16.26.47.4.99.4,1.56-.01.5-.1.97-.29,1.4-.18.44-.43.81-.75,1.13-.32.32-.71.57-1.16.76-.46.18-1.01.28-1.67.28h-4.17v-11.31h4.05c.57,0,1.05.08,1.44.23.39.16.72.37.99.64.27.27.48.59.64.95s.23.76.22,1.18c0,.39-.07.76-.21,1.11-.14.35-.34.66-.59.92ZM436.42,238.87c.3,0,.53-.03.68-.08.16-.05.28-.13.37-.22.2-.2.3-.45.3-.75,0-.15-.03-.29-.08-.42-.05-.13-.13-.24-.22-.33s-.21-.16-.37-.22c-.15-.05-.38-.08-.68-.08h-.68v2.1h.68ZM438.09,243.2c.25-.23.38-.54.38-.93s-.12-.7-.38-.93c-.12-.11-.27-.2-.45-.27-.18-.07-.44-.11-.78-.11h-1.11v2.61h1.11c.34,0,.6-.04.78-.11.18-.07.33-.16.45-.27Z" style="fill: #fff;"/>
    <path d="M450.3,238.33v7.5h-2.3v-.64c-.29.28-.62.5-.99.65-.37.15-.77.23-1.2.23-.54,0-1.04-.1-1.5-.31-.46-.21-.86-.49-1.2-.85s-.61-.78-.8-1.27c-.2-.48-.29-1.01-.29-1.57s.1-1.08.29-1.57.46-.91.8-1.27.74-.64,1.2-.85c.46-.21.96-.31,1.5-.31.43,0,.83.08,1.2.23.37.16.7.37.99.65v-.64h2.3ZM446.23,243.79c.47,0,.86-.16,1.16-.48.31-.32.46-.73.46-1.23s-.15-.91-.46-1.23c-.31-.32-.69-.48-1.16-.48s-.86.16-1.16.48c-.3.32-.46.73-.46,1.23s.15.91.46,1.23c.3.32.69.48,1.16.48Z" style="fill: #fff;"/>
    <path d="M451.47,240.35v-2.03h1.42v-2.55h2.52v2.55h1.68v2.03h-1.68v5.47h-2.52v-5.47h-1.42Z" style="fill: #fff;"/>
    <path d="M461.91,243.79c.26,0,.5-.04.73-.13.22-.08.42-.2.59-.35v2.43c-.52.22-1.06.33-1.62.33s-1.12-.1-1.61-.31-.92-.49-1.29-.85-.65-.78-.86-1.27c-.21-.48-.31-1.01-.31-1.57s.1-1.08.31-1.57.49-.91.86-1.27.79-.64,1.29-.85,1.03-.31,1.61-.31,1.1.11,1.62.33v2.43c-.17-.15-.37-.27-.59-.35s-.47-.13-.73-.13c-.52,0-.95.16-1.28.49-.33.33-.5.73-.5,1.22s.17.9.5,1.22.75.49,1.28.49Z" style="fill: #fff;"/>
    <path d="M471.27,238.96c.27.27.48.61.64,1.01s.23.92.23,1.55v4.3h-2.52v-3.99c0-.32-.03-.57-.09-.74-.06-.17-.14-.32-.25-.43-.22-.22-.51-.33-.87-.33s-.65.11-.87.33c-.11.11-.2.25-.26.43-.06.17-.09.42-.09.74v3.99h-2.52v-11.67h2.52v4.59c.23-.2.5-.36.83-.47.32-.11.67-.18,1.05-.19.44,0,.85.06,1.22.22s.7.37.98.65Z" style="fill: #fff;"/>
    <path d="M436.8,256.58v7.25h-2.55v-11.31h2.85l4.98,7.21h.03v-7.21h2.55v11.31h-2.85l-4.98-7.25h-.03Z" style="fill: #fff;"/>
    <path d="M450.2,264.07c-.6,0-1.16-.1-1.67-.31-.51-.21-.96-.49-1.33-.85s-.67-.78-.88-1.27c-.22-.48-.32-1.01-.32-1.57s.11-1.08.32-1.57c.21-.49.51-.91.88-1.27s.82-.64,1.33-.85c.52-.21,1.07-.31,1.67-.31s1.16.1,1.67.31c.51.21.96.49,1.33.85s.67.78.88,1.27.32,1.01.32,1.57-.11,1.08-.32,1.57c-.21.49-.51.91-.88,1.27s-.82.64-1.33.85c-.52.21-1.07.31-1.67.31ZM450.2,261.79c.48,0,.87-.16,1.17-.49.3-.33.45-.73.45-1.22s-.15-.9-.45-1.22c-.3-.32-.69-.49-1.17-.49s-.87.16-1.17.49c-.3.33-.45.73-.45,1.22s.15.9.45,1.22.69.49,1.17.49Z" style="fill: #fff;"/>
    <path d="M460.05,256.24c.25,0,.51.03.79.08v2.31c-.21-.07-.47-.1-.76-.1-.56,0-1.02.17-1.37.52-.17.17-.3.38-.39.63s-.13.58-.13,1v3.15h-2.52v-7.5h2.29v.9c.26-.32.57-.57.92-.74.36-.17.74-.25,1.16-.25Z" style="fill: #fff;"/>
    <path d="M461.91,256.33h2.29v.58c.23-.26.52-.46.86-.61.35-.14.73-.22,1.15-.22.48,0,.91.09,1.3.27.39.18.72.43.99.75.29-.32.64-.57,1.06-.75.42-.18.89-.27,1.41-.27.43,0,.83.07,1.19.22.36.15.67.35.94.62.27.27.48.6.63,1,.15.39.22.9.22,1.51v4.39h-2.52v-4.09c0-.3-.03-.53-.08-.69-.06-.16-.13-.29-.23-.39-.21-.21-.48-.32-.81-.32s-.6.11-.81.32c-.1.1-.18.23-.23.39-.05.16-.08.39-.08.69v4.09h-2.52v-4.09c0-.3-.03-.53-.08-.69-.05-.16-.13-.29-.23-.39-.21-.21-.48-.32-.81-.32s-.6.11-.81.32c-.1.1-.18.23-.23.39s-.08.39-.08.69v4.09h-2.52v-7.5Z" style="fill: #fff;"/>
  </g>
  <polygon points="457.7 273.99 453.96 279.28 450.23 273.99 457.7 273.99" style="fill: #15ba93;"/>
  <polygon points="457.7 222.86 453.96 228.15 450.23 222.86 457.7 222.86" style="fill: #4480be;"/>
  <rect x="575.83" y="212.39" width="47.43" height="75.77" transform="translate(849.82 -349.28) rotate(90)" style="fill: #15ba93;"/>
  <rect x="583.93" y="169.35" width="31.25" height="75.77" transform="translate(806.79 -392.31) rotate(90)" style="fill: #4480be;"/>
  <g>
    <path d="M578.54,212.03c-.86,0-1.67-.15-2.42-.46-.75-.31-1.4-.72-1.94-1.25-.55-.53-.97-1.15-1.29-1.87-.31-.71-.47-1.49-.47-2.32s.16-1.59.47-2.31c.31-.72.74-1.35,1.29-1.88.55-.53,1.19-.95,1.94-1.25s1.55-.46,2.42-.46c.95,0,1.82.2,2.62.6v2.78c-.33-.26-.7-.46-1.12-.61-.41-.14-.86-.22-1.35-.22s-.96.08-1.38.25c-.42.17-.79.4-1.1.7-.31.29-.55.65-.73,1.06-.17.41-.26.86-.26,1.34s.08.92.26,1.33.41.76.73,1.06c.31.3.68.53,1.1.7s.88.25,1.38.25.94-.07,1.35-.22c.41-.15.78-.35,1.12-.61v2.77c-.8.4-1.67.6-2.62.6Z" style="fill: #fff;"/>
    <path d="M586.59,212.03c-.62,0-1.2-.1-1.74-.31-.54-.21-1-.49-1.39-.85-.39-.36-.7-.78-.92-1.27-.22-.48-.33-1.01-.33-1.57s.11-1.08.33-1.57.53-.91.92-1.27c.39-.36.85-.64,1.39-.85.54-.2,1.12-.31,1.74-.31s1.2.1,1.74.31c.54.21,1,.49,1.39.85.39.36.7.78.92,1.27s.33,1.01.33,1.57-.11,1.08-.33,1.57c-.22.49-.53.91-.92,1.27-.39.36-.85.64-1.39.85-.54.2-1.12.31-1.74.31ZM586.59,209.75c.5,0,.9-.16,1.22-.49.31-.33.47-.73.47-1.22s-.16-.9-.47-1.22c-.31-.32-.72-.49-1.22-.49s-.9.16-1.22.49c-.31.33-.47.73-.47,1.22s.16.9.47,1.22c.31.32.72.49,1.22.49Z" style="fill: #fff;"/>
    <path d="M594.67,204.29v.63c.25-.26.56-.47.93-.62.37-.15.79-.24,1.25-.25.46,0,.88.06,1.27.22.39.16.73.37,1.02.65.28.27.5.61.66,1.01.16.4.24.92.24,1.55v4.31h-2.62v-3.99c0-.32-.03-.57-.09-.74-.06-.17-.15-.32-.27-.43-.23-.22-.53-.33-.9-.33s-.68.11-.91.33c-.11.11-.2.25-.26.43-.06.17-.09.42-.09.74v3.99h-2.62v-7.5h2.39Z" style="fill: #fff;"/>
    <path d="M603.31,204.29l1.87,4.04h.03l1.89-4.04h2.75l-3.67,7.5h-2.06l-3.65-7.5h2.84Z" style="fill: #fff;"/>
    <path d="M610.33,203.24v-2.31h4.29v10.86h-2.65v-8.55h-1.64Z" style="fill: #fff;"/>
    <path d="M620.47,200.48c.99,0,1.85.15,2.59.44s1.37.69,1.9,1.2c.54.52.96,1.12,1.25,1.8.3.68.45,1.42.45,2.22s-.15,1.54-.45,2.22c-.3.68-.71,1.28-1.25,1.8-.53.51-1.17.91-1.9,1.2s-1.6.44-2.59.44h-3.56v-11.31h3.56ZM620.23,209.31c.63,0,1.16-.08,1.59-.24.43-.16.79-.38,1.09-.68.29-.28.52-.61.69-1,.17-.38.25-.81.25-1.27s-.08-.88-.25-1.27c-.17-.38-.4-.72-.69-1-.3-.29-.67-.52-1.09-.68-.43-.16-.96-.24-1.59-.24h-.61v6.36h.61Z" style="fill: #fff;"/>
  </g>
  <g>
    <path d="M585.26,239.54c.46.3.82.69,1.09,1.16.26.47.4.99.4,1.56-.01.5-.11.97-.29,1.4-.18.44-.43.81-.75,1.13-.32.32-.71.57-1.16.76-.46.18-1.01.28-1.67.28h-4.17v-11.31h4.05c.57,0,1.05.08,1.44.23.39.16.72.37.99.64s.49.59.65.95c.16.37.23.76.22,1.18,0,.39-.07.76-.21,1.11-.14.35-.33.66-.58.92ZM582.01,238.87c.3,0,.53-.03.68-.08.16-.05.28-.13.37-.22.2-.2.3-.45.3-.75,0-.15-.03-.29-.08-.42s-.13-.24-.22-.33-.21-.16-.37-.22-.38-.08-.68-.08h-.67v2.1h.67ZM583.67,243.2c.25-.23.38-.54.38-.93s-.12-.7-.38-.93c-.12-.11-.27-.2-.45-.27s-.44-.11-.78-.11h-1.11v2.61h1.11c.34,0,.6-.04.78-.11.18-.07.33-.16.45-.27Z" style="fill: #fff;"/>
    <path d="M595.88,238.33v7.5h-2.29v-.64c-.29.28-.62.5-.99.65-.37.15-.77.23-1.2.23-.54,0-1.04-.1-1.5-.31s-.86-.49-1.2-.85c-.34-.36-.61-.78-.8-1.27-.2-.48-.29-1.01-.29-1.57s.1-1.08.29-1.57.46-.91.8-1.27c.34-.36.74-.64,1.2-.85s.96-.31,1.5-.31c.43,0,.83.08,1.2.23.37.16.7.37.99.65v-.64h2.29ZM591.82,243.79c.47,0,.86-.16,1.16-.48.3-.32.46-.73.46-1.23s-.15-.91-.46-1.23c-.31-.32-.69-.48-1.16-.48s-.86.16-1.16.48c-.3.32-.46.73-.46,1.23s.15.91.46,1.23c.3.32.69.48,1.16.48Z" style="fill: #fff;"/>
    <path d="M597.05,240.35v-2.03h1.42v-2.55h2.52v2.55h1.68v2.03h-1.68v5.47h-2.52v-5.47h-1.42Z" style="fill: #fff;"/>
    <path d="M607.49,243.79c.26,0,.5-.04.73-.13.22-.08.42-.2.59-.35v2.43c-.52.22-1.06.33-1.62.33s-1.12-.1-1.61-.31-.93-.49-1.29-.85c-.37-.36-.65-.78-.86-1.27-.21-.48-.31-1.01-.31-1.57s.1-1.08.31-1.57.49-.91.86-1.27c.36-.36.79-.64,1.29-.85s1.03-.31,1.61-.31,1.1.11,1.62.33v2.43c-.17-.15-.37-.27-.59-.35s-.47-.13-.73-.13c-.52,0-.95.16-1.28.49-.33.33-.49.73-.49,1.22s.17.9.49,1.22c.33.33.76.49,1.28.49Z" style="fill: #fff;"/>
    <path d="M616.85,238.96c.27.27.48.61.64,1.01.15.41.23.92.23,1.55v4.3h-2.52v-3.99c0-.32-.03-.57-.09-.74s-.15-.32-.25-.43c-.22-.22-.51-.33-.87-.33s-.65.11-.87.33c-.11.11-.2.25-.25.43s-.09.42-.09.74v3.99h-2.52v-11.67h2.52v4.59c.23-.2.5-.36.83-.47.32-.11.67-.18,1.05-.19.44,0,.85.06,1.22.22s.7.37.98.65Z" style="fill: #fff;"/>
    <path d="M582.39,256.58v7.25h-2.55v-11.31h2.85l4.98,7.21h.03v-7.21h2.55v11.31h-2.85l-4.98-7.25h-.03Z" style="fill: #fff;"/>
    <path d="M595.78,264.07c-.6,0-1.16-.1-1.67-.31-.51-.21-.96-.49-1.33-.85s-.67-.78-.88-1.27c-.21-.48-.32-1.01-.32-1.57s.11-1.08.32-1.57.51-.91.88-1.27.82-.64,1.33-.85c.52-.21,1.07-.31,1.67-.31s1.16.1,1.67.31c.51.21.96.49,1.33.85s.67.78.88,1.27.32,1.01.32,1.57-.11,1.08-.32,1.57c-.21.49-.51.91-.88,1.27s-.82.64-1.33.85c-.52.21-1.07.31-1.67.31ZM595.78,261.79c.48,0,.87-.16,1.17-.49s.45-.73.45-1.22-.15-.9-.45-1.22c-.3-.32-.69-.49-1.17-.49s-.87.16-1.17.49c-.3.33-.45.73-.45,1.22s.15.9.45,1.22.69.49,1.17.49Z" style="fill: #fff;"/>
    <path d="M605.64,256.24c.25,0,.51.03.79.08v2.31c-.21-.07-.47-.1-.77-.1-.56,0-1.01.17-1.37.52-.17.17-.3.38-.39.63s-.13.58-.13,1v3.15h-2.52v-7.5h2.29v.9c.26-.32.57-.57.92-.74s.74-.25,1.16-.25Z" style="fill: #fff;"/>
    <path d="M607.5,256.33h2.29v.58c.23-.26.52-.46.86-.61.34-.14.73-.22,1.15-.22.48,0,.92.09,1.31.27.39.18.72.43.99.75.29-.32.65-.57,1.07-.75.42-.18.89-.27,1.41-.27.43,0,.83.07,1.18.22.36.15.67.35.95.62.27.27.48.6.63,1,.15.39.22.9.22,1.51v4.39h-2.52v-4.09c0-.3-.03-.53-.08-.69-.05-.16-.13-.29-.23-.39-.21-.21-.48-.32-.81-.32s-.6.11-.81.32c-.1.1-.18.23-.23.39-.05.16-.08.39-.08.69v4.09h-2.52v-4.09c0-.3-.03-.53-.08-.69s-.13-.29-.23-.39c-.21-.21-.48-.32-.81-.32s-.6.11-.81.32c-.1.1-.18.23-.23.39-.06.16-.08.39-.08.69v4.09h-2.52v-7.5Z" style="fill: #fff;"/>
  </g>
  <polygon points="603.28 222.86 599.55 228.15 595.82 222.86 603.28 222.86" style="fill: #4480be;"/>
  <g>
    <path d="M346.26,293.31c35.02,0,22.5-78.19,63.38-85.52" style="fill: none; stroke: #7a42f4; stroke-miterlimit: 10; stroke-width: 3px;"/>
    <polygon points="408.8 212.49 416.08 207.24 407.89 203.56 408.8 212.49" style="fill: #7a42f4;"/>
  </g>
  <g>
    <path d="M491.85,293.31c35.02,0,22.5-78.19,63.38-85.52" style="fill: none; stroke: #7a42f4; stroke-miterlimit: 10; stroke-width: 3px;"/>
    <polygon points="554.39 212.49 561.66 207.24 553.48 203.56 554.39 212.49" style="fill: #7a42f4;"/>
  </g>
  <g>
    <path d="M637.44,250.27c35.01,0,22.5-39.08,63.36-42.76" style="fill: none; stroke: #15ba93; stroke-miterlimit: 10; stroke-width: 3px;"/>
    <polygon points="699.73 212.13 707.25 207.24 699.25 203.17 699.73 212.13" style="fill: #15ba93;"/>
  </g>
  <circle cx="218.24" cy="263.8" r="13.52" style="fill: none; stroke: #231f20; stroke-miterlimit: 10; stroke-width: 3px;"/>
  <line x1="223.13" y1="258.21" x2="213.06" y2="268.27" style="fill: none; stroke: #000; stroke-miterlimit: 10; stroke-width: 3px;"/>
  <line x1="213.06" y1="258.21" x2="223.13" y2="268.27" style="fill: none; stroke: #000; stroke-miterlimit: 10; stroke-width: 3px;"/>
  <g>
    <path d="M182.49,207.24c17.28,0,32.98,13.19,35.42,36.58" style="fill: none; stroke: #66b718; stroke-miterlimit: 10; stroke-width: 3px;"/>
    <polygon points="213.25 242.81 218.24 250.27 222.21 242.23 213.25 242.81" style="fill: #66b718;"/>
  </g>
  <g>
    <path d="M55.79,263.24c18.27,0,12.4-49.64,44.49-55.45" style="fill: none; stroke: #ff7900; stroke-miterlimit: 10; stroke-width: 3px;"/>
    <polygon points="99.45 212.5 106.71 207.24 98.52 203.57 99.45 212.5" style="fill: #ff7900;"/>
  </g>
  <g>
    <path d="M198.26,263.79c-28.25-.07-75.74-.55-142.48-.55" style="fill: none; stroke: #ff7900; stroke-miterlimit: 10; stroke-width: 3px;"/>
    <polygon points="196.96 259.28 204.72 263.8 196.93 268.25 196.96 259.28" style="fill: #ff7900;"/>
  </g>
  <g>
    <path d="M231.76,263.8c22.98,0,11.73-48.26,32.33-55.63" style="fill: none; stroke: #231f20; stroke-miterlimit: 10; stroke-width: 3px;"/>
    <polygon points="263.63 213.02 270.49 207.24 262.05 204.19 263.63 213.02" style="fill: #231f20;"/>
  </g>
  <rect x="140.23" y="353.58" width="47.43" height="85.95" transform="translate(560.51 232.61) rotate(90)" style="fill: #618706;"/>
  <g>
    <path d="M135.32,380.8c.68,0,1.26.09,1.74.28.48.19.89.46,1.22.79.34.35.6.75.79,1.2s.29.94.29,1.46-.1,1-.29,1.46-.46.85-.79,1.2c-.33.34-.74.61-1.22.79-.48.19-1.06.29-1.74.29h-1.25v3.84h-2.62v-11.31h3.87ZM134.95,385.95c.35,0,.62-.04.82-.11s.36-.17.49-.29c.27-.25.4-.58.4-1s-.14-.75-.4-1c-.13-.12-.29-.22-.49-.29-.19-.08-.47-.11-.82-.11h-.87v2.82h.87Z" style="fill: #fff;"/>
    <path d="M143.83,392.35c-.6,0-1.16-.1-1.67-.31s-.96-.49-1.33-.85-.67-.78-.88-1.27c-.22-.48-.32-1.01-.32-1.57s.11-1.08.32-1.57c.21-.49.51-.91.88-1.27s.82-.64,1.33-.85,1.07-.31,1.67-.31,1.16.1,1.67.31c.51.21.96.49,1.33.85s.67.78.88,1.27.32,1.01.32,1.57-.11,1.08-.32,1.57c-.21.49-.51.91-.88,1.27s-.82.64-1.33.85c-.52.21-1.07.31-1.67.31ZM143.83,390.07c.48,0,.87-.16,1.17-.49.3-.33.45-.73.45-1.22s-.15-.9-.45-1.22c-.3-.32-.69-.49-1.17-.49s-.87.16-1.17.49c-.3.33-.45.73-.45,1.22s.15.9.45,1.22c.3.33.69.49,1.17.49Z" style="fill: #fff;"/>
    <path d="M150.56,383.61c-.2,0-.39-.04-.56-.11-.17-.08-.32-.18-.45-.31-.13-.13-.23-.28-.31-.45-.08-.17-.11-.35-.11-.55s.04-.37.11-.55c.07-.17.18-.33.31-.46.13-.13.28-.23.45-.31.17-.08.35-.11.56-.11s.37.04.55.11c.17.07.33.18.46.31s.23.28.31.46c.07.17.11.36.11.55,0,.2-.04.38-.11.55-.08.17-.18.32-.31.45s-.28.23-.46.31c-.17.07-.36.11-.55.11ZM151.82,384.61v7.5h-2.52v-7.5h2.52Z" style="fill: #fff;"/>
    <path d="M155.8,384.61v.63c.24-.26.54-.47.89-.62s.76-.24,1.21-.25c.44,0,.85.06,1.22.22s.7.37.98.65c.27.27.48.61.64,1.01.15.41.23.92.23,1.55v4.3h-2.52v-3.99c0-.32-.03-.57-.09-.74-.06-.17-.15-.32-.26-.43-.22-.22-.51-.33-.87-.33s-.65.11-.87.33c-.11.11-.2.25-.25.43-.06.17-.09.42-.09.74v3.99h-2.52v-7.5h2.29Z" style="fill: #fff;"/>
    <path d="M161.95,386.64v-2.03h1.42v-2.55h2.52v2.55h1.68v2.03h-1.68v5.47h-2.52v-5.47h-1.42Z" style="fill: #fff;"/>
    <path d="M174.08,384.87v7.25h-2.55v-11.31h2.85l4.98,7.21h.03v-7.21h2.55v11.31h-2.85l-4.98-7.25h-.03Z" style="fill: #fff;"/>
    <path d="M191.08,388.36c0,.22-.01.43-.04.64h-5.23c.05.37.22.67.52.9.29.23.65.34,1.07.34.34,0,.64-.08.9-.23.26-.15.46-.36.58-.62l1.95.99c-.34.59-.81,1.06-1.42,1.42-.61.36-1.31.54-2.08.54-.59,0-1.13-.1-1.63-.3-.49-.2-.92-.48-1.27-.83-.35-.35-.63-.77-.83-1.26s-.3-1.02-.3-1.6.09-1.11.29-1.6c.19-.48.46-.9.8-1.26.35-.35.76-.63,1.24-.83.48-.2,1.01-.3,1.58-.3s1.1.1,1.58.3c.48.2.89.48,1.24.83.35.36.61.78.8,1.26.19.49.28,1.02.28,1.6ZM187.18,386.32c-.36,0-.67.1-.92.31s-.41.47-.46.79h2.76c-.05-.32-.2-.58-.46-.79-.25-.21-.56-.31-.92-.31Z" style="fill: #fff;"/>
    <path d="M191.68,386.64v-2.03h1.42v-2.55h2.52v2.55h1.68v2.03h-1.68v5.47h-2.52v-5.47h-1.42Z" style="fill: #fff;"/>
    <path d="M142.55,398.8v2.4h-3.75v2.07h3.67v2.33h-3.67v2.11h3.75v2.4h-6.33v-11.31h6.33Z" style="fill: #fff;"/>
    <path d="M146.48,402.61v.63c.24-.26.54-.47.89-.62s.76-.24,1.21-.25c.44,0,.85.06,1.22.22s.7.37.98.65c.27.27.48.61.64,1.01.15.41.23.92.23,1.55v4.3h-2.52v-3.99c0-.32-.03-.57-.09-.74-.06-.17-.15-.32-.26-.43-.22-.22-.51-.33-.87-.33s-.65.11-.87.33c-.11.11-.2.25-.25.43-.06.17-.09.42-.09.74v3.99h-2.52v-7.5h2.29Z" style="fill: #fff;"/>
    <path d="M157.21,408.07c.26,0,.5-.04.73-.13.22-.08.42-.2.59-.35v2.43c-.52.22-1.06.33-1.62.33s-1.12-.1-1.61-.31-.93-.49-1.29-.85c-.37-.36-.65-.78-.85-1.27-.21-.48-.31-1.01-.31-1.57s.1-1.08.31-1.57c.2-.49.49-.91.85-1.27.36-.36.79-.64,1.29-.85s1.03-.31,1.61-.31,1.1.11,1.62.33v2.43c-.17-.15-.37-.27-.59-.35-.23-.08-.47-.13-.73-.13-.52,0-.95.16-1.28.49-.33.33-.49.73-.49,1.22s.17.9.49,1.22c.33.33.76.49,1.28.49Z" style="fill: #fff;"/>
    <path d="M163.67,410.35c-.6,0-1.16-.1-1.67-.31s-.96-.49-1.33-.85-.67-.78-.88-1.27c-.22-.48-.32-1.01-.32-1.57s.11-1.08.32-1.57c.21-.49.51-.91.88-1.27s.82-.64,1.33-.85,1.07-.31,1.67-.31,1.16.1,1.67.31c.51.21.96.49,1.33.85s.67.78.88,1.27.32,1.01.32,1.57-.11,1.08-.32,1.57c-.21.49-.51.91-.88,1.27s-.82.64-1.33.85c-.52.21-1.07.31-1.67.31ZM163.67,408.07c.48,0,.87-.16,1.17-.49.3-.33.45-.73.45-1.22s-.15-.9-.45-1.22c-.3-.32-.69-.49-1.17-.49s-.87.16-1.17.49c-.3.33-.45.73-.45,1.22s.15.9.45,1.22c.3.33.69.49,1.17.49Z" style="fill: #fff;"/>
    <path d="M177.02,398.44v11.67h-2.29v-.66c-.29.29-.62.51-.99.67-.37.15-.78.23-1.22.23-.54,0-1.04-.1-1.5-.31s-.86-.49-1.2-.85c-.34-.36-.61-.78-.8-1.27-.19-.48-.29-1.01-.29-1.57s.1-1.08.29-1.57c.2-.49.46-.91.8-1.27.34-.36.74-.64,1.2-.85s.96-.31,1.5-.31c.38,0,.74.06,1.07.18.33.12.64.29.91.51v-4.62h2.52ZM172.94,408.07c.47,0,.86-.16,1.16-.48.31-.32.46-.73.46-1.23s-.15-.91-.46-1.23c-.31-.32-.69-.48-1.16-.48s-.86.16-1.16.48c-.31.32-.46.73-.46,1.23s.15.91.46,1.23c.3.32.69.48,1.16.48Z" style="fill: #fff;"/>
    <path d="M186.1,406.36c0,.22-.01.43-.04.64h-5.23c.05.37.22.67.52.9.29.23.65.34,1.07.34.34,0,.64-.08.9-.23.26-.15.46-.36.58-.62l1.95.99c-.34.59-.81,1.06-1.42,1.42-.61.36-1.31.54-2.08.54-.59,0-1.13-.1-1.63-.3-.49-.2-.92-.48-1.27-.83-.35-.35-.63-.77-.83-1.26s-.3-1.02-.3-1.6.09-1.11.29-1.6c.19-.48.46-.9.8-1.26.35-.35.76-.63,1.24-.83.48-.2,1.01-.3,1.58-.3s1.1.1,1.58.3c.48.2.89.48,1.24.83.35.36.61.78.8,1.26.19.49.28,1.02.28,1.6ZM182.2,404.32c-.36,0-.67.1-.92.31s-.41.47-.46.79h2.76c-.05-.32-.2-.58-.46-.79-.25-.21-.56-.31-.92-.31Z" style="fill: #fff;"/>
    <path d="M191.72,402.52c.25,0,.51.03.79.08v2.31c-.21-.07-.47-.1-.77-.1-.56,0-1.02.17-1.37.52-.17.17-.3.38-.39.63-.09.25-.14.58-.14,1v3.15h-2.52v-7.5h2.29v.9c.26-.32.57-.57.92-.74.35-.17.74-.25,1.16-.25Z" style="fill: #fff;"/>
  </g>
  <g>
    <line x1="120.97" y1="372.85" x2="118.03" y2="368.8" style="fill: none; stroke: #618706; stroke-miterlimit: 10; stroke-width: 3px;"/>
    <path d="M112.16,360.73l-46.5-63.93c-6.42-8.83-9.88-19.46-9.88-30.37v-72.32c0-21.29,17.26-38.54,38.54-38.54h712.87c21.29,0,38.54,17.26,38.54,38.54v89.11c0,21.29-17.26,38.54-38.54,38.54h-497.95c-18.23,0-36.03,5.53-51.06,15.85l-43.02,29.57" style="fill: none; stroke: #618706; stroke-dasharray: 9.98 9.98; stroke-miterlimit: 10; stroke-width: 3px;"/>
    <line x1="211.05" y1="370.01" x2="206.93" y2="372.85" style="fill: none; stroke: #618706; stroke-miterlimit: 10; stroke-width: 3px;"/>
  </g>
  <g>
    <line x1="783.02" y1="215.33" x2="839.28" y2="215.33" style="fill: none; stroke: #db5656; stroke-miterlimit: 10; stroke-width: 3px;"/>
    <polygon points="837.96 219.82 845.73 215.33 837.96 210.84 837.96 219.82" style="fill: #db5656;"/>
  </g>
  <g>
    <path d="M70.5,275.25h2.96l1.98,3.4,2-3.4h2.85l-3.38,5.55,3.46,5.76h-2.94l-2.08-3.57-2.08,3.57h-2.85l3.46-5.7-3.38-5.61Z" style="fill: #ff7900;"/>
    <path d="M84.81,278.81c.25,0,.46.08.63.25.17.17.26.38.26.62s-.09.45-.26.62c-.17.17-.38.25-.63.25s-.45-.08-.62-.25c-.17-.17-.25-.38-.25-.62s.08-.45.25-.62c.17-.17.38-.25.62-.25ZM84.81,284.94c.25,0,.46.08.63.25s.26.37.26.62-.09.45-.26.62-.38.25-.63.25-.45-.08-.62-.25c-.17-.17-.25-.37-.25-.62s.08-.46.25-.62c.17-.17.38-.25.62-.25Z"/>
    <path d="M97.6,283.3c0,.46-.09.88-.26,1.27-.17.39-.4.74-.69,1.04-.29.29-.65.52-1.06.69s-.94.25-1.54.25h-3.21v-11.31h2.46c.6,0,1.09.08,1.48.23s.73.37,1,.65c.29.29.52.62.68,1,.16.38.24.78.24,1.22,0,.41-.09.8-.26,1.19-.18.38-.41.68-.71.91.59.25,1.05.63,1.38,1.13s.5,1.08.5,1.72ZM93.16,280.03c.39,0,.7-.04.93-.13s.42-.2.57-.35c.32-.32.48-.72.48-1.2,0-.25-.04-.47-.13-.67s-.2-.38-.35-.53c-.15-.15-.34-.27-.57-.35s-.54-.13-.93-.13h-.82v3.36h.82ZM95.51,284.6c.35-.35.53-.79.53-1.3,0-.26-.04-.5-.14-.73-.09-.22-.22-.42-.39-.59s-.38-.3-.61-.39c-.24-.09-.57-.13-.99-.13h-1.57v3.67h1.57c.42,0,.75-.04.99-.13.24-.09.44-.22.61-.39Z"/>
    <path d="M102.14,279.38h1.68l1.75,2.47,1.75-2.47h1.67l-2.55,3.53,2.67,3.64h-1.69l-1.86-2.59-1.86,2.59h-1.68l2.67-3.64-2.55-3.53Z"/>
    <path d="M119.1,280.87c.44.29.79.67,1.04,1.12.26.46.38.96.38,1.5,0,.45-.09.87-.26,1.27-.17.4-.42.74-.73,1.03s-.67.52-1.09.69-.88.25-1.37.25-.94-.08-1.36-.25c-.42-.17-.79-.4-1.1-.7s-.55-.64-.73-1.04c-.17-.4-.26-.82-.26-1.27h1.51c0,.27.05.52.15.74.1.23.23.42.41.59.17.17.38.3.61.4.24.09.5.14.77.14s.52-.05.77-.14c.24-.09.44-.23.61-.4s.31-.37.41-.59c.1-.22.15-.47.15-.74,0-.52-.18-.96-.54-1.32-.17-.17-.38-.3-.64-.41-.26-.1-.56-.15-.91-.15v-1.38c.33,0,.6-.04.83-.13.22-.08.41-.21.57-.37.31-.31.46-.7.46-1.16,0-.23-.04-.44-.13-.64s-.21-.38-.36-.53c-.16-.15-.34-.27-.55-.35-.21-.08-.44-.13-.68-.13s-.46.04-.67.13-.39.2-.55.35c-.15.15-.27.33-.36.53s-.13.42-.13.64h-1.52c0-.42.08-.81.25-1.18s.39-.69.68-.97.63-.49,1.02-.65.81-.24,1.27-.24.89.08,1.27.23c.39.16.73.37,1.02.65.29.27.52.59.68.96s.25.76.25,1.18c0,.48-.11.92-.32,1.33-.21.4-.51.74-.88,1.01Z"/>
    <path d="M125.31,279.38h1.68l1.75,2.47,1.75-2.47h1.67l-2.55,3.53,2.67,3.64h-1.69l-1.86-2.59-1.86,2.59h-1.68l2.67-3.64-2.55-3.53Z"/>
    <path d="M139.04,278.25v8.31h-1.5v-11.91l8.52,8.8h.03v-8.2h1.5v11.82l-8.52-8.82h-.03Z"/>
  </g>
  <g>
    <path d="M360.27,228.09c.33.33.57.69.72,1.08.16.4.24.8.24,1.22,0,.41-.09.82-.26,1.24s-.48.84-.91,1.27l-2.27,2.27-8-8,1.74-1.74c.42-.42.83-.72,1.21-.89.39-.17.78-.25,1.17-.25.41,0,.8.08,1.18.23.38.15.72.38,1.03.69.29.29.51.63.65,1.02.14.39.19.78.14,1.15.59-.24,1.19-.3,1.78-.17s1.11.41,1.56.86ZM354.82,228.91c.28-.28.46-.52.57-.75s.15-.44.15-.65c0-.45-.17-.85-.51-1.19-.18-.18-.37-.31-.57-.39s-.41-.12-.62-.12c-.21,0-.43.05-.65.15-.22.1-.47.29-.75.57l-.58.58,2.38,2.38.58-.58ZM359.72,230.48c0-.49-.18-.93-.55-1.29-.18-.18-.39-.32-.61-.42-.22-.1-.46-.14-.7-.14s-.48.05-.71.16c-.23.11-.5.31-.8.6l-1.11,1.11,2.6,2.6,1.11-1.11c.3-.3.5-.56.6-.8.1-.23.16-.47.16-.71Z"/>
    <path d="M360.72,222.11l1.19-1.19,2.99.51-.51-2.99,1.18-1.18.69,4.3,4.46.69-1.2,1.2-3.15-.52.52,3.15-1.19,1.19-.69-4.47-4.3-.69Z"/>
    <path d="M371.6,211.31c.37-.37.78-.64,1.22-.82.45-.18.91-.27,1.37-.27.46,0,.92.1,1.36.28.44.18.84.45,1.2.81.36.36.63.77.8,1.21.17.45.26.91.25,1.38s-.1.94-.29,1.39-.47.87-.84,1.24-.79.66-1.25.84-.92.28-1.39.29c-.47,0-.93-.08-1.38-.26-.44-.18-.85-.45-1.21-.81-.26-.26-.47-.54-.63-.84-.16-.3-.29-.63-.39-.99-.1-.36-.19-.75-.25-1.17-.07-.42-.14-.88-.22-1.38l-.7-4.48,1.42-.23.6,4.17c.09-.13.19-.25.31-.37ZM375.71,215.57c.23-.23.4-.48.51-.75.11-.28.17-.56.16-.84,0-.29-.06-.57-.18-.85-.12-.28-.29-.53-.51-.76s-.48-.4-.76-.51c-.28-.12-.56-.18-.85-.18-.29,0-.57.05-.84.17-.28.11-.53.28-.75.51-.23.23-.39.48-.5.75s-.16.55-.16.84.06.58.17.85c.12.28.29.53.51.76s.48.4.76.51c.28.12.56.18.85.18.29,0,.57-.05.84-.16.27-.11.52-.28.75-.5Z"/>
    <path d="M378.35,211.83l-1.93-11.5,5.75,5.75,1.02-1.02.97.97-1.02,1.02,1.39,1.39-1.01,1.01-1.39-1.39-3.78,3.78ZM378.44,204.36l.78,4.67,1.94-1.94-2.72-2.73Z"/>
    <path d="M383.73,199.09l1.19-1.19,2.99.51-.51-2.99,1.18-1.18.69,4.3,4.46.69-1.2,1.2-3.15-.52.52,3.15-1.19,1.19-.69-4.47-4.3-.69Z"/>
    <path d="M392.63,188.58l5.88,5.88-1.06,1.06-8.42-8.42,12.25.2.02-.02-5.8-5.8,1.06-1.06,8.36,8.36-12.26-.21-.02.02Z"/>
  </g>
  <g>
    <path d="M510.21,224.2c.32.33.56.69.72,1.08.16.4.24.8.24,1.22,0,.41-.09.82-.26,1.24s-.48.84-.91,1.27l-2.27,2.27-8-8,1.74-1.74c.42-.42.83-.72,1.21-.89.38-.17.78-.25,1.17-.25.41,0,.8.08,1.18.23s.72.38,1.03.69c.29.29.51.63.65,1.02.14.39.19.78.14,1.15.59-.24,1.19-.3,1.78-.17s1.11.41,1.57.86ZM504.76,225.02c.28-.28.46-.52.57-.75.1-.22.15-.44.15-.65,0-.45-.17-.85-.51-1.19-.18-.18-.37-.31-.57-.39-.2-.08-.41-.12-.62-.12-.21,0-.43.05-.65.15-.22.1-.47.29-.75.57l-.58.58,2.38,2.38.58-.58ZM509.66,226.59c0-.49-.18-.93-.55-1.29-.18-.18-.39-.32-.61-.42-.22-.1-.45-.14-.69-.14s-.48.05-.71.16c-.23.11-.5.31-.79.6l-1.11,1.11,2.6,2.6,1.11-1.11c.3-.3.5-.56.61-.8.11-.23.16-.47.16-.71Z"/>
    <path d="M510.66,218.21l1.19-1.19,2.99.51-.51-2.99,1.18-1.18.69,4.3,4.47.69-1.2,1.2-3.15-.52.52,3.15-1.19,1.19-.69-4.47-4.3-.69Z"/>
    <path d="M516.99,208.64l-.3-1.68,1.52-1.52,7.68,7.68-1.03,1.03-6.69-6.69-1.18,1.18Z"/>
    <path d="M532.27,206.74l-4.86,4.86-.67-5.8c-.05-.4-.09-.77-.13-1.1-.04-.33-.1-.63-.17-.9s-.17-.52-.3-.75c-.12-.23-.29-.45-.51-.67-.19-.19-.4-.33-.62-.42-.23-.09-.46-.14-.69-.14s-.46.05-.69.14-.43.23-.62.41c-.18.18-.32.39-.41.61s-.13.46-.13.7c0,.24.06.48.16.71.1.23.24.45.44.64l.11.11-1.08,1.08-.11-.11c-.33-.33-.57-.69-.73-1.09-.16-.4-.24-.82-.24-1.25,0-.43.09-.85.26-1.26.17-.41.42-.79.76-1.13s.71-.59,1.12-.76.83-.26,1.25-.27c.42,0,.84.07,1.24.23.4.16.76.4,1.08.72.27.27.48.55.64.84.16.29.29.61.38.96.09.35.17.73.22,1.15.05.42.11.9.17,1.43l.34,2.91,2.82-2.82.99.99Z"/>
    <path d="M533.37,197.61c.52-.11,1.03-.09,1.53.06.51.14.95.41,1.33.79.32.32.55.68.71,1.08.16.4.23.82.21,1.24s-.11.84-.29,1.26c-.18.42-.44.8-.78,1.15s-.73.61-1.15.78c-.42.18-.84.27-1.26.29-.42.01-.84-.06-1.24-.21-.4-.16-.76-.39-1.08-.71-.38-.38-.65-.83-.79-1.33s-.16-1.02-.06-1.53c-.45.07-.9.04-1.34-.1-.44-.13-.83-.37-1.17-.71-.3-.3-.52-.63-.66-1.01-.14-.38-.21-.76-.2-1.16.01-.4.1-.79.27-1.18s.41-.74.74-1.07.68-.57,1.07-.74c.39-.17.78-.25,1.18-.26.4-.01.79.05,1.16.2s.71.36,1.01.66c.34.34.58.73.71,1.17.13.44.17.88.1,1.34ZM529.14,196.24c-.17.17-.3.36-.39.57-.09.21-.13.42-.14.64,0,.22.04.42.12.63s.2.38.37.55.34.28.55.37.41.12.63.12c.21,0,.43-.05.64-.14.21-.09.4-.22.57-.39s.3-.36.39-.57.13-.42.14-.64c0-.21-.04-.42-.12-.62-.08-.2-.2-.38-.37-.55-.16-.16-.34-.28-.55-.37-.2-.08-.41-.12-.62-.12-.22,0-.43.05-.64.14s-.4.22-.57.39ZM535.1,202.2c.19-.19.34-.41.44-.64.1-.24.15-.48.15-.72,0-.24-.04-.48-.13-.71-.09-.23-.23-.44-.42-.63-.19-.19-.4-.33-.63-.42-.23-.09-.46-.13-.71-.13s-.48.05-.72.15c-.24.1-.45.25-.64.44-.19.19-.34.41-.44.64s-.15.48-.15.72c0,.24.04.48.13.71.09.23.23.44.42.63s.4.33.63.42c.23.09.46.13.71.13s.48-.05.72-.15c.24-.1.45-.25.64-.44Z"/>
    <path d="M536.71,192.17l1.19-1.19,2.99.51-.51-2.99,1.18-1.18.69,4.3,4.46.69-1.2,1.2-3.15-.52.52,3.15-1.19,1.19-.69-4.47-4.29-.69Z"/>
    <path d="M545.61,181.66l5.88,5.88-1.06,1.06-8.42-8.42,12.25.2.02-.02-5.8-5.8,1.06-1.06,8.36,8.36-12.26-.21-.02.02Z"/>
  </g>
  <g>
    <path d="M652.55,225.61c.32.33.56.69.72,1.08.16.4.24.8.24,1.22,0,.41-.09.82-.27,1.24-.18.42-.48.84-.91,1.27l-2.27,2.27-8-8,1.74-1.74c.42-.42.83-.72,1.21-.89.38-.17.78-.25,1.17-.25s.8.08,1.18.23.72.38,1.04.69c.29.29.51.63.65,1.02.14.39.19.78.14,1.15.59-.24,1.19-.3,1.78-.18.59.12,1.11.41,1.56.86ZM647.09,226.44c.28-.28.46-.52.57-.75.1-.22.15-.44.15-.65,0-.45-.17-.85-.51-1.19-.18-.18-.37-.31-.57-.39-.2-.08-.41-.12-.62-.12-.21,0-.43.05-.65.15-.22.1-.47.29-.75.57l-.58.58,2.38,2.38.58-.58ZM651.99,228.01c0-.49-.18-.93-.55-1.29-.18-.18-.39-.32-.61-.42-.22-.09-.46-.14-.7-.14s-.48.05-.71.16c-.23.11-.5.31-.79.6l-1.11,1.11,2.6,2.6,1.11-1.11c.3-.3.5-.56.61-.8.11-.23.16-.47.16-.71Z"/>
    <path d="M652.99,219.63l1.19-1.19,2.99.51-.51-2.99,1.18-1.18.69,4.3,4.47.69-1.2,1.2-3.15-.52.52,3.15-1.19,1.19-.69-4.47-4.29-.69Z"/>
    <path d="M659.32,210.05l-.3-1.68,1.52-1.52,7.68,7.68-1.03,1.03-6.69-6.69-1.18,1.18Z"/>
    <path d="M672.79,210.22c-.45.45-.93.75-1.46.9-.53.16-1.09.18-1.66.06-.58-.11-1.17-.35-1.78-.72-.61-.37-1.21-.85-1.81-1.45-.6-.6-1.08-1.21-1.45-1.81-.37-.61-.61-1.2-.72-1.78s-.09-1.13.06-1.67c.15-.53.46-1.02.9-1.46.44-.44.92-.74,1.45-.89.53-.15,1.09-.18,1.67-.06s1.17.35,1.78.72c.61.37,1.21.85,1.81,1.45s1.09,1.21,1.45,1.81c.37.61.61,1.2.72,1.78.11.58.09,1.13-.06,1.66-.16.53-.45,1.02-.89,1.45ZM671.81,209.23c.55-.55.71-1.23.47-2.04-.24-.81-.83-1.68-1.77-2.62-.94-.94-1.81-1.53-2.62-1.77s-1.48-.08-2.04.47c-.56.56-.72,1.24-.48,2.05s.83,1.68,1.77,2.62c.94.94,1.81,1.53,2.62,1.77.81.24,1.49.08,2.05-.48Z"/>
    <path d="M681.34,201.42l-4.86,4.86-.67-5.8c-.05-.4-.09-.77-.13-1.1-.04-.33-.09-.63-.17-.9-.08-.27-.18-.52-.3-.75-.12-.23-.29-.45-.51-.67-.19-.19-.4-.33-.63-.42-.23-.09-.46-.14-.69-.14s-.46.05-.69.14-.43.23-.61.41c-.18.18-.32.39-.41.61s-.13.46-.13.7c0,.24.06.48.16.71s.24.45.44.64l.11.11-1.08,1.08-.11-.11c-.33-.33-.57-.69-.73-1.09-.16-.4-.24-.82-.24-1.25,0-.43.09-.85.25-1.26s.42-.79.76-1.13c.34-.34.71-.59,1.12-.76s.83-.26,1.25-.27c.42,0,.84.07,1.24.23.4.16.76.4,1.08.72.27.27.48.55.64.84.16.29.29.61.38.96.09.35.16.73.22,1.15.05.42.11.9.17,1.43l.34,2.91,2.82-2.82.98.99Z"/>
    <path d="M680.67,199.31l-1.93-11.5,5.75,5.75,1.02-1.02.96.97-1.02,1.02,1.39,1.39-1.01,1.01-1.39-1.39-3.78,3.78ZM680.76,191.84l.79,4.67,1.94-1.94-2.72-2.73Z"/>
    <path d="M686.05,186.57l1.19-1.19,2.99.51-.51-2.99,1.18-1.18.69,4.3,4.46.69-1.2,1.2-3.15-.52.52,3.15-1.19,1.19-.69-4.47-4.3-.69Z"/>
    <path d="M694.95,176.06l5.88,5.88-1.06,1.06-8.42-8.42,12.25.2.02-.02-5.8-5.8,1.06-1.06,8.36,8.36-12.26-.21-.02.02Z"/>
  </g>
  <g>
    <path d="M794.8,235.79c0,.46-.08.88-.25,1.27-.17.39-.4.74-.69,1.04-.29.29-.64.52-1.06.69s-.94.25-1.54.25h-3.21v-11.31h2.46c.6,0,1.09.08,1.48.23.39.16.73.37,1,.65.29.29.52.62.68,1,.16.38.24.78.24,1.22,0,.41-.09.8-.26,1.19-.18.38-.41.68-.71.91.59.25,1.05.63,1.38,1.13s.5,1.08.5,1.72ZM790.36,232.52c.39,0,.7-.04.93-.13.23-.08.42-.2.57-.35.32-.32.48-.72.48-1.2,0-.25-.04-.47-.13-.67s-.2-.38-.35-.53-.34-.27-.57-.35c-.23-.08-.54-.13-.93-.13h-.82v3.36h.82ZM792.71,237.1c.35-.35.53-.79.53-1.3,0-.26-.04-.5-.14-.73-.09-.22-.22-.42-.39-.59s-.38-.3-.62-.39-.57-.13-.99-.13h-1.57v3.67h1.57c.42,0,.75-.04.99-.13.24-.09.45-.22.62-.39Z"/>
    <path d="M799.34,231.88h1.68l1.75,2.47,1.75-2.47h1.67l-2.55,3.53,2.67,3.64h-1.69l-1.86-2.59-1.86,2.59h-1.68l2.67-3.64-2.55-3.53Z"/>
    <path d="M810.59,229.58l.97-1.4h2.15v10.86h-1.46v-9.46h-1.67Z"/>
    <path d="M820,239.23c-.63,0-1.19-.13-1.67-.4-.49-.26-.89-.64-1.22-1.13-.33-.49-.58-1.08-.75-1.77-.17-.69-.25-1.46-.25-2.31s.08-1.62.25-2.31c.17-.69.42-1.28.75-1.77s.74-.87,1.22-1.13c.48-.26,1.04-.4,1.67-.4s1.17.13,1.66.4c.48.27.89.64,1.22,1.13s.58,1.08.75,1.77c.17.69.25,1.46.25,2.31s-.08,1.62-.25,2.31c-.17.69-.42,1.28-.75,1.77-.33.49-.74.87-1.22,1.13-.49.26-1.04.4-1.66.4ZM820,237.83c.78,0,1.37-.37,1.77-1.11.4-.74.6-1.77.6-3.1s-.2-2.37-.6-3.11c-.4-.74-.99-1.11-1.77-1.11s-1.38.37-1.79,1.11c-.4.74-.6,1.78-.6,3.11s.2,2.37.6,3.1c.4.74,1,1.11,1.79,1.11Z"/>
    <path d="M832.27,239.05h-6.87l3.63-4.58c.25-.32.48-.61.68-.87.2-.26.38-.51.52-.76.14-.25.25-.49.32-.74s.11-.53.11-.84c0-.27-.05-.52-.14-.74-.09-.23-.22-.42-.39-.58s-.36-.29-.58-.39c-.23-.09-.47-.14-.73-.14s-.5.05-.73.14c-.23.1-.42.23-.58.41s-.29.38-.39.62c-.09.24-.14.49-.14.76v.15h-1.53v-.15c0-.46.08-.89.25-1.29.17-.4.41-.75.71-1.05.3-.3.66-.54,1.07-.71s.85-.26,1.33-.26.92.08,1.33.25.77.4,1.07.7c.3.3.54.64.71,1.04.17.4.25.82.25,1.27,0,.38-.05.73-.14,1.05-.1.32-.23.64-.41.95-.18.31-.4.63-.66.97-.26.33-.56.71-.89,1.13l-1.81,2.3h3.99v1.39Z"/>
    <path d="M833.29,237.08l6.76-9.5v8.13h1.44v1.37h-1.44v1.96h-1.42v-1.96h-5.34ZM838.63,231.86l-2.75,3.85h2.75v-3.85Z"/>
  </g>
  <g>
    <path d="M373.49,447.98c34.99,0,11.06-30.55,50.73-33.47" style="fill: none; stroke: #a644f2; stroke-miterlimit: 10; stroke-width: 3px;"/>
    <polygon points="423.1 419.11 430.67 414.29 422.72 410.14 423.1 419.11" style="fill: #a644f2;"/>
  </g>
  <g>
    <path d="M506.45,447.98c34.99,0,11.06-30.55,50.73-33.47" style="fill: none; stroke: #a644f2; stroke-miterlimit: 10; stroke-width: 3px;"/>
    <polygon points="556.06 419.11 563.63 414.29 555.67 410.14 556.06 419.11" style="fill: #a644f2;"/>
  </g>
  <g>
    <path d="M639.4,447.98c34.99,0,11.06-30.55,50.73-33.47" style="fill: none; stroke: #a644f2; stroke-miterlimit: 10; stroke-width: 3px;"/>
    <polygon points="689.02 419.11 696.59 414.29 688.63 410.14 689.02 419.11" style="fill: #a644f2;"/>
  </g>
  <g>
    <line x1="772.36" y1="484.45" x2="823.09" y2="484.45" style="fill: none; stroke: #4480be; stroke-miterlimit: 10; stroke-width: 3px;"/>
    <polygon points="821.77 488.94 829.55 484.45 821.77 479.97 821.77 488.94" style="fill: #4480be;"/>
  </g>
  <g>
    <line x1="772.36" y1="414.29" x2="823.09" y2="414.29" style="fill: none; stroke: #4480be; stroke-miterlimit: 10; stroke-width: 3px;"/>
    <polygon points="821.77 418.78 829.55 414.29 821.77 409.8 821.77 418.78" style="fill: #4480be;"/>
  </g>
  <g>
    <path d="M397.92,405.42c.32.32.56.69.72,1.08.16.4.24.8.24,1.22,0,.41-.09.82-.26,1.24s-.48.84-.91,1.27l-2.27,2.27-8-8,1.74-1.74c.42-.42.83-.72,1.21-.88.38-.17.78-.25,1.17-.25s.8.08,1.18.23.72.38,1.03.69c.29.29.51.63.65,1.02.14.39.19.78.14,1.15.59-.24,1.19-.3,1.78-.17s1.11.41,1.57.87ZM392.47,406.24c.28-.28.47-.52.57-.75s.15-.44.15-.65c0-.45-.17-.85-.51-1.19-.18-.18-.37-.3-.57-.39-.2-.08-.41-.12-.62-.12-.21,0-.43.05-.65.15-.22.1-.47.29-.75.57l-.58.58,2.38,2.38.58-.58ZM397.37,407.81c0-.49-.18-.93-.55-1.29-.18-.18-.39-.32-.61-.42-.22-.1-.45-.14-.69-.14s-.48.05-.71.16c-.23.11-.5.31-.79.61l-1.11,1.11,2.6,2.6,1.11-1.11c.3-.3.5-.56.61-.79.11-.23.16-.47.16-.71Z"/>
    <path d="M398.37,399.43l1.19-1.19,2.99.51-.51-2.99,1.18-1.18.69,4.3,4.46.69-1.2,1.2-3.15-.52.52,3.15-1.19,1.19-.69-4.46-4.3-.69Z"/>
    <path d="M408.82,388.81c.37-.37.78-.64,1.24-.82.46-.18.92-.27,1.39-.27s.94.09,1.39.27c.45.18.86.46,1.23.83.37.37.64.79.82,1.25.18.47.26.94.26,1.43,0,.49-.11.97-.31,1.44-.2.47-.49.9-.88,1.29-.32.32-.67.57-1.06.75s-.78.29-1.18.33-.81.02-1.21-.07c-.4-.09-.78-.25-1.15-.47l.71-1.18c.48.28.99.4,1.52.35.53-.05,1-.27,1.4-.68.24-.24.42-.51.55-.8.12-.29.19-.59.19-.9s-.06-.6-.17-.9c-.12-.29-.29-.56-.54-.8-.24-.24-.51-.42-.8-.54s-.6-.17-.91-.16c-.31,0-.62.08-.92.21-.3.13-.58.32-.83.58-.33.33-.57.68-.74,1.07s-.26.79-.28,1.2l-3.06-5.13,3.15-3.15.99.99-2.39,2.39,1.19,1.97c.11-.16.24-.32.4-.49Z"/>
    <path d="M410.8,383.76l-.3-1.68,1.52-1.52,7.68,7.68-1.03,1.03-6.69-6.69-1.18,1.18Z"/>
    <path d="M426.08,381.86l-4.86,4.86-.67-5.8c-.05-.4-.09-.77-.13-1.1-.04-.33-.09-.63-.17-.9-.08-.27-.17-.52-.3-.75-.12-.23-.29-.45-.51-.67-.19-.19-.4-.33-.63-.42-.23-.09-.46-.14-.69-.14s-.46.05-.69.14-.43.23-.61.41-.32.39-.41.62-.13.46-.13.7c0,.24.06.48.16.71.1.23.24.45.44.64l.11.11-1.08,1.08-.11-.11c-.33-.33-.57-.69-.73-1.09-.16-.4-.24-.82-.24-1.25,0-.43.09-.85.25-1.26.17-.41.42-.79.76-1.13.34-.34.71-.59,1.12-.76s.83-.26,1.25-.27.84.07,1.24.23c.4.16.76.4,1.08.71.27.27.48.55.64.84s.28.61.38.96c.09.35.17.73.22,1.15.05.42.11.9.17,1.43l.34,2.91,2.82-2.82.99.99Z"/>
  </g>
  <g>
    <path d="M531.65,406.73c.33.33.57.69.72,1.08.16.4.24.8.24,1.22,0,.41-.09.82-.26,1.24s-.48.84-.91,1.27l-2.27,2.27-8-8,1.74-1.74c.42-.42.83-.72,1.21-.89.39-.17.78-.25,1.17-.25.41,0,.8.07,1.18.23.38.15.72.38,1.03.7.29.29.51.63.65,1.02.14.39.19.78.14,1.15.59-.24,1.19-.3,1.78-.17s1.11.41,1.56.86ZM526.2,407.56c.28-.28.47-.53.57-.75s.15-.44.15-.65c0-.45-.17-.85-.51-1.19-.18-.18-.37-.31-.57-.39-.2-.08-.41-.12-.62-.12s-.43.05-.65.15c-.22.1-.47.29-.75.57l-.58.58,2.38,2.38.58-.58ZM531.1,409.13c0-.5-.18-.93-.55-1.29-.18-.18-.39-.32-.61-.42s-.46-.14-.7-.14-.48.05-.71.16c-.23.11-.5.31-.8.6l-1.11,1.11,2.6,2.6,1.11-1.11c.3-.3.5-.56.6-.8.1-.23.16-.47.16-.71Z"/>
    <path d="M532.09,400.75l1.19-1.19,2.99.51-.51-2.99,1.18-1.18.69,4.29,4.46.69-1.2,1.2-3.15-.52.52,3.15-1.19,1.19-.69-4.47-4.3-.69Z"/>
    <path d="M550.09,392.89l-4.86,4.86-.67-5.8c-.05-.4-.09-.77-.13-1.1-.04-.33-.09-.63-.17-.9-.07-.27-.17-.53-.3-.75-.12-.23-.29-.45-.51-.67-.19-.19-.4-.33-.62-.42-.23-.09-.46-.14-.69-.14s-.46.05-.69.14-.43.23-.62.41-.32.39-.41.61-.13.46-.13.7c0,.24.06.48.16.71.1.23.24.45.44.64l.11.11-1.08,1.08-.11-.11c-.32-.33-.57-.69-.73-1.09-.16-.4-.24-.82-.24-1.25,0-.43.09-.85.25-1.26s.42-.79.76-1.13c.34-.34.71-.59,1.12-.76.41-.17.83-.26,1.25-.26.42,0,.84.07,1.24.23.4.16.76.4,1.08.72.27.27.48.55.64.84s.29.61.38.96c.09.35.17.73.22,1.15s.11.9.17,1.43l.34,2.91,2.82-2.82.99.99Z"/>
    <path d="M548.49,384.18c.37-.37.78-.64,1.24-.82.46-.18.92-.27,1.4-.27s.94.09,1.39.28c.45.18.86.46,1.23.83.37.37.64.79.82,1.25.18.47.26.95.25,1.43,0,.49-.11.97-.31,1.44-.2.47-.49.9-.88,1.29-.32.32-.67.57-1.05.75-.39.18-.78.29-1.18.33-.4.04-.81.02-1.21-.07-.4-.09-.78-.25-1.14-.47l.71-1.18c.48.28.99.4,1.52.35s1-.28,1.4-.68c.24-.24.42-.51.54-.8.12-.29.19-.59.19-.9s-.06-.6-.17-.9-.29-.56-.54-.8c-.24-.24-.51-.42-.8-.54-.29-.12-.6-.17-.91-.16-.31,0-.62.08-.92.21-.3.13-.58.32-.83.58-.32.32-.57.68-.74,1.07-.17.39-.26.79-.28,1.2l-3.05-5.13,3.15-3.15.99.99-2.39,2.39,1.19,1.97c.11-.16.24-.33.4-.49Z"/>
    <path d="M555.01,377.91c.37-.37.78-.64,1.23-.82.45-.18.91-.27,1.37-.26s.92.1,1.36.28c.44.18.84.45,1.2.81.36.36.63.77.8,1.21.17.45.26.91.25,1.38,0,.47-.1.94-.29,1.4s-.47.87-.84,1.24-.79.66-1.25.84-.92.28-1.39.29c-.47,0-.93-.08-1.37-.26-.45-.18-.85-.45-1.21-.81-.26-.26-.47-.54-.63-.84-.16-.3-.29-.63-.39-.99-.1-.36-.19-.75-.25-1.17-.07-.42-.14-.88-.22-1.38l-.7-4.48,1.42-.23.61,4.17c.08-.13.19-.25.31-.37ZM559.13,382.18c.23-.23.39-.48.51-.75.11-.28.17-.56.16-.84,0-.29-.06-.57-.18-.85-.12-.28-.29-.53-.51-.76s-.48-.4-.76-.52c-.28-.12-.56-.18-.85-.18-.29,0-.57.05-.84.16s-.53.28-.75.51c-.23.23-.39.47-.5.75-.11.27-.16.55-.17.84,0,.29.06.58.18.85.12.28.29.53.52.76s.48.4.76.51c.28.12.56.18.85.18s.57-.05.84-.16c.27-.11.52-.28.75-.5Z"/>
  </g>
  <g>
    <path d="M664.93,406.73c.33.33.57.69.72,1.08.16.4.24.8.24,1.22,0,.41-.09.82-.26,1.24s-.48.84-.91,1.27l-2.27,2.27-8-8,1.74-1.74c.42-.42.83-.72,1.21-.89.39-.17.78-.25,1.17-.25.41,0,.8.07,1.18.23.38.15.72.38,1.03.7.29.29.51.63.65,1.02.14.39.19.78.14,1.15.59-.24,1.19-.3,1.78-.17s1.11.41,1.56.86ZM659.48,407.56c.28-.28.47-.53.57-.75s.15-.44.15-.65c0-.45-.17-.85-.51-1.19-.18-.18-.37-.31-.57-.39-.2-.08-.41-.12-.62-.12s-.43.05-.65.15c-.22.1-.47.29-.75.57l-.58.58,2.38,2.38.58-.58ZM664.38,409.13c0-.5-.18-.93-.55-1.29-.18-.18-.39-.32-.61-.42s-.46-.14-.7-.14-.48.05-.71.16c-.23.11-.5.31-.8.6l-1.11,1.11,2.6,2.6,1.11-1.11c.3-.3.5-.56.6-.8.1-.23.16-.47.16-.71Z"/>
    <path d="M665.38,400.75l1.19-1.19,2.99.51-.51-2.99,1.18-1.18.69,4.29,4.46.69-1.2,1.2-3.15-.52.52,3.15-1.19,1.19-.69-4.47-4.3-.69Z"/>
    <path d="M683.38,392.89l-4.86,4.86-.67-5.8c-.05-.4-.09-.77-.13-1.1-.04-.33-.09-.63-.17-.9-.07-.27-.17-.53-.3-.75-.12-.23-.29-.45-.51-.67-.19-.19-.4-.33-.62-.42-.23-.09-.46-.14-.69-.14s-.46.05-.69.14-.43.23-.62.41-.32.39-.41.61-.13.46-.13.7c0,.24.06.48.16.71.1.23.24.45.44.64l.11.11-1.08,1.08-.11-.11c-.32-.33-.57-.69-.73-1.09-.16-.4-.24-.82-.24-1.25,0-.43.09-.85.25-1.26s.42-.79.76-1.13c.34-.34.71-.59,1.12-.76.41-.17.83-.26,1.25-.26.42,0,.84.07,1.24.23.4.16.76.4,1.08.72.27.27.48.55.64.84s.29.61.38.96c.09.35.17.73.22,1.15s.11.9.17,1.43l.34,2.91,2.82-2.82.99.99Z"/>
    <path d="M681.78,384.18c.37-.37.78-.64,1.24-.82.46-.18.92-.27,1.4-.27s.94.09,1.39.28c.45.18.86.46,1.23.83.37.37.64.79.82,1.25.18.47.26.95.25,1.43,0,.49-.11.97-.31,1.44-.2.47-.49.9-.88,1.29-.32.32-.67.57-1.05.75-.39.18-.78.29-1.18.33-.4.04-.81.02-1.21-.07-.4-.09-.78-.25-1.14-.47l.71-1.18c.48.28.99.4,1.52.35s1-.28,1.4-.68c.24-.24.42-.51.54-.8.12-.29.19-.59.19-.9s-.06-.6-.17-.9-.29-.56-.54-.8c-.24-.24-.51-.42-.8-.54-.29-.12-.6-.17-.91-.16-.31,0-.62.08-.92.21-.3.13-.58.32-.83.58-.32.32-.57.68-.74,1.07-.17.39-.26.79-.28,1.2l-3.05-5.13,3.15-3.15.99.99-2.39,2.39,1.19,1.97c.11-.16.24-.33.4-.49Z"/>
    <path d="M688.3,377.91c.37-.37.78-.64,1.23-.82.45-.18.91-.27,1.37-.26s.92.1,1.36.28c.44.18.84.45,1.2.81.36.36.63.77.8,1.21.17.45.26.91.25,1.38,0,.47-.1.94-.29,1.4s-.47.87-.84,1.24-.79.66-1.25.84-.92.28-1.39.29c-.47,0-.93-.08-1.37-.26-.45-.18-.85-.45-1.21-.81-.26-.26-.47-.54-.63-.84-.16-.3-.29-.63-.39-.99-.1-.36-.19-.75-.25-1.17-.07-.42-.14-.88-.22-1.38l-.7-4.48,1.42-.23.61,4.17c.08-.13.19-.25.31-.37ZM692.41,382.18c.23-.23.39-.48.51-.75.11-.28.17-.56.16-.84,0-.29-.06-.57-.18-.85-.12-.28-.29-.53-.51-.76s-.48-.4-.76-.52c-.28-.12-.56-.18-.85-.18-.29,0-.57.05-.84.16s-.53.28-.75.51c-.23.23-.39.47-.5.75-.11.27-.16.55-.17.84,0,.29.06.58.18.85.12.28.29.53.52.76s.48.4.76.51c.28.12.56.18.85.18s.57-.05.84-.16c.27-.11.52-.28.75-.5Z"/>
  </g>
  <g>
    <path d="M790.13,402.95c0,.46-.09.88-.26,1.27-.17.39-.4.74-.69,1.04-.29.29-.65.52-1.07.69s-.93.25-1.54.25h-3.21v-11.31h2.46c.6,0,1.09.08,1.49.23.39.16.72.37,1,.65s.51.62.67,1,.24.78.24,1.22c0,.41-.09.8-.26,1.19-.17.38-.41.68-.71.91.59.25,1.05.63,1.38,1.13s.5,1.08.5,1.72ZM785.69,399.68c.39,0,.7-.04.93-.13.23-.08.42-.2.57-.35.32-.32.48-.72.48-1.2,0-.25-.04-.47-.13-.67s-.2-.38-.35-.53c-.15-.15-.34-.27-.57-.35-.23-.08-.54-.13-.93-.13h-.83v3.36h.83ZM788.04,404.25c.35-.35.53-.79.53-1.3,0-.26-.04-.5-.13-.73s-.22-.42-.39-.59-.38-.3-.61-.39c-.24-.09-.57-.13-.99-.13h-1.58v3.67h1.58c.42,0,.75-.04.99-.13.24-.09.44-.22.61-.39Z"/>
    <path d="M794.67,399.03h1.68l1.75,2.47,1.75-2.47h1.67l-2.55,3.53,2.67,3.64h-1.7l-1.86-2.59-1.86,2.59h-1.68l2.67-3.64-2.55-3.53Z"/>
    <path d="M810,399.09c.52,0,1,.1,1.45.29.45.19.83.45,1.16.78s.58.71.77,1.16c.18.44.28.92.28,1.42s-.1.99-.29,1.42c-.2.44-.46.83-.79,1.16s-.73.59-1.19.78c-.46.19-.95.29-1.47.29s-1.02-.09-1.48-.29c-.46-.19-.85-.45-1.19-.78s-.6-.71-.79-1.16c-.19-.44-.29-.92-.29-1.42,0-.37.05-.72.15-1.04.1-.32.24-.65.42-.97.18-.33.39-.66.64-1s.53-.72.83-1.13l2.67-3.66,1.17.84-2.52,3.38c.15-.03.31-.04.48-.04ZM809.9,405.02c.32,0,.62-.06.89-.17.27-.12.51-.28.71-.48.2-.2.36-.45.47-.73.12-.28.17-.58.17-.9s-.06-.62-.17-.9c-.12-.28-.27-.52-.47-.73-.2-.2-.44-.36-.71-.48-.28-.12-.57-.17-.89-.17s-.62.06-.89.17c-.27.12-.51.28-.71.48-.21.21-.37.45-.48.73-.12.28-.17.58-.17.9s.06.62.17.9c.12.28.28.52.48.73.21.21.44.37.71.48.27.12.57.17.89.17Z"/>
  </g>
  <g>
    <path d="M791.99,473.48c0,.46-.08.88-.25,1.27-.17.39-.4.74-.69,1.04-.29.29-.64.52-1.06.69s-.94.25-1.54.25h-3.21v-11.31h2.46c.6,0,1.09.08,1.48.23.39.16.73.37,1,.65.29.29.52.62.68,1,.16.38.24.78.24,1.22,0,.41-.09.8-.26,1.19-.18.38-.41.68-.71.91.59.25,1.05.63,1.38,1.13s.5,1.08.5,1.72ZM787.55,470.21c.39,0,.7-.04.93-.13.23-.08.42-.2.57-.35.32-.32.48-.72.48-1.2,0-.25-.04-.47-.13-.67s-.2-.38-.35-.53-.34-.27-.57-.35c-.23-.08-.54-.13-.93-.13h-.82v3.36h.82ZM789.9,474.78c.35-.35.53-.79.53-1.3,0-.26-.04-.5-.14-.73-.09-.22-.22-.42-.39-.59s-.38-.3-.62-.39-.57-.13-.99-.13h-1.57v3.67h1.57c.42,0,.75-.04.99-.13.24-.09.45-.22.62-.39Z"/>
    <path d="M796.53,469.56h1.68l1.75,2.47,1.75-2.47h1.67l-2.55,3.53,2.67,3.64h-1.69l-1.86-2.59-1.86,2.59h-1.68l2.67-3.64-2.55-3.53Z"/>
    <path d="M807.78,467.27l.97-1.4h2.15v10.86h-1.46v-9.46h-1.67Z"/>
  </g>
  <circle cx="244.26" cy="439.08" r="13.52" style="fill: none; stroke: #231f20; stroke-miterlimit: 10; stroke-width: 3px;"/>
  <line x1="251.23" y1="438.53" x2="236.99" y2="438.53" style="fill: none; stroke: #000; stroke-miterlimit: 10; stroke-width: 3px;"/>
  <line x1="244.11" y1="431.41" x2="244.11" y2="445.64" style="fill: none; stroke: #000; stroke-miterlimit: 10; stroke-width: 3px;"/>
  <g>
    <path d="M257.78,439.08c22.97,0,12.76-21.61,33.49-24.58" style="fill: none; stroke: #231f20; stroke-miterlimit: 10; stroke-width: 3px;"/>
    <polygon points="290.25 419.16 297.71 414.18 289.67 410.21 290.25 419.16" style="fill: #231f20;"/>
  </g>
  <g>
    <path d="M257.78,439.08c22.98,0,12.75,38.84,33.52,44.65" style="fill: none; stroke: #231f20; stroke-miterlimit: 10; stroke-width: 3px;"/>
    <polygon points="289.4 487.82 297.71 484.44 290.63 478.93 289.4 487.82" style="fill: #231f20;"/>
  </g>
  <g>
    <path d="M206.93,396.56c17.21,0,34.17,1.33,36.94,22.55" style="fill: none; stroke: #618706; stroke-miterlimit: 10; stroke-width: 3px;"/>
    <polygon points="239.17 418.17 244.26 425.56 248.12 417.46 239.17 418.17" style="fill: #618706;"/>
  </g>
  <g>
    <path d="M120.97,439.08h103.3" style="fill: none; stroke: #2e29ef; stroke-miterlimit: 10; stroke-width: 3px;"/>
    <polygon points="222.96 443.57 230.73 439.08 222.96 434.59 222.96 443.57" style="fill: #2e29ef;"/>
  </g>
  <g>
    <path d="M90.85,396.56h25.34" style="fill: none; stroke: #ff2a00; stroke-miterlimit: 10; stroke-width: 3px;"/>
    <polygon points="114.88 401.05 122.65 396.56 114.88 392.07 114.88 401.05" style="fill: #ff2a00;"/>
  </g>
  <g>
    <path d="M47.77,389.15c.63,0,1.15.08,1.57.25.42.17.78.4,1.08.71.29.29.52.63.69,1.03.17.4.26.84.26,1.31s-.09.91-.26,1.3c-.17.4-.4.75-.69,1.04s-.66.54-1.08.71c-.42.17-.94.25-1.57.25h-1.23v4.71h-1.5v-11.31h2.73ZM47.64,394.33c.42,0,.75-.05,1.01-.14.25-.09.46-.23.63-.4.17-.17.3-.37.4-.6.09-.23.14-.47.14-.73s-.05-.5-.14-.74c-.1-.23-.23-.43-.4-.6-.17-.17-.38-.3-.63-.4-.25-.1-.58-.14-1.01-.14h-1.09v3.75h1.09Z" style="fill: #ff2a00;"/>
    <path d="M55.36,400.64c-.53,0-1.02-.1-1.48-.29-.46-.2-.86-.46-1.2-.8s-.6-.74-.79-1.2-.28-.95-.28-1.47.09-1.01.28-1.47.46-.86.79-1.2.74-.61,1.2-.8.95-.29,1.48-.29,1.02.1,1.49.29c.46.2.86.46,1.19.8.33.34.6.74.79,1.2s.29.95.29,1.47-.1,1.01-.29,1.47-.46.86-.79,1.2c-.34.34-.73.61-1.19.8-.46.19-.96.29-1.49.29ZM55.36,399.28c.32,0,.62-.06.9-.18.28-.12.52-.29.73-.5s.37-.47.48-.77c.12-.29.17-.61.17-.95s-.06-.66-.17-.95c-.11-.29-.27-.55-.48-.77-.21-.21-.45-.38-.73-.5-.28-.12-.58-.18-.9-.18s-.62.06-.9.18c-.28.12-.52.29-.73.5-.21.22-.37.47-.48.77-.12.29-.17.61-.17.95s.06.66.17.95c.11.29.27.55.48.77s.45.38.73.5c.28.12.58.18.9.18Z" style="fill: #ff2a00;"/>
    <path d="M61.65,392.18c-.27,0-.5-.1-.7-.3-.2-.2-.3-.43-.3-.71s.1-.5.3-.7c.2-.2.43-.29.7-.29s.5.1.7.29.29.43.29.7-.1.5-.29.71-.43.3-.7.3ZM60.93,393.29h1.42v7.17h-1.42v-7.17Z" style="fill: #ff2a00;"/>
    <path d="M64.72,393.29h1.35v.57c.24-.23.52-.41.85-.55.33-.13.68-.2,1.06-.2s.73.07,1.06.21c.33.14.62.33.87.58s.46.58.61.94c.15.37.22.83.22,1.38v4.23h-1.43v-4.11c0-.38-.04-.68-.12-.89-.08-.21-.19-.39-.33-.53-.3-.3-.68-.45-1.12-.45s-.83.15-1.12.45c-.14.14-.25.32-.34.53-.08.22-.13.51-.13.89v4.11h-1.42v-7.17Z" style="fill: #ff2a00;"/>
    <path d="M73.38,394.57h-1.31v-1.28h1.31v-2.75h1.42v2.75h1.52v1.28h-1.52v5.89h-1.42v-5.89Z" style="fill: #ff2a00;"/>
    <path d="M80.41,395.05c-.05-.19-.15-.34-.3-.46s-.33-.18-.52-.18c-.22,0-.41.07-.56.2s-.23.31-.23.52c0,.15.04.29.13.42s.27.25.56.36l1.08.43c.39.16.74.42,1.04.76.31.35.46.79.46,1.32,0,.31-.06.6-.19.87-.12.27-.3.5-.52.71s-.48.36-.78.47c-.3.11-.62.17-.96.17-.32,0-.62-.04-.9-.13-.28-.09-.53-.22-.75-.38-.22-.17-.41-.36-.56-.58-.15-.22-.25-.47-.3-.74l1.32-.29c.07.25.21.45.43.61.22.16.47.23.76.23s.53-.08.73-.25c.19-.17.29-.38.29-.64,0-.4-.23-.69-.68-.86l-1.11-.45c-.48-.19-.85-.45-1.1-.79-.25-.34-.38-.74-.38-1.2,0-.28.06-.54.17-.8.11-.25.27-.47.47-.65.2-.18.43-.33.7-.43.27-.11.55-.16.86-.16.51,0,.95.14,1.33.41.38.28.64.63.78,1.06l-1.29.46Z" style="fill: #ff2a00;"/>
  </g>
  <g>
    <path d="M46.54,432.53v9.88h3.4v1.42h-4.9v-11.31h1.5Z" style="fill: #2e29ef;"/>
    <path d="M58.05,436.67v7.17h-1.38v-.74c-.3.29-.65.52-1.03.68-.39.16-.81.24-1.26.24-.51,0-.98-.1-1.42-.29-.44-.2-.82-.46-1.15-.8-.33-.34-.58-.74-.77-1.2s-.28-.95-.28-1.47.09-1.01.28-1.47.44-.86.77-1.2c.32-.34.71-.61,1.15-.8.44-.2.92-.29,1.42-.29.45,0,.87.08,1.26.24.39.16.73.39,1.03.68v-.74h1.38ZM54.52,442.64c.32,0,.62-.06.9-.18.28-.12.52-.29.73-.5.21-.21.37-.47.48-.76.12-.29.17-.61.17-.95s-.06-.66-.17-.95c-.11-.29-.27-.54-.48-.76s-.45-.38-.73-.5c-.28-.12-.58-.18-.9-.18s-.62.06-.9.18c-.28.12-.52.29-.73.5s-.37.47-.48.76c-.12.29-.17.61-.17.95s.06.66.17.95c.11.29.27.54.48.76.21.22.45.38.73.5.28.12.58.18.9.18Z" style="fill: #2e29ef;"/>
    <path d="M63.03,438.43c-.05-.19-.15-.34-.3-.46s-.33-.18-.52-.18c-.22,0-.41.07-.56.2s-.23.31-.23.52c0,.15.04.29.13.42s.27.25.56.36l1.08.43c.39.16.74.42,1.04.76.31.35.46.79.46,1.32,0,.31-.06.6-.19.87-.12.27-.3.5-.52.71s-.48.36-.78.47c-.3.11-.62.17-.96.17-.32,0-.62-.04-.9-.13-.28-.09-.53-.22-.75-.38-.22-.17-.41-.36-.56-.58-.15-.22-.25-.47-.3-.74l1.32-.29c.07.25.21.45.43.61.22.16.47.23.76.23s.53-.08.73-.25c.19-.17.29-.38.29-.64,0-.4-.23-.69-.68-.86l-1.11-.45c-.48-.19-.85-.45-1.1-.79-.25-.34-.38-.74-.38-1.2,0-.28.06-.54.17-.8.11-.25.27-.47.47-.65.2-.18.43-.33.7-.43.27-.11.55-.16.86-.16.51,0,.95.14,1.33.41.38.28.64.63.78,1.06l-1.29.46Z" style="fill: #2e29ef;"/>
    <path d="M66.9,437.95h-1.31v-1.28h1.31v-2.75h1.42v2.75h1.52v1.28h-1.52v5.89h-1.42v-5.89Z" style="fill: #2e29ef;"/>
    <path d="M79.03,432.53v8.42c0,.51-.06.93-.17,1.26-.12.33-.27.61-.47.84-.26.31-.58.55-.95.72s-.79.25-1.25.25c-.37,0-.71-.06-1.03-.17-.32-.12-.6-.27-.85-.46-.25-.2-.45-.43-.61-.7-.17-.27-.27-.56-.32-.88l1.5-.27c.07.31.23.56.46.76.24.2.53.29.85.29.42,0,.77-.16,1.04-.48.1-.13.18-.29.23-.49.06-.2.08-.47.08-.83v-8.25h1.5Z" style="fill: #2e29ef;"/>
    <path d="M84.58,444.02c-.53,0-1.02-.1-1.48-.29-.46-.2-.86-.46-1.2-.8s-.6-.74-.79-1.2-.28-.95-.28-1.47.09-1.01.28-1.47.46-.86.79-1.2.74-.61,1.2-.8.95-.29,1.48-.29,1.02.1,1.49.29c.46.2.86.46,1.19.8.33.34.6.74.79,1.2s.29.95.29,1.47-.1,1.01-.29,1.47-.46.86-.79,1.2c-.34.34-.73.61-1.19.8-.46.19-.96.29-1.49.29ZM84.58,442.66c.32,0,.62-.06.9-.18.28-.12.52-.29.73-.5s.37-.47.48-.77c.12-.29.17-.61.17-.95s-.06-.66-.17-.95c-.11-.29-.27-.55-.48-.77-.21-.21-.45-.38-.73-.5-.28-.12-.58-.18-.9-.18s-.62.06-.9.18c-.28.12-.52.29-.73.5-.21.22-.37.47-.48.77-.12.29-.17.61-.17.95s.06.66.17.95c.11.29.27.55.48.77s.45.38.73.5c.28.12.58.18.9.18Z" style="fill: #2e29ef;"/>
    <path d="M90.87,435.56c-.27,0-.5-.1-.7-.3-.2-.2-.3-.43-.3-.71s.1-.5.3-.7c.2-.2.43-.29.7-.29s.5.1.7.29.29.43.29.7-.1.5-.29.71-.43.3-.7.3ZM90.15,436.67h1.42v7.17h-1.42v-7.17Z" style="fill: #2e29ef;"/>
    <path d="M93.94,436.67h1.35v.57c.24-.23.52-.41.85-.55.33-.13.68-.2,1.06-.2s.73.07,1.06.21c.33.14.62.33.87.58s.46.58.61.94c.15.37.22.83.22,1.38v4.23h-1.43v-4.11c0-.38-.04-.68-.12-.89-.08-.21-.19-.39-.33-.53-.3-.3-.68-.45-1.12-.45s-.83.15-1.12.45c-.14.14-.25.32-.34.53-.08.22-.13.51-.13.89v4.11h-1.42v-7.17Z" style="fill: #2e29ef;"/>
    <path d="M102.6,437.95h-1.31v-1.28h1.31v-2.75h1.42v2.75h1.52v1.28h-1.52v5.89h-1.42v-5.89Z" style="fill: #2e29ef;"/>
    <path d="M109.63,438.43c-.05-.19-.15-.34-.3-.46s-.33-.18-.52-.18c-.22,0-.41.07-.56.2s-.23.31-.23.52c0,.15.04.29.13.42s.27.25.56.36l1.08.43c.39.16.74.42,1.04.76.31.35.46.79.46,1.32,0,.31-.06.6-.19.87-.12.27-.3.5-.52.71s-.48.36-.78.47c-.3.11-.62.17-.96.17-.32,0-.62-.04-.9-.13-.28-.09-.53-.22-.75-.38-.22-.17-.41-.36-.56-.58-.15-.22-.25-.47-.3-.74l1.32-.29c.07.25.21.45.43.61.22.16.47.23.76.23s.53-.08.73-.25c.19-.17.29-.38.29-.64,0-.4-.23-.69-.68-.86l-1.11-.45c-.48-.19-.85-.45-1.1-.79-.25-.34-.38-.74-.38-1.2,0-.28.06-.54.17-.8.11-.25.27-.47.47-.65.2-.18.43-.33.7-.43.27-.11.55-.16.86-.16.51,0,.95.14,1.33.41.38.28.64.63.78,1.06l-1.29.46Z" style="fill: #2e29ef;"/>
  </g>
  <g>
    <path d="M274.82,405.74c.33.32.57.69.72,1.08.16.4.24.8.24,1.22,0,.41-.09.82-.26,1.24-.18.42-.48.84-.91,1.27l-2.27,2.27-8-8,1.74-1.74c.42-.42.83-.72,1.21-.88.39-.17.78-.25,1.17-.25s.8.08,1.18.23.72.38,1.03.7c.29.29.51.63.65,1.02.14.39.19.78.14,1.15.6-.24,1.19-.3,1.78-.17.59.12,1.11.41,1.56.87ZM269.37,406.57c.28-.28.47-.52.57-.75.1-.22.15-.44.15-.65,0-.45-.17-.85-.51-1.19-.18-.18-.37-.31-.57-.39-.2-.08-.41-.12-.62-.12-.21,0-.43.05-.65.15-.22.1-.47.29-.75.57l-.58.58,2.38,2.38.58-.58ZM274.27,408.14c0-.49-.18-.93-.55-1.29-.18-.18-.39-.32-.61-.42s-.46-.14-.7-.14-.48.05-.71.16c-.23.11-.5.31-.8.61l-1.11,1.11,2.6,2.6,1.11-1.11c.3-.3.5-.56.6-.8.11-.23.16-.47.16-.71Z"/>
    <path d="M275.27,399.76l1.19-1.19,2.99.51-.51-2.99,1.18-1.18.69,4.3,4.46.69-1.2,1.2-3.15-.52.52,3.15-1.19,1.19-.69-4.47-4.3-.69Z"/>
    <path d="M281.6,390.18l-.3-1.68,1.52-1.52,7.68,7.68-1.03,1.03-6.69-6.69-1.18,1.18Z"/>
    <path d="M295.07,390.35c-.45.45-.93.75-1.46.9-.53.16-1.09.18-1.67.06-.58-.11-1.17-.35-1.78-.72-.61-.37-1.21-.85-1.81-1.45-.6-.6-1.09-1.21-1.45-1.81-.37-.61-.61-1.2-.72-1.78s-.09-1.13.06-1.67c.16-.53.46-1.02.9-1.46.44-.44.92-.73,1.45-.89.53-.16,1.08-.18,1.66-.06s1.17.35,1.78.72c.61.37,1.21.85,1.81,1.45.6.6,1.09,1.21,1.45,1.81.37.61.61,1.2.72,1.78.11.58.09,1.13-.06,1.66-.16.53-.45,1.01-.89,1.45ZM294.09,389.37c.55-.55.71-1.23.47-2.04s-.83-1.68-1.77-2.62c-.94-.94-1.81-1.53-2.62-1.77-.81-.24-1.49-.08-2.04.47s-.72,1.24-.48,2.05c.24.81.83,1.68,1.77,2.62.94.94,1.81,1.53,2.62,1.77.81.24,1.49.08,2.05-.48Z"/>
    <path d="M298.67,378.46c.52-.11,1.03-.09,1.53.06.51.14.95.41,1.33.79.32.32.55.68.71,1.08.16.4.23.82.21,1.24-.01.42-.11.84-.29,1.26-.18.42-.44.8-.79,1.15-.35.35-.73.61-1.15.79-.42.18-.84.27-1.27.28-.43,0-.84-.06-1.25-.22-.41-.16-.77-.4-1.09-.72l1.07-1.07c.19.19.4.33.63.42.23.09.46.13.71.13s.48-.05.71-.15c.24-.1.45-.25.64-.44.19-.19.34-.4.44-.64.1-.24.15-.48.15-.72s-.04-.47-.13-.71c-.09-.23-.23-.44-.42-.63-.37-.37-.81-.55-1.32-.55-.24,0-.49.05-.74.16-.25.11-.5.29-.75.54l-.98-.98c.23-.23.4-.46.49-.67.09-.21.14-.44.14-.66,0-.44-.16-.82-.49-1.15-.16-.16-.34-.28-.55-.37-.2-.08-.41-.12-.63-.12-.22,0-.43.05-.64.14-.21.09-.4.22-.57.39s-.3.36-.39.57c-.09.21-.13.42-.14.64s.04.42.12.63c.08.2.2.38.37.55l-1.07,1.07c-.3-.3-.52-.63-.66-1.01-.14-.38-.21-.77-.2-1.17.01-.4.1-.79.26-1.18.16-.39.41-.75.73-1.07.32-.33.68-.57,1.07-.74.39-.17.78-.26,1.18-.27.4-.01.79.05,1.16.2s.71.36,1.01.66c.34.34.58.73.71,1.17.13.44.17.88.1,1.34Z"/>
    <path d="M307.81,377.61c-.45.45-.93.75-1.46.9-.53.16-1.09.18-1.67.06-.58-.11-1.17-.35-1.78-.72-.61-.37-1.21-.85-1.81-1.45-.6-.6-1.09-1.21-1.45-1.81-.37-.61-.61-1.2-.72-1.78s-.09-1.13.06-1.67c.16-.53.46-1.02.9-1.46.44-.44.92-.73,1.45-.89.53-.16,1.08-.18,1.66-.06s1.17.35,1.78.72c.61.37,1.21.85,1.81,1.45.6.6,1.09,1.21,1.45,1.81.37.61.61,1.2.72,1.78.11.58.09,1.13-.06,1.66-.16.53-.45,1.01-.89,1.45ZM306.82,376.63c.55-.55.71-1.23.47-2.04s-.83-1.68-1.77-2.62c-.94-.94-1.81-1.53-2.62-1.77-.81-.24-1.49-.08-2.04.47s-.72,1.24-.48,2.05c.24.81.83,1.68,1.77,2.62.94.94,1.81,1.53,2.62,1.77.81.24,1.49.08,2.05-.48Z"/>
  </g>
  <g>
    <path d="M518,486.95c3.22,0,3.22-5,0-5s-3.22,5,0,5h0Z" style="fill: #231f20;"/>
    <path d="M539.43,486.95c3.22,0,3.22-5,0-5s-3.22,5,0,5h0Z" style="fill: #231f20;"/>
    <path d="M560.86,486.95c3.22,0,3.22-5,0-5s-3.22,5,0,5h0Z" style="fill: #231f20;"/>
  </g>
  <g>
    <path d="M838.32,417.56l4.43-10.34h.5l4.23,10.34h-9.17ZM839.52,416.65s.06.03.11.03h4.53s.05,0,.08-.03c.03-.02.05-.04.05-.07l-.03-.1-2.32-5.68-2.39,5.57c-.05.11-.07.18-.07.21,0,.03.01.05.04.07Z"/>
    <path d="M856.06,406.25v8.42c0,.51-.06.93-.17,1.26s-.27.61-.47.84c-.26.31-.58.55-.95.72s-.79.25-1.25.25c-.37,0-.71-.06-1.04-.17-.32-.12-.6-.27-.85-.46-.25-.2-.45-.43-.62-.7-.17-.27-.27-.56-.32-.88l1.5-.27c.07.31.22.56.46.76.24.2.52.29.85.29.42,0,.77-.16,1.04-.48.1-.13.18-.29.23-.49s.08-.47.08-.83v-8.25h1.5Z"/>
    <path d="M861.61,417.74c-.53,0-1.03-.1-1.49-.29-.46-.2-.86-.46-1.2-.8-.34-.34-.61-.74-.79-1.2-.19-.46-.29-.95-.29-1.47s.09-1.01.29-1.47c.19-.46.45-.86.79-1.2.34-.34.74-.61,1.2-.8s.96-.29,1.49-.29,1.03.1,1.49.29.86.46,1.19.8.6.74.79,1.2.29.95.29,1.47-.1,1.01-.29,1.47-.46.86-.79,1.2-.73.61-1.19.8c-.46.19-.96.29-1.49.29ZM861.61,416.37c.32,0,.62-.06.9-.18.28-.12.52-.29.73-.5.2-.21.36-.47.48-.77s.17-.61.17-.95-.06-.66-.17-.95-.28-.55-.48-.77c-.21-.21-.45-.38-.73-.5-.28-.12-.58-.18-.9-.18s-.62.06-.9.18c-.28.12-.52.29-.73.5-.21.22-.37.47-.48.77s-.17.61-.17.95.06.66.17.95.28.55.48.77c.2.21.45.38.73.5.28.12.58.18.9.18Z"/>
    <path d="M867.9,409.28c-.27,0-.5-.1-.71-.3s-.3-.43-.3-.71.1-.5.3-.7.43-.29.71-.29.5.1.7.29.29.43.29.7-.1.5-.29.71-.43.3-.7.3ZM867.18,410.39h1.43v7.17h-1.43v-7.17Z"/>
    <path d="M870.97,410.39h1.35v.57c.24-.23.52-.41.85-.55.32-.13.68-.2,1.06-.2s.73.07,1.06.21c.33.14.62.33.87.58s.46.58.61.94c.14.37.22.83.22,1.38v4.23h-1.42v-4.11c0-.38-.04-.68-.12-.89-.08-.21-.19-.39-.33-.53-.3-.3-.67-.45-1.12-.45s-.83.15-1.12.45c-.14.14-.25.32-.34.53-.08.22-.13.51-.13.89v4.11h-1.43v-7.17Z"/>
    <path d="M891.69,417.56h-1.59l-1.17-2.59h-5.01l-1.17,2.59h-1.56l5.25-11.76,5.25,11.76ZM886.44,409.29h-.03l-1.88,4.25h3.78l-1.88-4.25Z"/>
    <path d="M892.93,410.39h1.35v.57c.24-.23.52-.41.85-.55.32-.13.68-.2,1.06-.2s.73.07,1.06.21c.33.14.62.33.87.58s.46.58.61.94c.14.37.22.83.22,1.38v4.23h-1.42v-4.11c0-.38-.04-.68-.12-.89-.08-.21-.19-.39-.33-.53-.3-.3-.67-.45-1.12-.45s-.83.15-1.12.45c-.14.14-.25.32-.34.53-.08.22-.13.51-.13.89v4.11h-1.43v-7.17Z"/>
    <path d="M907.93,410.39v7.3c0,.66-.08,1.21-.23,1.64-.16.44-.38.81-.67,1.12-.32.35-.7.62-1.14.81-.44.19-.92.29-1.46.29-.48,0-.93-.08-1.35-.24s-.79-.38-1.09-.66c-.31-.28-.56-.61-.74-.98-.18-.38-.29-.78-.31-1.22h1.41c.05.51.27.93.65,1.25.38.32.86.49,1.43.49.63,0,1.14-.21,1.53-.63.17-.19.3-.43.41-.72.1-.29.15-.68.15-1.17v-.83c-.3.29-.64.51-1.02.67-.38.16-.79.23-1.25.23-.51,0-.99-.1-1.42-.29-.44-.2-.82-.46-1.15-.8-.33-.34-.58-.74-.77-1.2-.18-.46-.28-.95-.28-1.47s.09-1.01.28-1.47c.19-.46.44-.86.77-1.2.32-.34.71-.61,1.15-.8.44-.2.92-.29,1.42-.29.45,0,.87.08,1.26.24.39.16.74.39,1.04.68v-.74h1.38ZM904.41,416.36c.32,0,.62-.06.9-.18s.52-.29.73-.5c.21-.21.37-.47.48-.76.11-.29.17-.61.17-.95s-.06-.66-.17-.95c-.12-.29-.28-.54-.48-.76s-.45-.38-.73-.5-.58-.18-.9-.18-.62.06-.9.18c-.28.12-.52.29-.73.5s-.37.47-.48.76c-.11.29-.17.61-.17.95s.06.66.17.95c.12.29.28.54.48.76.21.22.45.38.73.5.28.12.58.18.9.18Z"/>
    <path d="M910.27,405.89h1.43v11.67h-1.43v-11.67Z"/>
    <path d="M920.43,413.97c0,.09,0,.18,0,.27,0,.09-.01.18-.02.27h-5.43c.04.27.12.52.25.75s.29.43.48.59.42.29.66.38.51.14.8.14c.44,0,.83-.1,1.17-.31.34-.21.6-.48.78-.82l1.19.7c-.32.54-.75.97-1.3,1.3s-1.16.49-1.84.49c-.52,0-1-.1-1.45-.29-.44-.2-.83-.46-1.16-.8s-.59-.74-.77-1.19c-.19-.46-.28-.94-.28-1.46s.09-1.04.26-1.5c.17-.46.42-.86.73-1.19.32-.33.68-.6,1.1-.79s.88-.29,1.38-.29.95.1,1.37.29c.42.2.79.46,1.09.79s.54.73.72,1.19.26.96.26,1.49ZM916.99,411.53c-.27,0-.52.04-.76.14-.24.09-.44.21-.62.37-.18.16-.33.34-.44.56s-.18.46-.21.72h3.97c-.05-.52-.25-.95-.61-1.28-.35-.33-.8-.5-1.34-.5Z"/>
  </g>
  <g>
    <path d="M844.2,477.73c.63,0,1.16.08,1.58.25s.78.4,1.08.71c.29.29.52.63.69,1.03.17.4.25.84.25,1.31s-.08.91-.25,1.3c-.17.4-.4.75-.69,1.04s-.66.54-1.08.71-.94.25-1.58.25h-1.23v4.71h-1.5v-11.31h2.73ZM844.06,482.9c.42,0,.75-.05,1-.14s.46-.23.63-.4.3-.37.4-.6c.1-.23.14-.47.14-.73s-.05-.5-.14-.74c-.09-.23-.23-.43-.4-.6s-.38-.3-.63-.4c-.25-.1-.58-.14-1-.14h-1.09v3.75h1.09Z"/>
    <path d="M851.79,489.22c-.53,0-1.03-.1-1.49-.29-.46-.2-.86-.46-1.2-.8-.34-.34-.61-.74-.79-1.2-.19-.46-.29-.95-.29-1.47s.09-1.01.29-1.47c.19-.46.45-.86.79-1.2.34-.34.74-.61,1.2-.8s.96-.29,1.49-.29,1.03.1,1.49.29.86.46,1.19.8.6.74.79,1.2.29.95.29,1.47-.1,1.01-.29,1.47-.46.86-.79,1.2-.73.61-1.19.8c-.46.19-.96.29-1.49.29ZM851.79,487.85c.32,0,.62-.06.9-.18.28-.12.52-.29.73-.5.2-.21.36-.47.48-.77s.17-.61.17-.95-.06-.66-.17-.95-.28-.55-.48-.77c-.21-.21-.45-.38-.73-.5-.28-.12-.58-.18-.9-.18s-.62.06-.9.18c-.28.12-.52.29-.73.5-.21.22-.37.47-.48.77s-.17.61-.17.95.06.66.17.95.28.55.48.77c.2.21.45.38.73.5.28.12.58.18.9.18Z"/>
    <path d="M857.35,477.37h1.43v11.67h-1.43v-11.67Z"/>
    <path d="M861.87,480.76c-.27,0-.5-.1-.71-.3s-.3-.43-.3-.71.1-.5.3-.7.43-.29.71-.29.5.1.7.29.29.43.29.7-.1.5-.29.71-.43.3-.7.3ZM861.15,481.87h1.43v7.17h-1.43v-7.17Z"/>
    <path d="M868.14,489.22c-.53,0-1.03-.1-1.49-.29-.46-.2-.86-.46-1.2-.8-.34-.34-.61-.74-.79-1.2-.19-.46-.29-.95-.29-1.47s.09-1.01.29-1.47c.19-.46.45-.86.79-1.2.34-.34.74-.61,1.2-.8s.96-.29,1.49-.29c.35,0,.69.05,1.01.14.33.09.63.23.91.4v1.54c-.23-.23-.5-.41-.82-.53-.31-.12-.66-.19-1.03-.19-.33,0-.64.06-.93.18-.29.12-.54.29-.75.5-.21.22-.38.47-.5.77s-.18.61-.18.95.06.66.18.95.29.55.5.77.46.38.75.5c.29.12.6.18.93.18.37,0,.71-.06,1.03-.19.32-.12.59-.3.82-.53v1.54c-.28.17-.58.3-.91.4-.33.1-.66.14-1.01.14Z"/>
    <path d="M870.87,481.87h1.56l2.55,4.59h.03l2.29-4.59h1.5l-5.55,10.98h-1.49l2.5-4.93-3.4-6.04Z"/>
    <path d="M883.45,481.87l2.1,4.53h.03l2.1-4.53h1.49l-3.62,7.68-3.61-7.68h1.51Z"/>
    <path d="M897.01,481.87v7.17h-1.38v-.74c-.3.29-.65.52-1.04.68-.39.16-.81.24-1.26.24-.51,0-.99-.1-1.43-.29-.44-.2-.82-.46-1.15-.8s-.58-.74-.76-1.2c-.19-.46-.28-.95-.28-1.47s.09-1.01.28-1.47c.18-.46.44-.86.76-1.2s.71-.61,1.15-.8c.44-.2.92-.29,1.43-.29.45,0,.87.08,1.26.24.39.16.73.39,1.04.68v-.74h1.38ZM893.49,487.84c.32,0,.62-.06.9-.18.28-.12.52-.29.73-.5.2-.21.36-.47.48-.76s.17-.61.17-.95-.06-.66-.17-.95-.28-.54-.48-.76c-.21-.21-.45-.38-.73-.5-.28-.12-.58-.18-.9-.18s-.62.06-.9.18c-.28.12-.52.29-.73.5-.21.21-.37.47-.48.76s-.17.61-.17.95.06.66.17.95.28.54.48.76c.2.22.45.38.73.5.28.12.58.18.9.18Z"/>
    <path d="M899.38,477.37h1.43v11.67h-1.43v-11.67Z"/>
    <path d="M906,489.22c-.45,0-.86-.08-1.24-.23-.38-.15-.69-.37-.95-.64-.23-.24-.41-.53-.55-.86s-.2-.76-.2-1.27v-4.35h1.42v4.29c0,.33.04.59.1.78.07.19.17.34.29.46.3.3.67.45,1.12.45.23,0,.44-.04.64-.12s.36-.19.5-.33c.12-.12.22-.27.29-.46.07-.18.11-.45.11-.79v-4.29h1.42v4.35c0,.51-.07.93-.2,1.27-.14.33-.32.62-.56.86-.27.27-.59.48-.96.64-.37.16-.78.23-1.23.23Z"/>
    <path d="M917.56,485.45c0,.09,0,.18,0,.27,0,.09-.01.18-.02.27h-5.43c.04.27.12.52.25.75s.29.43.48.59.42.29.66.38.51.14.8.14c.44,0,.83-.1,1.17-.31.34-.21.6-.48.78-.82l1.19.7c-.32.54-.75.97-1.3,1.3s-1.16.49-1.84.49c-.52,0-1-.1-1.45-.29-.44-.2-.83-.46-1.16-.8s-.59-.74-.77-1.19c-.19-.46-.28-.94-.28-1.46s.09-1.04.26-1.5c.17-.46.42-.86.73-1.19.32-.33.68-.6,1.1-.79s.88-.29,1.38-.29.95.1,1.37.29c.42.2.79.46,1.09.79s.54.73.72,1.19.26.96.26,1.49ZM914.13,483.01c-.27,0-.52.04-.76.14-.24.09-.44.21-.62.37-.18.16-.33.34-.44.56s-.18.46-.21.72h3.97c-.05-.52-.25-.95-.61-1.28-.35-.33-.8-.5-1.34-.5Z"/>
  </g>
  <path d="M106.71,191.61l-22.11-58.98c-1.67-4.45-2.52-9.17-2.52-13.93v-50.42c0-21.91,17.76-39.67,39.67-39.67h452.13c21.91,0,39.67,17.76,39.67,39.67v24.03c0,21.91-17.76,39.67-39.67,39.67H237.3c-14.88,0-28.51,8.33-35.3,21.57l-19.51,38.06" style="fill: #fff; stroke: #66b718; stroke-dasharray: 10 10; stroke-miterlimit: 10; stroke-width: 3px;"/>
</svg>