<?xml version="1.0" encoding="UTF-8"?>
<svg id="Layer_1" xmlns="http://www.w3.org/2000/svg" version="1.1" viewBox="0 0 226.14 254.98">
  <!-- Generator: Adobe Illustrator 29.7.1, SVG Export Plug-In . SVG Version: 2.1.1 Build 8)  -->
  <path d="M0,58.36c6.04-.92,12.86-1.66,17.65,2.12,2.24,1.77,3.74,4.33,5.94,6.16,3.99,3.32,10.08,3.66,14.59,1.11s7.32-7.72,7.37-12.91c.05-5.55-2.73-10.76-3.31-16.28-.59-5.58,1.28-11.49,5.36-15.35s10.39-5.37,15.61-3.31c5.93,2.34,9.5,8.62,10.67,14.89.92,4.97.62,10.17-.88,14.99-1.05,3.39-2.68,6.63-3.12,10.16-.86,6.99,3.19,13.7,8.14,18.7,11.3,11.42,28.32,16.87,44.15,14.14,2.07-.36,4.18-.87,5.88-2.09,2.28-1.63,3.55-4.29,5.15-6.59,5.22-7.49,14.98-11.53,23.97-9.91,1.2.22,2.41.54,3.38,1.27,3,2.27,2.19,6.84,1.98,10.59-.45,7.86,3.41,15.84,9.86,20.37,3.73,2.62,8.17,4.11,11.86,6.79s6.66,7.25,5.41,11.64c-3.51,5.19-10.28,7.1-16.54,7.38s-12.6-.69-18.76.43c-6.16,1.12-12.45,5.1-13.61,11.26-1.03,5.49,2.25,10.84,5.93,15.04,4.87,5.56,10.81,10.32,17.71,12.99,10.02,3.88,22.99,4.17,28.37,13.46,3.79,6.55,1.91,14.92,4.16,22.14,1.89,6.08,6.57,10.93,8.86,16.87,3.75,9.73.59,20.61-2.58,30.54" style="fill: none; stroke: #231f20; stroke-miterlimit: 10;"/>
</svg>