<?xml version="1.0" encoding="UTF-8"?>
<svg xmlns="http://www.w3.org/2000/svg" version="1.1" viewBox="0 0 100 100">
  <defs>
    <style>
      .cls-1 {
        fill: #150300;
      }
    </style>
  </defs>
  <!-- Generator: Adobe Illustrator 28.7.7, SVG Export Plug-In . SVG Version: 1.2.0 Build 194)  -->
  <g>
    <g id="Layer_1">
      <g>
        <rect class="cls-1" x="0" y="17.5" width="82.5" height="5"/>
        <polygon class="cls-1" points="17.5 37.5 17.5 42.5 77.5 42.5 77.5 77.5 60 77.5 57.5 77.5 57.5 77.5 37.5 77.5 37.5 82.5 57.5 82.5 57.5 100 62.5 100 62.5 82.5 77.5 82.5 82.5 82.5 82.5 77.5 82.5 42.5 82.5 37.5 77.5 37.5 17.5 37.5"/>
        <polygon class="cls-1" points="62.5 62.5 62.5 57.5 0 57.3 0 62.3 17.5 62.3 17.5 82.5 22.5 82.5 22.5 62.4 62.5 62.5"/>
      </g>
    </g>
  </g>
</svg>